<svg width="88" height="88" viewBox="0 0 88 88" fill="none" xmlns="http://www.w3.org/2000/svg">
<path d="M0 44C0 68.3005 19.6995 88 44 88C68.3005 88 88 68.3005 88 44C88 19.6995 68.3005 0 44 0C19.6995 0 0 19.6995 0 44Z" fill="white"/>
<path d="M28.2031 47.125C28.2031 46.8594 28.1719 46.625 28.1094 46.4219C28.0469 46.2135 27.9375 46.026 27.7812 45.8594C27.625 45.6927 27.4062 45.5339 27.125 45.3828C26.8438 45.2318 26.487 45.0781 26.0547 44.9219C25.5859 44.7552 25.1615 44.5703 24.7812 44.3672C24.401 44.1589 24.0755 43.9219 23.8047 43.6562C23.5391 43.3906 23.3333 43.0859 23.1875 42.7422C23.0417 42.3984 22.9688 42.0052 22.9688 41.5625C22.9688 41.1198 23.0443 40.7109 23.1953 40.3359C23.3516 39.9609 23.5703 39.6354 23.8516 39.3594C24.138 39.0781 24.4818 38.8594 24.8828 38.7031C25.2839 38.5469 25.7318 38.4688 26.2266 38.4688C26.9661 38.4688 27.5885 38.6328 28.0938 38.9609C28.6042 39.2839 28.9896 39.7083 29.25 40.2344C29.5104 40.7552 29.6406 41.3125 29.6406 41.9062H28.2031C28.2031 41.4792 28.1328 41.1016 27.9922 40.7734C27.8568 40.4401 27.6432 40.1797 27.3516 39.9922C27.0651 39.7995 26.6901 39.7031 26.2266 39.7031C25.8099 39.7031 25.4661 39.7839 25.1953 39.9453C24.9297 40.1068 24.7318 40.3255 24.6016 40.6016C24.4766 40.8776 24.4141 41.1927 24.4141 41.5469C24.4141 41.7865 24.4557 42.0052 24.5391 42.2031C24.6224 42.3958 24.75 42.5755 24.9219 42.7422C25.099 42.9089 25.3177 43.0625 25.5781 43.2031C25.8438 43.3438 26.1562 43.4792 26.5156 43.6094C27.0729 43.7917 27.5495 43.9948 27.9453 44.2188C28.3411 44.4427 28.6641 44.6953 28.9141 44.9766C29.1641 45.2526 29.3464 45.5677 29.4609 45.9219C29.5807 46.2708 29.6406 46.6667 29.6406 47.1094C29.6406 47.5729 29.5625 47.9922 29.4062 48.3672C29.2552 48.7422 29.0339 49.0625 28.7422 49.3281C28.4505 49.5938 28.099 49.7995 27.6875 49.9453C27.276 50.0859 26.8125 50.1562 26.2969 50.1562C25.849 50.1562 25.4089 50.0833 24.9766 49.9375C24.5495 49.7917 24.1615 49.5729 23.8125 49.2812C23.4635 48.9896 23.1849 48.6302 22.9766 48.2031C22.7682 47.7708 22.6641 47.2708 22.6641 46.7031H24.1016C24.1016 47.0938 24.1589 47.4297 24.2734 47.7109C24.388 47.987 24.5469 48.2161 24.75 48.3984C24.9531 48.5807 25.1849 48.7161 25.4453 48.8047C25.7109 48.888 25.9948 48.9297 26.2969 48.9297C26.7135 48.9297 27.0625 48.8568 27.3438 48.7109C27.6302 48.5651 27.8438 48.3568 27.9844 48.0859C28.1302 47.8151 28.2031 47.4948 28.2031 47.125Z" fill="black"/>
<path d="M34.4219 41.5469V42.6562H30.4766V41.5469H34.4219ZM31.7656 39.4922H33.1484V47.9062C33.1484 48.1927 33.1823 48.4089 33.25 48.5547C33.3229 48.7005 33.4141 48.7969 33.5234 48.8438C33.6328 48.8906 33.75 48.9141 33.875 48.9141C33.9688 48.9141 34.0729 48.9036 34.1875 48.8828C34.3021 48.8568 34.3802 48.8359 34.4219 48.8203L34.4141 50C34.3203 50.0365 34.1953 50.0703 34.0391 50.1016C33.8828 50.138 33.6849 50.1562 33.4453 50.1562C33.1484 50.1562 32.8724 50.0859 32.6172 49.9453C32.362 49.8047 32.1562 49.5703 32 49.2422C31.8438 48.9089 31.7656 48.4609 31.7656 47.8984V39.4922Z" fill="black"/>
<path d="M39.0938 50.1562C38.5885 50.1562 38.1328 50.0807 37.7266 49.9297C37.3203 49.7786 36.974 49.5495 36.6875 49.2422C36.401 48.9297 36.1823 48.5365 36.0312 48.0625C35.8802 47.5885 35.8047 47.0286 35.8047 46.3828V45.4297C35.8047 44.6849 35.8906 44.0547 36.0625 43.5391C36.2396 43.0234 36.4766 42.6094 36.7734 42.2969C37.0703 41.9792 37.4062 41.75 37.7812 41.6094C38.1562 41.4635 38.5417 41.3906 38.9375 41.3906C39.4688 41.3906 39.9219 41.4766 40.2969 41.6484C40.6719 41.8203 40.9766 42.0755 41.2109 42.4141C41.4453 42.7526 41.6172 43.1693 41.7266 43.6641C41.8411 44.1589 41.8984 44.7292 41.8984 45.375V46.1797H36.6172V45H40.5156V44.8047C40.4948 44.3672 40.4349 43.9818 40.3359 43.6484C40.2422 43.3151 40.0859 43.0547 39.8672 42.8672C39.6484 42.6745 39.3385 42.5781 38.9375 42.5781C38.6823 42.5781 38.4453 42.6224 38.2266 42.7109C38.013 42.7943 37.8281 42.9427 37.6719 43.1562C37.5208 43.3646 37.401 43.6536 37.3125 44.0234C37.2292 44.3932 37.1875 44.862 37.1875 45.4297V46.3828C37.1875 46.8359 37.2292 47.2266 37.3125 47.5547C37.401 47.8776 37.5286 48.1458 37.6953 48.3594C37.8672 48.5677 38.0755 48.724 38.3203 48.8281C38.5703 48.9271 38.8542 48.9766 39.1719 48.9766C39.6354 48.9766 40.0182 48.888 40.3203 48.7109C40.6224 48.5286 40.8854 48.2969 41.1094 48.0156L41.8359 48.8828C41.6849 49.0964 41.487 49.3021 41.2422 49.5C41.0026 49.6927 40.7057 49.8516 40.3516 49.9766C40.0026 50.0964 39.5833 50.1562 39.0938 50.1562Z" fill="black"/>
<path d="M44.9531 43.1719V53.25H43.5703V41.5469H44.8281L44.9531 43.1719ZM49.6797 45.3906V46.1797C49.6797 46.8464 49.6172 47.4297 49.4922 47.9297C49.3724 48.4245 49.1927 48.8385 48.9531 49.1719C48.7188 49.5 48.4297 49.7474 48.0859 49.9141C47.7422 50.0755 47.349 50.1562 46.9062 50.1562C46.4635 50.1562 46.0781 50.0729 45.75 49.9062C45.4271 49.7344 45.1536 49.487 44.9297 49.1641C44.7109 48.8411 44.5365 48.4531 44.4062 48C44.2812 47.5417 44.1953 47.0286 44.1484 46.4609V45.2578C44.1953 44.6589 44.2812 44.1224 44.4062 43.6484C44.5312 43.1693 44.7031 42.763 44.9219 42.4297C45.1458 42.0911 45.4193 41.8333 45.7422 41.6562C46.0703 41.4792 46.4531 41.3906 46.8906 41.3906C47.3438 41.3906 47.7422 41.4688 48.0859 41.625C48.4349 41.7812 48.7266 42.0234 48.9609 42.3516C49.2005 42.6745 49.3802 43.0885 49.5 43.5938C49.6198 44.0938 49.6797 44.6927 49.6797 45.3906ZM48.2969 46.1797V45.3906C48.2969 44.9219 48.2604 44.513 48.1875 44.1641C48.1198 43.8151 48.0104 43.526 47.8594 43.2969C47.7083 43.0677 47.5182 42.8958 47.2891 42.7812C47.0599 42.6667 46.7839 42.6094 46.4609 42.6094C46.1849 42.6094 45.9401 42.6667 45.7266 42.7812C45.5182 42.8958 45.3385 43.0521 45.1875 43.25C45.0365 43.4427 44.9115 43.6641 44.8125 43.9141C44.7135 44.1589 44.6406 44.4141 44.5938 44.6797V47.0469C44.6823 47.3802 44.7995 47.6953 44.9453 47.9922C45.0911 48.2839 45.2865 48.5208 45.5312 48.7031C45.7812 48.8854 46.0964 48.9766 46.4766 48.9766C46.7943 48.9766 47.0677 48.9193 47.2969 48.8047C47.526 48.6901 47.7135 48.5182 47.8594 48.2891C48.0104 48.0547 48.1198 47.763 48.1875 47.4141C48.2604 47.0599 48.2969 46.6484 48.2969 46.1797Z" fill="black"/>
<path d="M56.6797 44.5859L55.5781 44.2891L56.0625 38.625H61.0156V39.9609H57.2266L56.9609 43.0547C57.138 42.9349 57.3516 42.8229 57.6016 42.7188C57.8516 42.6146 58.1432 42.5625 58.4766 42.5625C58.9245 42.5625 59.3229 42.6536 59.6719 42.8359C60.026 43.013 60.3255 43.2682 60.5703 43.6016C60.8151 43.9349 61.0026 44.3359 61.1328 44.8047C61.263 45.2734 61.3281 45.7969 61.3281 46.375C61.3281 46.9219 61.263 47.4245 61.1328 47.8828C61.0078 48.3411 60.8151 48.7422 60.5547 49.0859C60.2995 49.4245 59.9766 49.6875 59.5859 49.875C59.2005 50.0625 58.75 50.1562 58.2344 50.1562C57.849 50.1562 57.4844 50.0938 57.1406 49.9688C56.7969 49.8385 56.487 49.6432 56.2109 49.3828C55.9401 49.1172 55.7188 48.7891 55.5469 48.3984C55.375 48.0026 55.2682 47.5391 55.2266 47.0078H56.5312C56.5833 47.4349 56.6823 47.7943 56.8281 48.0859C56.9792 48.3776 57.1719 48.599 57.4062 48.75C57.6458 48.8958 57.9219 48.9688 58.2344 48.9688C58.5 48.9688 58.7396 48.9089 58.9531 48.7891C59.1667 48.6693 59.3464 48.4974 59.4922 48.2734C59.638 48.0495 59.75 47.7786 59.8281 47.4609C59.9062 47.1432 59.9453 46.7865 59.9453 46.3906C59.9453 46.0312 59.9062 45.6979 59.8281 45.3906C59.75 45.0833 59.6328 44.8151 59.4766 44.5859C59.3203 44.3568 59.1302 44.1797 58.9062 44.0547C58.6875 43.9245 58.4323 43.8594 58.1406 43.8594C57.75 43.8594 57.4609 43.9245 57.2734 44.0547C57.0911 44.1849 56.8932 44.362 56.6797 44.5859Z" fill="black"/>
</svg>
