<svg width="14" height="14" viewBox="0 0 19 14" fill="none" xmlns="http://www.w3.org/2000/svg">
<path d="M1 12C0.447715 12 0 12.4477 0 13C0 13.5523 0.447715 14 1 14V12ZM9 14C9.55228 14 10 13.5523 10 13C10 12.4477 9.55228 12 9 12V14ZM1 7C0.447715 7 0 7.44772 0 8C0 8.55228 0.447715 9 1 9V7ZM7 9C7.55228 9 8 8.55228 8 8C8 7.44772 7.55228 7 7 7V9ZM1 2C0.447715 2 0 2.44772 0 3C0 3.55228 0.447715 4 1 4V2ZM5 4C5.55228 4 6 3.55228 6 3C6 2.44772 5.55228 2 5 2V4ZM15 2L15.7071 1.29289L15 0.585786L14.2929 1.29289L15 2ZM1 14H9V12H1V14ZM1 9H7V7H1V9ZM1 4H5V2H1V4ZM14.2929 2.70711L17.2929 5.70711L18.7071 4.29289L15.7071 1.29289L14.2929 2.70711ZM14.2929 1.29289L11.2929 4.29289L12.7071 5.70711L15.7071 2.70711L14.2929 1.29289ZM16 14L16 2L14 2L14 14L16 14Z" fill="white"/>
</svg>
