<svg width="728" height="532" viewBox="0 0 628 432" fill="none" xmlns="http://www.w3.org/2000/svg">
<mask id="mask0_529_2115" style="mask-type:luminance" maskUnits="userSpaceOnUse" x="0" y="0" width="628" height="432">
<path d="M628 0H0V432H628V0Z" fill="white"/>
</mask>
<g mask="url(#mask0_529_2115)">
<mask id="mask1_529_2115" style="mask-type:luminance" maskUnits="userSpaceOnUse" x="0" y="0" width="728" height="532">
<path d="M0.984375 0.0976562H628V431.9H0.984375V0.0976562Z" fill="white"/>
</mask>
<g mask="url(#mask1_529_2115)">
<path d="M251.432 11.3789L249.938 8.79036L251.432 6.19662H254.422L255.922 8.79036L254.422 11.3789H251.432ZM250.703 54.1185L248.484 50.2747L250.703 46.431H255.146L257.365 50.2747L255.146 54.1185H250.703ZM233.339 21.9727L231.714 19.1602L233.339 16.3477H236.589L238.208 19.1602L236.589 21.9727H233.339ZM266.807 150.697L262.719 143.624L266.807 136.546H274.974L279.063 143.624L274.974 150.697H266.807ZM250.328 75.5247L247.724 71.0195L250.328 66.5143H255.526L258.13 71.0195L255.526 75.5247H250.328ZM266.37 172.197L261.854 164.363L266.37 156.54H275.411L279.927 164.363L275.411 172.197H266.37ZM257.719 166.441L262.51 174.738L257.719 183.035H248.135L243.349 174.738L248.135 166.441H257.719ZM232.948 43.3893L230.938 39.9049L232.948 36.4206H236.974L238.984 39.9049L236.974 43.3893H232.948ZM249.948 96.9258L246.964 91.7643L249.948 86.6029H255.906L258.891 91.7643L255.906 96.9258H249.948ZM267.255 129.176L263.62 122.879L267.255 116.582H274.526L278.161 122.879L274.526 129.176H267.255ZM286.958 32.8164L285.068 29.5299L286.958 26.2487H290.75L292.646 29.5299L290.75 32.8164H286.958ZM248.578 161.525L244.229 153.993L248.578 146.462H257.276L261.625 153.993L257.276 161.525H248.578ZM249.073 139.921L245.224 133.254L249.073 126.577H256.776L260.63 133.254L256.776 139.921H249.073ZM251.057 32.7695L249.188 29.5299L251.057 26.2956H254.792L256.661 29.5299L254.792 32.7695H251.057ZM285.042 139.858L281.219 133.254L285.042 126.639H292.672L296.49 133.254L292.672 139.858H285.042ZM285.49 118.332L282.13 112.504L285.49 106.681H292.219L295.583 112.504L292.219 118.332H285.49ZM267.693 107.676L264.495 102.134L267.693 96.5977H274.089L277.286 102.134L274.089 107.676H267.693ZM176.964 140.358L172.859 133.254L176.964 126.139H185.172L189.276 133.254L185.172 140.358H176.964ZM286.255 75.5247L283.651 71.0195L286.255 66.5143H291.453L294.057 71.0195L291.453 75.5247H286.255ZM286.609 54.1706L284.359 50.2747L286.609 46.3841H291.104L293.349 50.2747L291.104 54.1706H286.609ZM285.885 96.905L282.917 91.7643L285.885 86.6185H291.823L294.792 91.7643L291.823 96.905H285.885ZM268.099 86.2279L265.307 81.3893L268.099 76.556H273.682L276.469 81.3893L273.682 86.2279H268.099ZM284.563 161.431L280.266 153.993L284.563 146.556H293.151L297.443 153.993L293.151 161.431H284.563ZM268.479 64.8216L266.073 60.6497L268.479 56.4727H273.302L275.714 60.6497L273.302 64.8216H268.479ZM293.583 166.546L298.313 174.738L293.583 182.926H284.13L279.401 174.738L284.13 166.546H293.583ZM268.833 43.4674L266.776 39.9049L268.833 36.3372H272.948L275.005 39.9049L272.948 43.4674H268.833ZM269.203 22.0872L267.51 19.1602L269.203 16.2331H272.583L274.266 19.1602L272.583 22.0872H269.203ZM249.521 118.41L246.115 112.504L249.521 106.603H256.333L259.74 112.504L256.333 118.41H249.521ZM203.766 156.171L208.495 164.363L203.766 172.561H194.302L189.573 164.363L194.302 156.171H203.766ZM194.766 151.014L190.5 143.624L194.766 136.233H203.302L207.563 143.624L203.302 151.014H194.766ZM197.589 21.6602L196.151 19.1602L197.589 16.6602H200.474L201.917 19.1602L200.474 21.6602H197.589ZM196.651 64.7799L194.266 60.6497L196.651 56.5195H201.417L203.802 60.6497L201.417 64.7799H196.651ZM232.552 64.8216L230.141 60.6497L232.552 56.4727H237.375L239.786 60.6497L237.375 64.8216H232.552ZM196.214 86.2747L193.391 81.3893L196.214 76.5091H201.854L204.672 81.3893L201.854 86.2747H196.214ZM195.26 129.41L191.49 122.879L195.26 116.348H202.802L206.573 122.879L202.802 129.41H195.26ZM177.979 97.1185L174.885 91.7643L177.979 86.4102H184.161L187.255 91.7643L184.161 97.1185H177.979ZM177.464 118.749L173.859 112.504L177.464 106.264H184.672L188.276 112.504L184.672 118.749H177.464ZM179.521 32.2174L177.969 29.5299L179.521 26.8477H182.62L184.172 29.5299L182.62 32.2174H179.521ZM178.438 75.5716L175.813 71.0195L178.438 66.4674H183.693L186.323 71.0195L183.693 75.5716H178.438ZM180.323 10.082L179.573 8.79036L180.323 7.49349H181.818L182.563 8.79036L181.818 10.082H180.323ZM178.953 53.9362L176.844 50.2747L178.953 46.6185H183.182L185.292 50.2747L183.182 53.9362H178.953ZM195.755 107.816L192.474 102.134L195.755 96.4518H202.313L205.594 102.134L202.313 107.816H195.755ZM215.229 32.5977L213.464 29.5299L215.229 26.4674H218.766L220.531 29.5299L218.766 32.5977H215.229ZM230.813 150.811L226.661 143.624L230.813 136.431H239.115L243.26 143.624L239.115 150.811H230.813ZM230.349 172.353L225.74 164.363L230.349 156.379H239.573L244.182 164.363L239.573 172.353H230.349ZM231.276 129.264L227.589 122.879L231.276 116.493H238.646L242.333 122.879L238.646 129.264H231.276ZM232.156 86.2539L229.344 81.3893L232.156 76.5247H237.771L240.583 81.3893L237.771 86.2539H232.156ZM231.734 107.723L228.51 102.134L231.734 96.5508H238.188L241.411 102.134L238.188 107.723H231.734ZM213.964 97.0195L210.927 91.7643L213.964 86.5039H220.031L223.068 91.7643L220.031 97.0195H213.964ZM213.047 140.087L209.099 133.254L213.047 126.41H220.948L224.896 133.254L220.948 140.087H213.047ZM213.531 118.514L210.057 112.504L213.531 106.499H220.464L223.938 112.504L220.464 118.514H213.531ZM215.667 11.0977L214.328 8.79036L215.667 6.47786H218.328L219.667 8.79036L218.328 11.0977H215.667ZM212.568 161.665L208.141 153.993L212.568 146.322H221.427L225.854 153.993L221.427 161.665H212.568ZM197.104 43.2487L195.172 39.9049L197.104 36.5612H200.964L202.891 39.9049L200.964 43.2487H197.104ZM214.802 54.0768L212.609 50.2747L214.802 46.4779H219.188L221.38 50.2747L219.188 54.0768H214.802ZM214.396 75.5247L211.797 71.0195L214.396 66.5143H219.599L222.198 71.0195L219.599 75.5247H214.396ZM287.302 11.4831L285.75 8.79036L287.302 6.09766H290.411L291.964 8.79036L290.411 11.4831H287.302ZM375.943 86.1341L373.208 81.3893L375.943 76.6497H381.417L384.151 81.3893L381.417 86.1341H375.943ZM375.557 107.535L372.438 102.134L375.557 96.7331H381.797L384.917 102.134L381.797 107.535H375.557ZM376.661 43.3945L374.646 39.9049L376.661 36.4154H380.693L382.708 39.9049L380.693 43.3945H376.661ZM375.125 129.03L371.578 122.879L375.125 116.728H382.229L385.781 122.879L382.229 129.03H375.125ZM376.995 22.082L375.307 19.1602L376.995 16.2383H380.365L382.047 19.1602L380.365 22.082H376.995ZM376.292 64.7799L373.911 60.6497L376.292 56.5195H381.063L383.448 60.6497L381.063 64.7799H376.292ZM358.818 32.8164L356.922 29.5299L358.818 26.2487H362.609L364.505 29.5299L362.609 32.8164H358.818ZM358.495 54.1185L356.271 50.2747L358.495 46.431H362.938L365.156 50.2747L362.938 54.1185H358.495ZM302.323 172.15L297.833 164.363L302.323 156.577H311.313L315.813 164.363L311.313 172.15H302.323ZM357.76 96.8789L354.807 91.7643L357.76 86.6497H363.667L366.62 91.7643L363.667 96.8789H357.76ZM374.25 172.04L369.818 164.363L374.25 156.691H383.109L387.536 164.363L383.109 172.04H374.25ZM374.677 150.556L370.672 143.624L374.677 136.691H382.682L386.682 143.624L382.682 150.556H374.677ZM392.026 182.738L387.401 174.738L392.026 166.738H401.26L405.88 174.738L401.26 182.738H392.026ZM359.161 11.4727L357.615 8.79036L359.161 6.10286H362.266L363.818 8.79036L362.266 11.4727H359.161ZM410.26 171.9L405.911 164.363L410.26 156.837H418.953L423.302 164.363L418.953 171.9H410.26ZM410.74 150.322L406.87 143.624L410.74 136.921H418.474L422.344 143.624L418.474 150.322H410.74ZM411.969 85.9622L409.328 81.3893L411.969 76.8216H417.25L419.885 81.3893L417.25 85.9622H411.969ZM419.396 176.811L424.188 185.108L419.396 193.405H409.818L405.026 185.108L409.818 176.811H419.396ZM411.573 107.389L408.536 102.134L411.573 96.8789H417.641L420.677 102.134L417.641 107.389H411.573ZM411.188 128.801L407.771 122.879L411.188 116.957H418.026L421.443 122.879L418.026 128.801H411.188ZM394.802 32.7174L392.964 29.5299L394.802 26.3424H398.484L400.323 29.5299L398.484 32.7174H394.802ZM393.771 96.7383L390.896 91.7643L393.771 86.7904H399.516L402.385 91.7643L399.516 96.7383H393.771ZM393.37 118.171L390.104 112.504L393.37 106.842H399.917L403.182 112.504L399.917 118.171H393.37ZM392.911 139.717L389.177 133.254L392.911 126.785H400.375L404.109 133.254L400.375 139.717H392.911ZM394.479 54.0247L392.313 50.2747L394.479 46.5247H398.807L400.974 50.2747L398.807 54.0247H394.479ZM395.146 11.3789L393.651 8.79036L395.146 6.19662H398.141L399.635 8.79036L398.141 11.3789H395.146ZM392.474 161.212L388.313 153.993L392.474 146.78H400.807L404.974 153.993L400.807 161.212H392.474ZM394.125 75.3841L391.604 71.0195L394.125 66.6549H399.161L401.682 71.0195L399.161 75.3841H394.125ZM358.141 75.4779L355.568 71.0195L358.141 66.5612H363.286L365.859 71.0195L363.286 75.4779H358.141ZM329.484 166.592L334.188 174.738L329.484 182.884H320.083L315.385 174.738L320.083 166.592H329.484ZM320.51 161.4L316.234 153.993L320.51 146.592H329.057L333.333 153.993L329.057 161.4H320.51ZM320.969 139.858L317.156 133.254L320.969 126.645H328.599L332.411 133.254L328.599 139.858H320.969ZM321.813 96.905L318.844 91.7643L321.813 86.6185H327.755L330.724 91.7643L327.755 96.905H321.813ZM304.755 43.4831L302.688 39.9049L304.755 36.3268H308.885L310.953 39.9049L308.885 43.4831H304.755ZM321.427 118.327L318.063 112.504L321.427 106.686H328.146L331.505 112.504L328.146 118.327H321.427ZM304.391 64.8529L301.969 60.6497L304.391 56.4466H309.245L311.672 60.6497L309.245 64.8529H304.391ZM305.089 22.1602L303.354 19.1602L305.089 16.1602H308.552L310.286 19.1602L308.552 22.1602H305.089ZM303.214 129.124L299.604 122.879L303.214 116.629H310.427L314.036 122.879L310.427 129.124H303.214ZM302.766 150.65L298.703 143.624L302.766 136.592H310.875L314.932 143.624L310.875 150.65H302.766ZM357.375 118.285L354.042 112.504L357.375 106.728H364.047L367.385 112.504L364.047 118.285H357.375ZM304.026 86.2279L301.24 81.3893L304.026 76.556H309.609L312.401 81.3893L309.609 86.2279H304.026ZM303.63 107.66L300.438 102.134L303.63 96.6081H310.01L313.198 102.134L310.01 107.66H303.63ZM322.182 75.5247L319.583 71.0195L322.182 66.5143H327.385L329.99 71.0195L327.385 75.5247H322.182ZM340.682 43.4831L338.615 39.9049L340.682 36.3268H344.818L346.88 39.9049L344.818 43.4831H340.682ZM341.016 22.1602L339.286 19.1602L341.016 16.1602H344.484L346.214 19.1602L344.484 22.1602H341.016ZM365.385 166.645L370.063 174.738L365.385 182.832H356.042L351.365 174.738L356.042 166.645H365.385ZM356.927 139.811L353.141 133.254L356.927 126.691H364.5L368.286 133.254L364.5 139.811H356.927ZM356.448 161.384L352.182 153.993L356.448 146.603H364.979L369.245 153.993L364.979 161.384H356.448ZM340.339 64.8216L337.927 60.6497L340.339 56.4727H345.161L347.568 60.6497L345.161 64.8216H340.339ZM339.958 86.2279L337.167 81.3893L339.958 76.556H345.536L348.328 81.3893L345.536 86.2279H339.958ZM338.26 172.139L333.776 164.363L338.26 156.598H347.234L351.724 164.363L347.234 172.139H338.26ZM322.88 32.8268L320.979 29.5299L322.88 26.2383H326.688L328.589 29.5299L326.688 32.8268H322.88ZM323.208 11.5195L321.63 8.79036L323.208 6.05599H326.359L327.938 8.79036L326.359 11.5195H323.208ZM339.146 129.124L335.542 122.879L339.146 116.634H346.354L349.958 122.879L346.354 129.124H339.146ZM339.563 107.66L336.37 102.134L339.563 96.6081H345.938L349.13 102.134L345.938 107.66H339.563ZM322.536 54.1706L320.286 50.2747L322.536 46.3841H327.031L329.281 50.2747L327.031 54.1706H322.536ZM338.708 150.624L334.667 143.624L338.708 136.624H346.792L350.833 143.624L346.792 150.624H338.708ZM305.385 0.899739L304.922 0.0976562H308.719L308.255 0.899739H305.385ZM617.219 290.54L622.219 299.202L617.219 307.863H607.219L602.219 299.202L607.219 290.54H617.219ZM589.484 276.337L584.719 268.082L589.484 259.832H599.021L603.786 268.082L599.021 276.337H589.484ZM527.365 217.988L532.339 226.598L527.365 235.212H517.422L512.448 226.598L517.422 217.988H527.365ZM545.359 228.306L550.354 236.967L545.359 245.629H535.359L530.359 236.967L535.359 228.306H545.359ZM563.307 238.707L568.292 247.342L563.307 255.973H553.339L548.354 247.342L553.339 238.707H563.307ZM581.208 249.191L586.125 257.712L581.208 266.228H571.37L566.453 257.712L571.37 249.191H581.208ZM625.563 317.582L620.938 309.572L625.563 301.566H634.802L639.427 309.572L634.802 317.582H625.563ZM643.391 431.9L638.635 423.665L643.391 415.426H648.974V431.9H643.391ZM620.068 330.316L625.125 321.556H635.24L640.297 330.316L635.24 339.077H625.125L620.068 330.316ZM637.063 402.915L642.604 393.322H648.974V412.52H642.604L637.063 402.915ZM637.818 382.176L642.979 373.228H648.974V391.119H642.979L637.818 382.176ZM639.234 340.686L643.688 332.967H648.974V348.405H643.688L639.234 340.686ZM638.526 361.431L643.339 353.103H648.974V369.764H643.339L638.526 361.431ZM240.063 176.275L245.161 185.108L240.063 193.941H229.859L224.76 185.108L229.859 176.275H240.063ZM283.62 204.551L278.385 195.483L283.62 186.415H294.089L299.328 195.483L294.089 204.551H283.62ZM275.87 176.483L280.854 185.108L275.87 193.738H265.911L260.927 185.108L265.911 176.483H275.87ZM247.609 204.691L242.292 195.483L247.609 186.27H258.245L263.563 195.483L258.245 204.691H247.609ZM319.599 204.473L314.406 195.483L319.599 186.493H329.974L335.161 195.483L329.974 204.473H319.599ZM311.776 176.53L316.724 185.108L311.776 193.691H301.865L296.911 185.108L301.865 176.53H311.776ZM509.365 207.671L514.307 216.223L509.365 224.775H499.49L494.557 216.223L499.49 207.671H509.365ZM301.349 215.332L295.88 205.853L301.349 196.374H312.292L317.766 205.853L312.292 215.332H301.349ZM168.078 155.754L173.047 164.363L168.078 172.978H158.13L153.156 164.363L158.13 155.754H168.078ZM491.313 197.462L496.156 205.853L491.313 214.243H481.62L476.776 205.853L481.62 197.462H491.313ZM221.906 166.233L226.818 174.738L221.906 183.243H212.083L207.177 174.738L212.083 166.233H221.906ZM186.177 165.889L191.286 174.738L186.177 183.587H175.958L170.854 174.738L175.958 165.889H186.177ZM635.745 341.426L641.302 351.061L635.745 360.691H624.62L619.063 351.061L624.62 341.426H635.745ZM193.771 194.228L188.51 185.108L193.771 175.993H204.297L209.557 185.108L204.297 194.228H193.771ZM222.422 186.082L227.849 195.483L222.422 204.879H211.573L206.146 195.483L211.573 186.082H222.422ZM413.307 0.665365L412.984 0.0976562H416.234L415.906 0.665365H413.307ZM377.292 0.821615L376.875 0.0976562H380.484L380.068 0.821615H377.292ZM269.505 0.821615L269.089 0.0976562H272.698L272.276 0.821615H269.505ZM341.313 0.899739L340.854 0.0976562H344.646L344.182 0.899739H341.313ZM449.344 0.477865L449.13 0.0976562H451.943L451.729 0.477865H449.344ZM412.307 64.6341L410 60.6497L412.307 56.6602H416.911L419.214 60.6497L416.911 64.6341H412.307ZM647.521 72.1081L646.891 71.0195L647.521 69.931H648.771L648.974 70.28V71.7591L648.771 72.1081H647.521ZM4.96354 71.0195L3.19271 74.0872H0.59375V67.9518H3.19271L4.96354 71.0195ZM617.724 310.405L623.234 319.947L617.724 329.483H606.708L601.203 319.947L606.708 310.405H617.724ZM233.708 0.582031L233.427 0.0976562H236.495L236.214 0.582031H233.708ZM648.089 8.88932L648.031 8.79036L648.089 8.6862H648.203L648.266 8.79036L648.203 8.88932H648.089ZM647.734 50.9883L647.328 50.2747L647.734 49.5612H648.557L648.969 50.2747L648.557 50.9883H647.734ZM485.427 0.212239L485.359 0.0976562H487.573L487.505 0.212239H485.427ZM1.80729 91.0977L2.19271 91.7643L1.80729 92.4258H1.04167L0.656251 91.7643L1.04167 91.0977H1.80729ZM0.59375 17.832V0.0976562H6.84375L11.8594 8.79036L6.64063 17.832H0.59375ZM121.823 173.634L116.469 164.363L121.823 155.092H132.526L137.88 164.363L132.526 173.634H121.823ZM337.297 215.296L331.844 205.853L337.297 196.41H348.203L353.656 205.853L348.203 215.296H337.297ZM438.052 206.733L443.531 216.223L438.052 225.717H427.094L421.615 216.223L427.094 206.733H438.052ZM588.964 297.988L583.672 288.827L588.964 279.665H599.542L604.833 288.827L599.542 297.988H588.964ZM176.474 161.952L171.885 153.993L176.474 146.04H185.661L190.25 153.993L185.661 161.952H176.474ZM139.734 184.103L134.323 174.738L139.734 165.374H150.547L155.953 174.738L150.547 184.103H139.734ZM14.7656 47.9049L10.1458 39.9049L14.7656 31.9049H24.0052L28.6302 39.9049L24.0052 47.9049H14.7656ZM24.7135 51.4258L30.0365 60.6497L24.7135 69.8737H14.0625L8.73958 60.6497L14.0625 51.4258H24.7135ZM15.9167 25.1706L12.4479 19.1602L15.9167 13.1497H22.8542L26.3229 19.1602L22.8542 25.1706H15.9167ZM85.875 152.926L80.5 143.624L85.875 134.322H96.6146L101.984 143.624L96.6146 152.926H85.875ZM103.859 163.264L98.5052 153.993L103.859 144.723H114.563L119.911 153.993L114.563 163.264H103.859ZM42.724 82.4622L48.0938 91.7643L42.724 101.066H31.9792L26.6094 91.7643L31.9792 82.4622H42.724ZM78.7344 123.806L84.1875 133.254L78.7344 142.691H67.8281L62.375 133.254L67.8281 123.806H78.7344ZM581.714 269.061L587.141 278.457L581.714 287.853H570.865L565.438 278.457L570.865 269.061H581.714ZM122.922 130.243L118.672 122.879L122.922 115.52H131.427L135.677 122.879L131.427 130.243H122.922ZM108.12 31.4258L107.026 29.5299L108.12 27.6393H110.302L111.396 29.5299L110.302 31.4258H108.12ZM107.042 54.0247L104.88 50.2747L107.042 46.5247H111.375L113.542 50.2747L111.375 54.0247H107.042ZM126.786 19.832L126.401 19.1602L126.786 18.4883H127.563L127.948 19.1602L127.563 19.832H126.786ZM124.74 64.8737L122.297 60.6497L124.74 56.4258H129.609L132.052 60.6497L129.609 64.8737H124.74ZM124.083 86.7487L120.99 81.3893L124.083 76.0352H130.266L133.359 81.3893L130.266 86.7487H124.083ZM123.469 108.551L119.766 102.134L123.469 95.7175H130.88L134.583 102.134L130.88 108.551H123.469ZM88.4271 65.5299L85.6094 60.6497L88.4271 55.7695H94.0625L96.8802 60.6497L94.0625 65.5299H88.4271ZM106.266 76.1133L103.328 71.0195L106.266 65.9258H112.151L115.094 71.0195L112.151 76.1133H106.266ZM90.7969 19.9362L90.349 19.1602L90.7969 18.3841H91.6927L92.1406 19.1602L91.6927 19.9362H90.7969ZM105.589 98.0404L101.964 91.7643L105.589 85.4883H112.833L116.453 91.7643L112.833 98.0404H105.589ZM105.016 119.77L100.823 112.504L105.016 105.243H113.401L117.594 112.504L113.401 119.77H105.016ZM89.3698 43.1549L87.4948 39.9049L89.3698 36.6549H93.1198L94.9948 39.9049L93.1198 43.1549H89.3698ZM125.568 42.6862L123.958 39.9049L125.568 37.1185H128.781L130.391 39.9049L128.781 42.6862H125.568ZM160.203 86.4102L157.302 81.3893L160.203 76.3685H166L168.901 81.3893L166 86.4102H160.203ZM159.688 108.051L156.276 102.134L159.688 96.2227H166.516L169.932 102.134L166.516 108.051H159.688ZM160.75 64.7331L158.391 60.6497L160.75 56.5664H165.464L167.818 60.6497L165.464 64.7331H160.75ZM161.344 42.9518L159.583 39.9049L161.344 36.8581H164.865L166.62 39.9049L164.865 42.9518H161.344ZM159.151 129.717L155.208 122.879L159.151 116.04H167.052L171 122.879L167.052 129.717H159.151ZM162.219 20.6914L161.339 19.1602L162.219 17.6289H163.99L164.87 19.1602L163.99 20.6914H162.219ZM87.6771 87.5716L84.1094 81.3893L87.6771 75.207H94.8125L98.3854 81.3893L94.8125 87.5716H87.6771ZM141.339 119.082L137.542 112.504L141.339 105.931H148.938L152.734 112.504L148.938 119.082H141.339ZM158.646 151.348L154.182 143.624L158.646 135.895H167.563L172.021 143.624L167.563 151.348H158.646ZM140.781 140.796L136.427 133.254L140.781 125.707H149.495L153.854 133.254L149.495 140.796H140.781ZM141.885 97.3945L138.635 91.7643L141.885 86.1341H148.391L151.646 91.7643L148.391 97.3945H141.885ZM143.109 53.7956L141.078 50.2747L143.109 46.7591H147.172L149.203 50.2747L147.172 53.7956H143.109ZM142.432 75.7122L139.724 71.0195L142.432 66.3268H147.849L150.557 71.0195L147.849 75.7122H142.432ZM143.943 31.6081L142.745 29.5299L143.943 27.457H146.339L147.536 29.5299L146.339 31.6081H143.943ZM113.974 124.993L118.745 133.254L113.974 141.509H104.443L99.6771 133.254L104.443 124.993H113.974ZM463.24 225.337L457.974 216.223L463.24 207.108H473.76L479.026 216.223L473.76 225.337H463.24ZM481.094 235.9L475.724 226.598L481.094 217.296H491.839L497.208 226.598L491.839 235.9H481.094ZM347.693 176.546L352.641 185.108L347.693 193.676H337.802L332.859 185.108L337.802 176.546H347.693ZM150.005 145.566L154.865 153.993L150.005 162.421H140.276L135.411 153.993L140.276 145.566H150.005ZM455.672 196.957L460.807 205.853L455.672 214.749H445.401L440.266 205.853L445.401 196.957H455.672ZM131.974 135.306L136.776 143.624L131.974 151.941H122.37L117.573 143.624L122.37 135.306H131.974ZM384.078 196.504L389.474 205.853L384.078 215.202H373.276L367.88 205.853L373.276 196.504H384.078ZM96.0365 114.582L100.828 122.879L96.0365 131.176H86.4531L81.6667 122.879L86.4531 114.582H96.0365ZM355.552 204.426L350.391 195.483L355.552 186.54H365.875L371.036 195.483L365.875 204.426H355.552ZM409.281 215.077L403.958 205.853L409.281 196.629H419.932L425.255 205.853L419.932 215.077H409.281ZM437.526 186.905L442.479 195.483L437.526 204.061H427.62L422.667 195.483L427.62 186.905H437.526ZM383.573 176.639L388.458 185.108L383.573 193.582H373.786L368.896 185.108L373.786 176.639H383.573ZM401.75 186.634L406.859 195.483L401.75 204.332H391.536L386.427 195.483L391.536 186.634H401.75ZM51.6094 67.0664L47.9063 60.6497L51.6094 54.2279H59.0208L62.7292 60.6497L59.0208 67.0664H51.6094ZM78.1406 104.082L83.0052 112.504L78.1406 120.931H68.4167L63.5521 112.504L68.4167 104.082H78.1406ZM54.0885 21.2799L52.8646 19.1602L54.0885 17.0404H56.5417L57.7656 19.1602L56.5417 21.2799H54.0885ZM52.5521 44.6914L49.7917 39.9049L52.5521 35.1185H58.0833L60.8438 39.9049L58.0833 44.6914H52.5521ZM70.5417 55.0143L67.8073 50.2747L70.5417 45.5352H76.0156L78.7552 50.2747L76.0156 55.0143H70.5417ZM71.7083 32.2487L70.1406 29.5299L71.7083 26.8112H74.849L76.4219 29.5299L74.849 32.2487H71.7083ZM69.6979 77.2227L66.1198 71.0195L69.6979 64.8164H76.8594L80.4427 71.0195L76.8594 77.2227H69.6979ZM69.0156 99.155L64.7448 91.7643L69.0156 84.3737H77.5469L81.8125 91.7643L77.5469 99.155H69.0156ZM32.5938 79.2591L27.8438 71.0195L32.5938 62.7852H42.1094L46.8594 71.0195L42.1094 79.2591H32.5938ZM50.2396 110.921L45.1719 102.134L50.2396 93.3477H60.3906L65.4635 102.134L60.3906 110.921H50.2396ZM87.0521 109.4L82.8594 102.134L87.0521 94.8737H95.4375L99.6302 102.134L95.4375 109.4H87.0521ZM33.375 57.1654L29.3958 50.2747L33.375 43.3893H41.3281L45.3073 50.2747L41.3281 57.1654H33.375ZM50.901 89.0352L46.4896 81.3893L50.901 73.7487H59.7292L64.1458 81.3893L59.7292 89.0352H50.901ZM34.4531 34.556L31.5521 29.5299L34.4531 24.5143H40.25L43.151 29.5299L40.25 34.556H34.4531ZM36.5625 10.1602L35.7708 8.79036L36.5625 7.42057H38.1406L38.9323 8.79036L38.1406 10.1602H36.5625ZM647.922 29.9206L647.698 29.5299L647.922 29.1445H648.37L648.594 29.5299L648.37 29.9206H647.922ZM561.552 283.238L564.776 288.827L561.552 294.415H555.099L551.87 288.827L555.099 283.238H561.552ZM577.245 318.29L578.203 319.947L577.245 321.603H575.328L574.375 319.947L575.328 318.29H577.245ZM596.214 326.926L598.167 330.316L596.214 333.707H592.297L590.339 330.316L592.297 326.926H596.214ZM558.823 308.712L559.313 309.572L558.823 310.431H557.828L557.333 309.572L557.828 308.712H558.823ZM580.156 292.504L584.026 299.202L580.156 305.9H572.417L568.552 299.202L572.417 292.504H580.156ZM563.859 258.499L569.391 268.082L563.859 277.671H552.786L547.255 268.082L552.786 258.499H563.859ZM594.286 351.009L594.313 351.061L594.286 351.113H594.224L594.193 351.061L594.224 351.009H594.286ZM634.026 365.145L637.87 371.806L634.026 378.462H626.339L622.495 371.806L626.339 365.145H634.026ZM599.333 300.77L604.417 309.572L599.333 318.374H589.172L584.089 309.572L589.172 300.77H599.333ZM630.688 412.415L631.188 413.29L630.688 414.165H629.682L629.172 413.29L629.682 412.415H630.688ZM615.979 334.171L619.74 340.686L615.979 347.207H608.453L604.693 340.686L608.453 334.171H615.979ZM613.547 359.139L614.865 361.431L613.547 363.728H610.891L609.568 361.431L610.891 359.139H613.547ZM632.031 389.348L633.88 392.546L632.031 395.749H628.333L626.484 392.546L628.333 389.348H632.031ZM452.839 243.353L455.141 247.342L452.839 251.327H448.234L445.932 247.342L448.234 243.353H452.839ZM487.349 266.551L488.229 268.082L487.349 269.618H485.583L484.698 268.082L485.583 266.551H487.349ZM507.87 251.749L511.313 257.712L507.87 263.676H500.99L497.547 257.712L500.99 251.749H507.87ZM504.979 277.504L505.531 278.457L504.979 279.41H503.88L503.333 278.457L503.88 277.504H504.979ZM473.641 228.066L478.781 236.967L473.641 245.868H463.365L458.224 236.967L463.365 228.066H473.641ZM490.604 240.171L494.745 247.342L490.604 254.509H482.323L478.188 247.342L482.323 240.171H490.604ZM469.974 255.165L471.443 257.712L469.974 260.259H467.031L465.557 257.712L467.031 255.165H469.974ZM527.927 237.754L533.464 247.342L527.927 256.926H516.859L511.328 247.342L516.859 237.754H527.927ZM543.396 273.197L546.432 278.457L543.396 283.712H537.323L534.286 278.457L537.323 273.197H543.396ZM540.688 298.629L541.021 299.202L540.688 299.77H540.031L539.698 299.202L540.031 298.629H540.688ZM525.432 262.827L528.464 268.082L525.432 273.342H519.359L516.323 268.082L519.359 262.827H525.432ZM545.922 248.082L551.479 257.712L545.922 267.348H534.797L529.234 257.712L534.797 248.082H545.922ZM509.88 227.525L515.333 236.967L509.88 246.415H498.974L493.526 236.967L498.974 227.525H509.88ZM645.969 112.504L647.057 110.618H648.974V114.395H647.057L645.969 112.504ZM522.734 288.238L523.078 288.827L522.734 289.421H522.052L521.714 288.827L522.052 288.238H522.734ZM627.448 210.592L624.708 205.853L627.448 201.113H632.917L635.656 205.853L632.917 210.592H627.448ZM611.182 72.8112L610.146 71.0195L611.182 69.2279H613.25L614.286 71.0195L613.25 72.8112H611.182ZM628.714 125.421L627.245 122.879L628.714 120.337H631.651L633.12 122.879L631.651 125.421H628.714ZM627.12 231.9L624.057 226.598L627.12 221.296H633.24L636.307 226.598L633.24 231.9H627.12ZM628.417 146.686L626.646 143.624L628.417 140.561H631.948L633.719 143.624L631.948 146.686H628.417ZM628.125 167.931L626.068 164.363L628.125 160.801H632.24L634.297 164.363L632.24 167.931H628.125ZM611.891 9.35807L611.557 8.79036L611.891 8.21745H612.547L612.875 8.79036L612.547 9.35807H611.891ZM611.443 51.6185L610.667 50.2747L611.443 48.931H612.99L613.766 50.2747L612.99 51.6185H611.443ZM628.979 104.217L627.781 102.134L628.979 100.056H631.385L632.583 102.134L631.385 104.217H628.979ZM626.771 253.254L623.349 247.342L626.771 241.426H633.594L637.01 247.342L633.594 253.254H626.771ZM626.365 274.691L622.557 268.082L626.365 261.478H633.995L637.807 268.082L633.995 274.691H626.365ZM625.969 296.124L621.755 288.827L625.969 281.53H634.396L638.604 288.827L634.396 296.124H625.969ZM646.448 91.7643L647.297 90.2956H648.974V93.2331H647.297L646.448 91.7643ZM611.667 30.4831L611.12 29.5299L611.667 28.582H612.766L613.318 29.5299L612.766 30.4831H611.667ZM629.229 83.0404L628.276 81.3893L629.229 79.7383H631.135L632.089 81.3893L631.135 83.0404H629.229ZM642.51 236.967L645.328 232.092H648.974V241.848H645.328L642.51 236.967ZM643.161 216.223L645.651 211.91H648.974V220.54H645.651L643.161 216.223ZM644.339 174.738L646.245 171.441H648.974V178.035H646.245L644.339 174.738ZM645.474 133.254L646.813 130.936H648.974V135.566H646.813L645.474 133.254ZM644.938 153.993L646.542 151.217H648.974V156.775H646.542L644.938 153.993ZM643.76 195.483L645.953 191.681H648.974V199.28H645.953L643.76 195.483ZM629.901 19.6393L629.625 19.1602L629.901 18.681H630.458L630.74 19.1602L630.458 19.6393H629.901ZM629.688 40.7643L629.193 39.9049L629.688 39.0456H630.677L631.172 39.9049L630.677 40.7643H629.688ZM629.474 61.8789L628.76 60.6497L629.474 59.4206H630.891L631.599 60.6497L630.891 61.8789H629.474ZM641.266 278.457L644.703 272.493H648.974V284.421H644.703L641.266 278.457ZM641.875 257.712L645.01 252.285H648.974V263.145H645.01L641.875 257.712ZM640.573 299.202L644.359 292.639H648.974V305.759H644.359L640.573 299.202ZM639.922 319.947L644.031 312.822H648.974V327.066H644.031L639.922 319.947ZM627.797 189.238L625.417 185.108L627.797 180.983H632.563L634.948 185.108L632.563 189.238H627.797ZM145.823 215.046L146.5 216.223L145.823 217.405H144.458L143.776 216.223L144.458 215.046H145.823ZM148.87 189.02L152.604 195.483L148.87 201.947H141.406L137.672 195.483L141.406 189.02H148.87ZM166.156 200.566L169.208 205.853L166.156 211.145H160.052L156.995 205.853L160.052 200.566H166.156ZM110.354 193.499L111.495 195.483L110.354 197.462H108.068L106.922 195.483L108.068 193.499H110.354ZM128.156 204.15L129.141 205.853L128.156 207.556H126.193L125.208 205.853L126.193 204.15H128.156ZM131.396 177.796L135.615 185.108L131.396 192.421H122.953L118.734 185.108L122.953 177.796H131.396ZM168.641 175.525L174.172 185.108L168.641 194.697H157.573L152.036 185.108L157.573 175.525H168.641ZM200.526 224.009L202.026 226.598L200.526 229.191H197.536L196.042 226.598L197.536 224.009H200.526ZM444.922 216.874H456.151L461.766 226.598L456.151 236.322H444.922L439.307 226.598L444.922 216.874ZM183.427 212.145L185.781 216.223L183.427 220.306H178.714L176.354 216.223L178.714 212.145H183.427ZM163.443 226.009L163.786 226.598L163.443 227.186H162.76L162.422 226.598L162.76 226.009H163.443ZM113.651 167.046L118.094 174.738L113.651 182.431H104.771L100.328 174.738L104.771 167.046H113.651ZM186.682 185.754L192.302 195.483L186.682 205.207H175.453L169.839 195.483L175.453 185.754H186.682ZM8.39583 50.2747L4.91146 56.3164H0.59375V44.2331H4.91146L8.39583 50.2747ZM92.3333 183.223L93.4271 185.108L92.3333 186.999H90.1563L89.0677 185.108L90.1563 183.223H92.3333ZM41.8073 104.785L46.2656 112.504L41.8073 120.228H32.8958L28.4375 112.504L32.8958 104.785H41.8073ZM19.7813 122.197L20.1771 122.879L19.7813 123.561H18.9948L18.599 122.879L18.9948 122.197H19.7813ZM11.8542 29.5299L6.64063 38.5664H0.59375V20.4987H6.64063L11.8542 29.5299ZM220.807 209.618L224.625 216.223L220.807 222.832H213.182L209.37 216.223L213.182 209.618H220.807ZM21.6094 98.2904L23.8281 102.134L21.6094 105.983H17.1667L14.9427 102.134L17.1667 98.2904H21.6094ZM24.1667 73.1081L28.9531 81.3893L24.1667 89.6758H14.6042L9.82292 81.3893L14.6042 73.1081H24.1667ZM74.125 173.275L74.9688 174.738L74.125 176.202H72.4375L71.5938 174.738L72.4375 173.275H74.125ZM95.4688 157.051L99.6927 164.363L95.4688 171.681H87.0208L82.7969 164.363L87.0208 157.051H95.4688ZM76.9323 147.671L80.5833 153.993L76.9323 160.316H69.6302L65.9792 153.993L69.6302 147.671H76.9323ZM60.9323 113.155L66.5469 122.879L60.9323 132.603H49.7031L44.0833 122.879L49.7031 113.155H60.9323ZM58.0833 138.837L60.8438 143.624L58.0833 148.41H52.5521L49.7917 143.624L52.5521 138.837H58.0833ZM38.9844 130.426L40.6146 133.254L38.9844 136.077H35.7188L34.0885 133.254L35.7188 130.426H38.9844ZM55.7344 163.634L56.1615 164.363L55.7344 165.098H54.8958L54.474 164.363L54.8958 163.634H55.7344ZM204.089 197.103L209.141 205.853L204.089 214.608H193.979L188.922 205.853L193.979 197.103H204.089ZM346.411 220.259L350.068 226.598L346.411 232.931H339.094L335.432 226.598L339.094 220.259H346.411ZM379.521 245.879L380.37 247.342L379.521 248.806H377.833L376.99 247.342L377.833 245.879H379.521ZM399.151 232.629L401.661 236.967L399.151 241.311H394.135L391.625 236.967L394.135 232.629H399.151ZM343.391 246.233L344.026 247.342L343.391 248.447H342.109L341.469 247.342L342.109 246.233H343.391ZM355.073 206.452H366.354L372 216.223L366.354 225.999H355.073L349.427 216.223L355.073 206.452ZM362.755 233.431L364.797 236.967L362.755 240.509H358.672L356.63 236.967L358.672 233.431H362.755ZM382.708 219.613L386.74 226.598L382.708 233.577H374.646L370.615 226.598L374.646 219.613H382.708ZM433.063 256.863L433.557 257.712L433.063 258.566H432.078L431.589 257.712L432.078 256.863H433.063ZM435.99 231.051L439.406 236.967L435.99 242.889H429.151L425.734 236.967L429.151 231.051H435.99ZM396.672 257.66L396.703 257.712L396.672 257.764H396.615L396.583 257.712L396.615 257.66H396.672ZM415.938 245.03L417.276 247.342L415.938 249.65H413.276L411.943 247.342L413.276 245.03H415.938ZM391.052 206.546H402.234L407.818 216.223L402.234 225.905H391.052L385.469 216.223L391.052 206.546ZM419.5 218.129L424.391 226.598L419.5 235.066H409.714L404.828 226.598L409.714 218.129H419.5ZM234.995 247.285L235.021 247.342L234.995 247.395H234.932L234.901 247.342L234.932 247.285H234.995ZM254.286 234.613L255.646 236.967L254.286 239.327H251.563L250.203 236.967L251.563 234.613H254.286ZM326.688 233.671L328.589 236.967L326.688 240.27H322.88L320.979 236.967L322.88 233.671H326.688ZM217.703 235.738L218.411 236.967L217.703 238.197H216.286L215.578 236.967L216.286 235.738H217.703ZM237.479 222.233L240 226.598L237.479 230.962H232.443L229.922 226.598L232.443 222.233H237.479ZM274.115 221.009L277.344 226.598L274.115 232.181H267.667L264.443 226.598L267.667 221.009H274.115ZM229.375 196.171H240.552L246.135 205.853L240.552 215.535H229.375L223.786 205.853L229.375 196.171ZM257.844 207.707L262.76 216.223L257.844 224.743H248.01L243.089 216.223L248.01 207.707H257.844ZM307.417 246.301L308.021 247.342L307.417 248.379H306.219L305.62 247.342L306.219 246.301H307.417ZM413.005 21.9362L411.396 19.1602L413.005 16.3841H416.214L417.818 19.1602L416.214 21.9362H413.005ZM319.167 206.499H330.401L336.016 216.223L330.401 225.952H319.167L313.557 216.223L319.167 206.499ZM271.281 246.671L271.661 247.342L271.281 248.009H270.505L270.12 247.342L270.505 246.671H271.281ZM265.354 215.436L259.823 205.853L265.354 196.27H276.422L281.958 205.853L276.422 215.436H265.354ZM294.37 206.671L299.885 216.223L294.37 225.78H283.339L277.823 216.223L283.339 206.671H294.37ZM290.625 233.91L292.391 236.967L290.625 240.03H287.089L285.318 236.967L287.089 233.91H290.625ZM310.391 220.415L313.958 226.598L310.391 232.78H303.25L299.682 226.598L303.25 220.415H310.391ZM485.167 21.4102L483.87 19.1602L485.167 16.9102H487.76L489.063 19.1602L487.76 21.4102H485.167ZM484.859 42.6862L483.255 39.9049L484.859 37.1237H488.068L489.677 39.9049L488.068 42.6862H484.859ZM484.516 64.0247L482.568 60.6497L484.516 57.2695H488.411L490.365 60.6497L488.411 64.0247H484.516ZM499.974 203.202L495.516 195.483L499.974 187.764H508.885L513.344 195.483L508.885 203.202H499.974ZM501.339 138.603L498.245 133.254L501.339 127.895H507.521L510.615 133.254L507.521 138.603H501.339ZM500.427 181.676L496.422 174.738L500.427 167.801H508.438L512.438 174.738L508.438 181.676H500.427ZM500.891 160.129L497.349 153.993L500.891 147.858H507.974L511.516 153.993L507.974 160.129H500.891ZM482.083 192.702L477.698 185.108L482.083 177.52H490.849L495.229 185.108L490.849 192.702H482.083ZM484.156 85.3945L481.844 81.3893L484.156 77.3893H488.776L491.083 81.3893L488.776 85.3945H484.156ZM482.568 171.118L478.672 164.363L482.568 157.613H490.365L494.266 164.363L490.365 171.118H482.568ZM483.005 149.618L479.547 143.624L483.005 137.629H489.927L493.385 143.624L489.927 149.618H483.005ZM483.797 106.754L481.135 102.134L483.797 97.5143H489.13L491.797 102.134L489.13 106.754H483.797ZM483.432 128.134L480.396 122.879L483.432 117.624H489.5L492.536 122.879L489.5 128.134H483.432ZM518.813 170.566L515.234 164.363L518.813 158.165H525.974L529.557 164.363L525.974 170.566H518.813ZM466.953 32.2174L465.401 29.5299L466.953 26.8477H470.052L471.599 29.5299L470.052 32.2174H466.953ZM519.25 149.066L516.109 143.624L519.25 138.176H525.536L528.682 143.624L525.536 149.066H519.25ZM518.359 192.098L514.323 185.108L518.359 178.124H526.427L530.464 185.108L526.427 192.098H518.359ZM519.63 127.665L516.87 122.879L519.63 118.092H525.156L527.922 122.879L525.156 127.665H519.63ZM520.354 84.9258L518.318 81.3893L520.354 77.8581H524.432L526.474 81.3893L524.432 84.9258H520.354ZM520 106.28L517.604 102.134L520 97.9883H524.792L527.182 102.134L524.792 106.28H520ZM502.781 53.1341L501.13 50.2747L502.781 47.4154H506.078L507.729 50.2747L506.078 53.1341H502.781ZM502.073 95.8425L499.719 91.7643L502.073 87.681H506.786L509.146 91.7643L506.786 95.8425H502.073ZM502.443 74.457L500.458 71.0195L502.443 67.582H506.417L508.396 71.0195L506.417 74.457H502.443ZM503.365 10.6341L502.297 8.79036L503.365 6.94141H505.495L506.557 8.79036L505.495 10.6341H503.365ZM501.719 117.202L499.005 112.504L501.719 107.811H507.141L509.854 112.504L507.141 117.202H501.719ZM503.094 31.8477L501.755 29.5299L503.094 27.2174H505.766L507.104 29.5299L505.766 31.8477H503.094ZM517.885 213.665L513.375 205.853L517.885 198.04H526.906L531.417 205.853L526.906 213.665H517.885ZM473.245 187.259L477.995 195.483L473.245 203.702H463.755L459.005 195.483L463.755 187.259H473.245ZM430.531 53.806L428.495 50.2747L430.531 46.7435H434.609L436.646 50.2747L434.609 53.806H430.531ZM431.182 11.1914L429.797 8.79036L431.182 6.38411H433.958L435.344 8.79036L433.958 11.1914H431.182ZM430.865 32.4883L429.161 29.5299L430.865 26.5768H434.276L435.979 29.5299L434.276 32.4883H430.865ZM446.37 171.582L442.203 164.363L446.37 157.15H454.703L458.87 164.363L454.703 171.582H446.37ZM430.177 75.1654L427.781 71.0195L430.177 66.8737H434.964L437.359 71.0195L434.964 75.1654H430.177ZM445.906 193.129L441.271 185.108L445.906 177.087H455.167L459.797 185.108L455.167 193.129H445.906ZM429.807 96.5508L427.042 91.7643L429.807 86.9779H435.339L438.099 91.7643L435.339 96.5508H429.807ZM428.078 182.525L423.583 174.738L428.078 166.952H437.068L441.563 174.738L437.068 182.525H428.078ZM412.672 43.2539L410.74 39.9049L412.672 36.556H416.542L418.474 39.9049L416.542 43.2539H412.672ZM428.969 139.493L425.359 133.254L428.969 127.009H436.177L439.781 133.254L436.177 139.493H428.969ZM429.411 117.978L426.255 112.504L429.411 107.035H435.729L438.891 112.504L435.729 117.978H429.411ZM446.818 150.056L443.104 143.624L446.818 137.186H454.255L457.969 143.624L454.255 150.056H446.818ZM428.536 160.983L424.505 153.993L428.536 147.009H436.604L440.641 153.993L436.604 160.983H428.536ZM465.547 117.624L462.594 112.504L465.547 107.389H471.453L474.406 112.504L471.453 117.624H465.547ZM447.281 128.514L444.026 122.879L447.281 117.243H453.792L457.047 122.879L453.792 128.514H447.281ZM464.688 160.598L460.875 153.993L464.688 147.389H472.318L476.13 153.993L472.318 160.598H464.688ZM467.271 10.9154L466.047 8.79036L467.271 6.66016H469.729L470.958 8.79036L469.729 10.9154H467.271ZM466.625 53.5247L464.75 50.2747L466.625 47.0247H470.375L472.25 50.2747L470.375 53.5247H466.625ZM465.917 96.2383L463.333 91.7643L465.917 87.2852H471.083L473.672 91.7643L471.083 96.2383H465.917ZM466.271 74.8841L464.036 71.0195L466.271 67.1549H470.734L472.964 71.0195L470.734 74.8841H466.271ZM465.141 139.072L461.781 133.254L465.141 127.431H471.859L475.224 133.254L471.859 139.072H465.141ZM448.396 64.3529L446.26 60.6497L448.396 56.9414H452.677L454.813 60.6497L452.677 64.3529H448.396ZM448.026 85.7331L445.521 81.3893L448.026 77.0456H453.042L455.552 81.3893L453.042 85.7331H448.026ZM447.667 107.108L444.792 102.134L447.667 97.1602H453.406L456.281 102.134L453.406 107.108H447.667ZM464.208 182.176L459.911 174.738L464.208 167.301H472.797L477.089 174.738L472.797 182.176H464.208ZM520.708 63.5664L519.021 60.6497L520.708 57.7279H524.083L525.766 60.6497L524.083 63.5664H520.708ZM448.724 43.0456L446.911 39.9049L448.724 36.7643H452.354L454.161 39.9049L452.354 43.0456H448.724ZM449.068 21.707L447.599 19.1602L449.068 16.6133H452.005L453.474 19.1602L452.005 21.707H449.068ZM592.62 104.962L590.99 102.134L592.62 99.306H595.885L597.516 102.134L595.885 104.962H592.62ZM573.922 137.348L571.557 133.254L573.922 129.155H578.651L581.016 133.254L578.651 137.348H573.922ZM590.844 211.754L587.443 205.853L590.844 199.957H597.661L601.068 205.853L597.661 211.754H590.844ZM591.224 190.353L588.198 185.108L591.224 179.863H597.281L600.307 185.108L597.281 190.353H591.224ZM591.953 147.608L589.646 143.624L591.953 139.634H596.557L598.854 143.624L596.557 147.608H591.953ZM591.599 168.962L588.943 164.363L591.599 159.77H596.906L599.563 164.363L596.906 168.962H591.599ZM589.958 254.78L585.667 247.342L589.958 239.905H598.547L602.839 247.342L598.547 254.78H589.958ZM575.443 30.9987L574.594 29.5299L575.443 28.0664H577.135L577.984 29.5299L577.135 30.9987H575.443ZM592.297 126.27L590.339 122.879L592.297 119.488H596.214L598.167 122.879L596.214 126.27H592.297ZM521.302 21.0508L520.214 19.1602L521.302 17.2695H523.49L524.578 19.1602L523.49 21.0508H521.302ZM574.604 94.681L572.917 91.7643L574.604 88.8425H577.974L579.661 91.7643L577.974 94.681H574.604ZM575.688 9.82682L575.089 8.79036L575.688 7.7487H576.891L577.49 8.79036L576.891 9.82682H575.688ZM575.198 52.1654L574.104 50.2747L575.198 48.3841H577.38L578.474 50.2747L577.38 52.1654H575.198ZM574.901 73.4258L573.51 71.0195L574.901 68.6185H577.677L579.063 71.0195L577.677 73.4258H574.901ZM590.411 233.249L586.573 226.598L590.411 219.947H598.094L601.932 226.598L598.094 233.249H590.411ZM609.318 200.504L606.422 195.483L609.318 190.462H615.115L618.016 195.483L615.115 200.504H609.318ZM609.672 179.15L607.125 174.738L609.672 170.327H614.766L617.307 174.738L614.766 179.15H609.672ZM610.938 93.9779L609.656 91.7643L610.938 89.5508H613.495L614.776 91.7643L613.495 93.9779H610.938ZM610.021 157.796L607.828 153.993L610.021 150.197H614.411L616.604 153.993L614.411 157.796H610.021ZM610.661 115.197L609.109 112.504L610.661 109.816H613.771L615.328 112.504L613.771 115.197H610.661ZM608.969 221.858L605.714 216.223L608.969 210.592H615.469L618.724 216.223L615.469 221.858H608.969ZM610.344 136.499L608.464 133.254L610.344 130.004H614.094L615.969 133.254L614.094 136.499H610.344ZM593.667 20.1758L593.083 19.1602L593.667 18.1445H594.839L595.422 19.1602L594.839 20.1758H593.667ZM593.188 62.4883L592.125 60.6497L593.188 58.8008H595.318L596.385 60.6497L595.318 62.4883H593.188ZM592.917 83.707L591.578 81.3893L592.917 79.0768H595.589L596.927 81.3893L595.589 83.707H592.917ZM608.531 243.353L604.844 236.967L608.531 230.587H615.901L619.589 236.967L615.901 243.353H608.531ZM608.135 264.79L604.047 257.712L608.135 250.639H616.302L620.385 257.712L616.302 264.79H608.135ZM607.698 286.285L603.177 278.457L607.698 270.629H616.734L621.255 278.457L616.734 286.285H607.698ZM593.432 41.3268L592.615 39.9049L593.432 38.4831H595.073L595.896 39.9049L595.073 41.3268H593.432ZM574.276 115.988L572.266 112.504L574.276 109.025H578.297L580.313 112.504L578.297 115.988H574.276ZM537.964 116.655L535.573 112.504L537.964 108.358H542.755L545.146 112.504L542.755 116.655H537.964ZM538.318 95.2956L536.281 91.7643L538.318 88.2331H542.401L544.438 91.7643L542.401 95.2956H538.318ZM538.646 73.9883L536.932 71.0195L538.646 68.0508H542.073L543.786 71.0195L542.073 73.9883H538.646ZM539.245 31.4674L538.13 29.5299L539.245 27.5977H541.474L542.589 29.5299L541.474 31.4674H539.245ZM538.953 52.7122L537.547 50.2747L538.953 47.8372H541.766L543.172 50.2747L541.766 52.7122H538.953ZM539.49 10.3008L538.615 8.79036L539.49 7.27995H541.229L542.104 8.79036L541.229 10.3008H539.49ZM537.594 138.04L534.833 133.254L537.594 128.462H543.125L545.885 133.254L543.125 138.04H537.594ZM521.01 42.306L519.62 39.9049L521.01 37.4987H523.781L525.172 39.9049L523.781 42.306H521.01ZM535.849 224.035L531.339 216.223L535.849 208.41H544.87L549.38 216.223L544.87 224.035H535.849ZM553.844 234.363L549.354 226.598L553.844 218.827H562.807L567.292 226.598L562.807 234.363H553.844ZM537.198 159.473L534.031 153.993L537.198 148.514H543.521L546.682 153.993L543.521 159.473H537.198ZM536.302 202.514L532.245 195.483L536.302 188.457H544.417L548.474 195.483L544.417 202.514H536.302ZM536.755 180.983L533.151 174.738L536.755 168.493H543.964L547.568 174.738L543.964 180.983H536.755ZM556.917 63.082L555.51 60.6497L556.917 58.2122H559.729L561.141 60.6497L559.729 63.082H556.917ZM571.88 244.608L567.469 236.967L571.88 229.332H580.698L585.109 236.967L580.698 244.608H571.88ZM557.203 41.8424L556.083 39.9049L557.203 37.9674H559.443L560.563 39.9049L559.443 41.8424H557.203ZM572.766 201.582L569.24 195.483L572.766 189.379H579.813L583.333 195.483L579.813 201.582H572.766ZM554.292 212.832L550.26 205.853L554.292 198.874H562.354L566.385 205.853L562.354 212.832H554.292ZM557.453 20.6706L556.578 19.1602L557.453 17.6497H559.193L560.068 19.1602L559.193 20.6706H557.453ZM572.339 223.066L568.391 216.223L572.339 209.389H580.24L584.188 216.223L580.24 223.066H572.339ZM573.193 180.098L570.104 174.738L573.193 169.379H579.38L582.474 174.738L579.38 180.098H573.193ZM555.182 169.811L552.036 164.363L555.182 158.921H561.469L564.609 164.363L561.469 169.811H555.182ZM554.745 191.311L551.161 185.108L554.745 178.91H561.906L565.484 185.108L561.906 191.311H554.745ZM555.557 148.41L552.797 143.624L555.557 138.837H561.089L563.849 143.624L561.089 148.41H555.557ZM573.557 158.723L570.833 153.993L573.557 149.27H579.016L581.745 153.993L579.016 158.723H573.557ZM555.927 127.03L553.536 122.879L555.927 118.728H560.719L563.109 122.879L560.719 127.03H555.927ZM556.609 84.3581L554.896 81.3893L556.609 78.4258H560.036L561.75 81.3893L560.036 84.3581H556.609ZM560.365 105.665L562.401 102.134L560.365 98.6029H556.281L554.245 102.134L556.281 105.665H560.365Z" fill="#2E2D2D"/>
</g>
</g>
</svg>
