<svg width="389" height="1203" viewBox="0 0 389 1203" fill="none" xmlns="http://www.w3.org/2000/svg">
<mask id="mask0_539_2428" style="mask-type:luminance" maskUnits="userSpaceOnUse" x="0" y="599" width="389" height="604">
<path d="M0 1203V599H389V1203H0Z" fill="white"/>
</mask>
<g mask="url(#mask0_539_2428)">
<mask id="mask1_539_2428" style="mask-type:luminance" maskUnits="userSpaceOnUse" x="0" y="599" width="389" height="604">
<path d="M0.0820312 599.945V1203H388.904V599.945H0.0820312Z" fill="white"/>
</mask>
<g mask="url(#mask1_539_2428)">
<path d="M10.2404 840.823L7.90949 839.385L5.57392 840.823V843.698L7.90949 845.141L10.2404 843.698V840.823ZM48.7258 840.121L45.2646 837.987L41.8035 840.121V844.394L45.2646 846.528L48.7258 844.394V840.121ZM19.7797 823.42L17.2471 821.858L14.7146 823.42V826.546L17.2471 828.104L19.7797 826.546V823.42ZM135.691 855.61L129.322 851.678L122.948 855.61V863.465L129.322 867.397L135.691 863.465V855.61ZM68.0013 839.761L63.9446 837.256L59.8878 839.761V844.76L63.9446 847.265L68.0013 844.76V839.761ZM155.051 855.189L147.997 850.846L140.953 855.189V863.885L147.997 868.228L155.051 863.885V855.189ZM149.868 846.869L157.339 851.477L164.81 846.869V837.652L157.339 833.048L149.868 837.652V846.869ZM39.0646 823.045L35.927 821.111L32.7895 823.045V826.917L35.927 828.85L39.0646 826.917V823.045ZM87.2722 839.395L82.6245 836.525L77.9768 839.395V845.126L82.6245 847.996L87.2722 845.126V839.395ZM116.312 856.041L110.642 852.544L104.972 856.041V863.034L110.642 866.53L116.312 863.034V856.041ZM29.5441 874.991L26.5847 873.173L23.6301 874.991V878.638L26.5847 880.461L29.5441 878.638V874.991ZM145.441 838.078L138.66 833.895L131.878 838.078V846.443L138.66 850.626L145.441 846.443V838.078ZM125.987 838.553L119.984 834.852L113.972 838.553V845.962L119.984 849.669L125.987 845.962V838.553ZM29.5018 840.462L26.5847 838.664L23.6723 840.462V844.054L26.5847 845.852L29.5018 844.054V840.462ZM125.931 873.148L119.984 869.471L114.028 873.148V880.486L119.984 884.158L125.931 880.486V873.148ZM106.548 873.578L101.3 870.347L96.0564 873.578V880.05L101.3 883.286L106.548 880.05V873.578ZM96.9522 856.462L91.9621 853.386L86.9767 856.462V862.613L91.9621 865.689L96.9522 862.613V856.462ZM126.381 769.2L119.984 765.253L113.578 769.2V777.095L119.984 781.042L126.381 777.095V769.2ZM68.0013 874.315L63.9446 871.81L59.8878 874.315V879.314L63.9446 881.819L68.0013 879.314V874.315ZM48.7727 874.655L45.2646 872.491L41.7613 874.655V878.978L45.2646 881.137L48.7727 878.978V874.655ZM87.2534 873.959L82.6245 871.104L77.9908 873.959V879.67L82.6245 882.525L87.2534 879.67V873.959ZM77.6391 856.852L73.2822 854.167L68.9299 856.852V862.222L73.2822 864.902L77.6391 862.222V856.852ZM145.357 872.687L138.66 868.554L131.962 872.687V880.947L138.66 885.075L145.357 880.947V872.687ZM58.3636 857.218L54.6069 854.904L50.8456 857.218V861.857L54.6069 864.176L58.3636 861.857V857.218ZM149.962 881.363L157.339 885.911L164.712 881.363V872.271L157.339 867.723L149.962 872.271V881.363ZM39.1349 857.559L35.927 855.58L32.7144 857.559V861.516L35.927 863.495L39.1349 861.516V857.559ZM19.8828 857.914L17.2471 856.286L14.6114 857.914V861.165L17.2471 862.783L19.8828 861.165V857.914ZM106.618 838.984L101.3 835.708L95.986 838.984V845.536L101.3 848.812L106.618 845.536V838.984ZM140.62 794.978L147.997 799.526L155.379 794.978V785.876L147.997 781.327L140.62 785.876V794.978ZM135.977 786.322L129.322 782.219L122.667 786.322V794.532L129.322 798.629L135.977 794.532V786.322ZM19.4983 789.037L17.2471 787.654L14.9959 789.037V791.812L17.2471 793.199L19.4983 791.812V789.037ZM58.326 788.135L54.6069 785.841L50.8878 788.135V792.718L54.6069 795.013L58.326 792.718V788.135ZM58.3636 822.664L54.6069 820.345L50.8456 822.664V827.303L54.6069 829.622L58.3636 827.303V822.664ZM77.6813 787.714L73.2822 784.999L68.8877 787.714V793.139L73.2822 795.849L77.6813 793.139V787.714ZM116.523 786.797L110.642 783.171L104.761 786.797V794.051L110.642 797.678L116.523 794.051V786.797ZM87.4457 770.177L82.6245 767.201L77.8032 770.177V776.123L82.6245 779.098L87.4457 776.123V770.177ZM106.923 769.681L101.3 766.214L95.6812 769.681V776.614L101.3 780.08L106.923 776.614V769.681ZM29.0047 771.659L26.5847 770.167L24.1694 771.659V774.64L26.5847 776.133L29.0047 774.64V771.659ZM68.0435 770.617L63.9446 768.093L59.8456 770.617V775.672L63.9446 778.202L68.0435 775.672V770.617ZM9.07259 772.431L7.90949 771.71L6.74171 772.431V773.869L7.90949 774.585L9.07259 773.869V772.431ZM48.5616 771.113L45.2646 769.085L41.9723 771.113V775.181L45.2646 777.21L48.5616 775.181V771.113ZM97.0788 787.273L91.9621 784.118L86.8454 787.273V793.58L91.9621 796.736L97.0788 793.58V787.273ZM29.3471 806.003L26.5847 804.305L23.8271 806.003V809.404L26.5847 811.103L29.3471 809.404V806.003ZM135.794 820.991L129.322 816.998L122.845 820.991V828.976L129.322 832.963L135.794 828.976V820.991ZM155.191 820.545L147.997 816.112L140.808 820.545V829.417L147.997 833.85L155.191 829.417V820.545ZM116.392 821.437L110.642 817.89L104.892 821.437V828.525L110.642 832.071L116.392 828.525V821.437ZM77.6625 822.283L73.2822 819.578L68.9018 822.283V827.683L73.2822 830.388L77.6625 827.683V822.283ZM96.9944 821.878L91.9621 818.777L86.9345 821.878V828.084L91.9621 831.185L96.9944 828.084V821.878ZM87.3566 804.786L82.6245 801.865L77.8877 804.786V810.622L82.6245 813.542L87.3566 810.622V804.786ZM126.137 803.904L119.984 800.107L113.822 803.904V811.503L119.984 815.3L126.137 811.503V803.904ZM106.712 804.37L101.3 801.029L95.8922 804.37V811.037L101.3 814.379L106.712 811.037V804.37ZM9.98712 806.424L7.90949 805.137L5.82717 806.424V808.984L7.90949 810.271L9.98712 808.984V806.424ZM145.568 803.443L138.66 799.185L131.751 803.443V811.964L138.66 816.222L145.568 811.964V803.443ZM38.9379 788.571L35.927 786.712L32.9161 788.571V792.283L35.927 794.136L38.9379 792.283V788.571ZM48.6883 805.592L45.2646 803.483L41.8457 805.592V809.81L45.2646 811.919L48.6883 809.81V805.592ZM68.0013 805.202L63.9446 802.702L59.8878 805.202V810.206L63.9446 812.706L68.0013 810.206V805.202ZM10.3342 875.322L7.90949 873.829L5.48481 875.322V878.312L7.90949 879.805L10.3342 878.312V875.322ZM77.5547 960.575L73.2822 957.945L69.0143 960.575V965.839L73.2822 968.469L77.5547 965.839V960.575ZM96.8255 960.204L91.9621 957.203L87.0986 960.204V966.205L91.9621 969.206L96.8255 966.205V960.204ZM39.0693 961.266L35.927 959.327L32.7848 961.266V965.143L35.927 967.082L39.0693 965.143V961.266ZM116.181 959.788L110.642 956.377L105.103 959.788V966.621L110.642 970.037L116.181 966.621V959.788ZM19.8781 961.587L17.2471 959.964L14.6161 961.587V964.828L17.2471 966.446L19.8781 964.828V961.587ZM58.326 960.91L54.6069 958.621L50.8878 960.91V965.499L54.6069 967.793L58.326 965.499V960.91ZM29.5441 944.104L26.5847 942.281L23.6301 944.104V947.751L26.5847 949.574L29.5441 947.751V944.104ZM48.7258 943.794L45.2646 941.655L41.8035 943.794V948.067L45.2646 950.2L48.7258 948.067V943.794ZM155.009 889.768L147.997 885.45L140.986 889.768V898.414L147.997 902.742L155.009 898.414V889.768ZM87.23 943.087L82.6245 940.247L78.019 943.087V948.768L82.6245 951.608L87.23 948.768V943.087ZM154.91 958.947L147.997 954.684L141.089 958.947V967.468L147.997 971.725L154.91 967.468V958.947ZM135.564 959.357L129.322 955.505L123.08 959.357V967.057L129.322 970.904L135.564 967.057V959.357ZM164.543 976.043L157.339 971.595L150.136 976.043V984.925L157.339 989.368L164.543 984.925V976.043ZM10.3248 944.435L7.90949 942.947L5.4895 944.435V947.42L7.90949 948.913L10.3248 947.42V944.435ZM154.783 993.581L147.997 989.398L141.22 993.581V1001.94L147.997 1006.12L154.783 1001.94V993.581ZM135.353 994.042L129.322 990.32L123.286 994.042V1001.48L129.322 1005.2L135.353 1001.48V994.042ZM77.3999 995.224L73.2822 992.684L69.1691 995.224V1000.3L73.2822 1002.84L77.3999 1000.3V995.224ZM159.206 1002.37L166.677 1006.98L174.148 1002.37V993.155L166.677 988.547L159.206 993.155V1002.37ZM96.6942 994.843L91.9621 991.923L87.23 994.843V1000.68L91.9621 1003.6L96.6942 1000.68V994.843ZM115.974 994.473L110.642 991.187L105.31 994.473V1001.05L110.642 1004.34L115.974 1001.05V994.473ZM29.4549 978.713L26.5847 976.945L23.7145 978.713V982.255L26.5847 984.023L29.4549 982.255V978.713ZM87.1033 977.722L82.6245 974.956L78.1456 977.722V983.247L82.6245 986.007L87.1033 983.247V977.722ZM106.402 977.336L101.3 974.195L96.2018 977.336V983.632L101.3 986.773L106.402 983.632V977.336ZM125.804 976.895L119.984 973.303L114.159 976.895V984.073L119.984 987.665L125.804 984.073V976.895ZM48.6414 978.403L45.2646 976.319L41.8879 978.403V982.566L45.2646 984.649L48.6414 982.566V978.403ZM10.2404 979.044L7.90949 977.606L5.57392 979.044V981.924L7.90949 983.362L10.2404 981.924V979.044ZM145.16 976.474L138.66 972.472L132.164 976.474V984.489L138.66 988.497L145.16 984.489V976.474ZM67.8747 978.062L63.9446 975.638L60.0144 978.062V982.906L63.9446 985.331L67.8747 982.906V978.062ZM67.9591 943.453L63.9446 940.978L59.93 943.453V948.402L63.9446 950.877L67.9591 948.402V943.453ZM150.004 915.892L157.339 920.415L164.674 915.892V906.85L157.339 902.332L150.004 906.85V915.892ZM145.329 907.261L138.66 903.148L131.995 907.261V915.481L138.66 919.594L145.329 915.481V907.261ZM125.931 907.702L119.984 904.035L114.033 907.702V915.04L119.984 918.707L125.931 915.04V907.702ZM87.2534 908.513L82.6245 905.658L77.9908 908.513V914.229L82.6245 917.084L87.2534 914.229V908.513ZM39.149 892.108L35.927 890.119L32.7051 892.108V896.08L35.927 898.069L39.149 896.08V892.108ZM106.543 908.143L101.3 904.907L96.0611 908.143V914.604L101.3 917.835L106.543 914.604V908.143ZM58.3917 891.757L54.6069 889.428L50.8222 891.757V896.426L54.6069 898.76L58.3917 896.426V891.757ZM19.9485 892.428L17.2471 890.76L14.5457 892.428V895.76L17.2471 897.428L19.9485 895.76V892.428ZM116.265 890.625L110.642 887.154L105.014 890.625V897.563L110.642 901.034L116.265 897.563V890.625ZM135.649 890.194L129.322 886.287L122.991 890.194V897.994L129.322 901.896L135.649 897.994V890.194ZM106.506 942.717L101.3 939.511L96.0986 942.717V949.134L101.3 952.344L106.506 949.134V942.717ZM77.6391 891.406L73.2822 888.727L68.9299 891.406V896.776L73.2822 899.461L77.6391 896.776V891.406ZM96.9381 891.026L91.9621 887.955L86.9861 891.026V897.162L91.9621 900.228L96.9381 897.162V891.026ZM68.0013 908.869L63.9446 906.369L59.8878 908.869V913.873L63.9446 916.378L68.0013 913.873V908.869ZM39.149 926.662L35.927 924.673L32.7051 926.662V930.639L35.927 932.623L39.149 930.639V926.662ZM19.9485 926.982L17.2471 925.319L14.5457 926.982V930.319L17.2471 931.982L19.9485 930.319V926.982ZM150.051 950.421L157.339 954.919L164.628 950.421V941.434L157.339 936.936L150.051 941.434V950.421ZM125.889 942.286L119.984 938.644L114.075 942.286V949.569L119.984 953.211L125.889 949.569V942.286ZM145.315 941.825L138.66 937.722L132.005 941.825V950.03L138.66 954.133L145.315 950.03V941.825ZM58.3636 926.331L54.6069 924.012L50.8456 926.331V930.97L54.6069 933.284L58.3636 930.97V926.331ZM77.6391 925.966L73.2822 923.281L68.9299 925.966V931.331L73.2822 934.015L77.6391 931.331V925.966ZM154.999 924.333L147.997 920.02L141.004 924.333V932.964L147.997 937.282L154.999 932.964V924.333ZM29.5534 909.54L26.5847 907.712L23.6207 909.54V913.202L26.5847 915.03L29.5534 913.202V909.54ZM10.367 909.856L7.90949 908.338L5.44729 909.856V912.886L7.90949 914.404L10.367 912.886V909.856ZM116.265 925.184L110.642 921.718L105.019 925.184V932.117L110.642 935.583L116.265 932.117V925.184ZM96.9381 925.585L91.9621 922.514L86.9861 925.585V931.716L91.9621 934.787L96.9381 931.716V925.585ZM48.7727 909.209L45.2646 907.045L41.7613 909.209V913.533L45.2646 915.697L48.7727 913.533V909.209ZM135.625 924.763L129.322 920.876L123.019 924.763V932.538L129.322 936.425L135.625 932.538V924.763ZM0.804277 892.714L0.0820312 892.268V895.92L0.804277 895.474V892.714ZM261.615 1192.63L269.414 1197.44L277.214 1192.63V1183.01L269.414 1178.2L261.615 1183.01V1192.63ZM248.826 1165.96L241.392 1161.37L233.963 1165.96V1175.13L241.392 1179.71L248.826 1175.13V1165.96ZM196.284 1106.21L204.037 1110.99L211.794 1106.21V1096.65L204.037 1091.86L196.284 1096.65V1106.21ZM205.575 1123.52L213.375 1128.32L221.174 1123.52V1113.9L213.375 1109.09L205.575 1113.9V1123.52ZM214.941 1140.78L222.717 1145.57L230.488 1140.78V1131.19L222.717 1126.4L214.941 1131.19V1140.78ZM224.382 1158L232.054 1162.72L239.722 1158V1148.53L232.054 1143.8L224.382 1148.53V1158ZM285.965 1200.65L278.752 1196.21L271.543 1200.65V1209.54L278.752 1213.99L285.965 1209.54V1200.65ZM388.904 1217.8L381.489 1213.23L374.07 1217.8V1223.17H388.904V1217.8ZM297.432 1195.37L289.543 1200.23V1209.96L297.432 1214.83L305.32 1209.96V1200.23L297.432 1195.37ZM362.804 1211.72L354.166 1217.05V1223.17H371.453V1217.05L362.804 1211.72ZM344.129 1212.44L336.072 1217.41V1223.17H352.182V1217.41L344.129 1212.44ZM306.769 1213.8L299.819 1218.09V1223.17H313.72V1218.09L306.769 1213.8ZM325.449 1213.12L317.95 1217.75V1223.17H332.953V1217.75L325.449 1213.12ZM158.723 829.887L166.677 834.791L174.631 829.887V820.074L166.677 815.17L158.723 820.074V829.887ZM184.185 871.78L176.019 866.746L167.854 871.78V881.849L176.019 886.888L184.185 881.849V871.78ZM158.911 864.326L166.677 869.12L174.448 864.326V854.748L166.677 849.955L158.911 854.748V864.326ZM184.311 837.146L176.019 832.031L167.723 837.146V847.375L176.019 852.489L184.311 847.375V837.146ZM184.114 906.384L176.019 901.39L167.925 906.384V916.363L176.019 921.352L184.114 916.363V906.384ZM158.953 898.86L166.677 903.619L174.406 898.86V889.328L166.677 884.564L158.953 889.328V898.86ZM186.994 1088.9L194.695 1093.65L202.395 1088.9V1079.4L194.695 1074.66L186.994 1079.4V1088.9ZM193.893 888.832L185.357 883.572L176.821 888.832V899.356L185.357 904.621L193.893 899.356V888.832ZM140.245 760.654L147.997 765.433L155.754 760.654V751.086L147.997 746.302L140.245 751.086V760.654ZM177.802 1071.54L185.357 1076.19L192.912 1071.54V1062.21L185.357 1057.55L177.802 1062.21V1071.54ZM149.681 812.425L157.339 817.149L164.998 812.425V802.977L157.339 798.259L149.681 802.977V812.425ZM149.371 778.061L157.339 782.975L165.308 778.061V768.233L157.339 763.324L149.371 768.233V778.061ZM307.435 1210.45L316.112 1215.79L324.783 1210.45V1199.75L316.112 1194.4L307.435 1199.75V1210.45ZM174.889 785.365L166.677 780.305L158.47 785.365V795.489L166.677 800.548L174.889 795.489V785.365ZM167.554 812.921L176.019 818.141L184.48 812.921V802.487L176.019 797.267L167.554 802.487V812.921ZM0.593232 996.511L0.0820312 996.201V999.327L0.593232 999.011V996.511ZM0.733929 961.872L0.0820312 961.471V964.943L0.733929 964.542V961.872ZM0.733929 858.205L0.0820312 857.804V861.276L0.733929 860.87V858.205ZM0.804277 927.268L0.0820312 926.827V930.474L0.804277 930.028V927.268ZM0.424395 1031.17L0.0820312 1030.97V1033.67L0.424395 1033.46V1031.17ZM58.1947 995.55L54.6069 993.33L51.0145 995.55V999.978L54.6069 1002.19L58.1947 999.978V995.55ZM64.9247 1221.77L63.9446 1221.17L62.9644 1221.77V1222.98L63.2786 1223.17H64.6105L64.9247 1222.98V1221.77ZM63.9446 603.773L66.7069 602.07V599.57H61.1822V602.07L63.9446 603.773ZM279.502 1193.12L288.094 1198.42L296.681 1193.12V1182.52L288.094 1177.23L279.502 1182.52V1193.12ZM0.518193 823.776L0.0820312 823.506V826.456L0.518193 826.186V823.776ZM7.9986 1222.32L7.90949 1222.26L7.8157 1222.32V1222.43L7.90949 1222.49L7.9986 1222.43V1222.32ZM45.9072 1221.98L45.2646 1221.59L44.6221 1221.98V1222.77L45.2646 1223.17L45.9072 1222.77V1221.98ZM0.185209 1065.87L0.0820312 1065.81V1067.94L0.185209 1067.87V1065.87ZM82.0242 600.737L82.6245 601.108L83.2201 600.737V600.001L82.6245 599.63L82.0242 600.001V600.737ZM16.0512 599.57H0.0820312V605.581L7.90949 610.405L16.0512 605.386V599.57ZM156.345 716.167L147.997 711.017L139.649 716.167V726.461L147.997 731.61L156.345 726.461V716.167ZM193.86 923.406L185.357 918.161L176.854 923.406V933.895L185.357 939.14L193.86 933.895V923.406ZM186.15 1020.31L194.695 1025.58L203.244 1020.31V1009.77L194.695 1004.5L186.15 1009.77V1020.31ZM268.322 1165.45L260.072 1160.37L251.822 1165.45V1175.63L260.072 1180.72L268.322 1175.63V1165.45ZM145.826 768.729L138.66 764.316L131.498 768.729V777.565L138.66 781.979L145.826 777.565V768.729ZM165.772 733.393L157.339 728.189L148.907 733.393V743.793L157.339 748.992L165.772 743.793V733.393ZM43.1307 613.201L35.927 608.757L28.7233 613.201V622.087L35.927 626.535L43.1307 622.087V613.201ZM46.3011 622.768L54.6069 627.888L62.9128 622.768V612.524L54.6069 607.405L46.3011 612.524V622.768ZM22.6593 614.308L17.2471 610.971L11.8349 614.308V620.98L17.2471 624.316L22.6593 620.98V614.308ZM137.698 681.592L129.322 676.423L120.946 681.592V691.922L129.322 697.086L137.698 691.922V681.592ZM147.008 698.889L138.66 693.74L130.311 698.889V709.184L138.66 714.328L147.008 709.184V698.889ZM74.2483 640.09L82.6245 645.255L91.0007 640.09V629.756L82.6245 624.592L74.2483 629.756V640.09ZM111.477 674.725L119.984 679.969L128.482 674.725V664.235L119.984 658.99L111.477 664.235V674.725ZM242.274 1158.48L250.734 1163.7L259.195 1158.48V1148.05L250.734 1142.83L242.274 1148.05V1158.48ZM117.274 717.223L110.642 713.136L104.015 717.223V725.404L110.642 729.491L117.274 725.404V717.223ZM28.2918 702.987L26.5847 701.935L24.8823 702.987V705.086L26.5847 706.138L28.2918 705.086V702.987ZM48.6414 701.95L45.2646 699.871L41.8879 701.95V706.118L45.2646 708.202L48.6414 706.118V701.95ZM17.8521 720.94L17.2471 720.57L16.6421 720.94V721.687L17.2471 722.057L17.8521 721.687V720.94ZM58.4105 718.972L54.6069 716.622L50.8034 718.972V723.655L54.6069 726.005L58.4105 723.655V718.972ZM78.1081 718.341L73.2822 715.365L68.4609 718.341V724.287L73.2822 727.262L78.1081 724.287V718.341ZM97.7401 717.749L91.9621 714.188L86.1841 717.749V724.878L91.9621 728.439L97.7401 724.878V717.749ZM59.0014 684.047L54.6069 681.337L50.2125 684.047V689.467L54.6069 692.177L59.0014 689.467V684.047ZM68.5313 701.204L63.9446 698.379L59.3578 701.204V706.864L63.9446 709.695L68.5313 706.864V701.204ZM17.9459 686.326L17.2471 685.895L16.5483 686.326V687.188L17.2471 687.619L17.9459 687.188V686.326ZM88.2758 700.553L82.6245 697.066L76.9731 700.553V707.52L82.6245 711.002L88.2758 707.52V700.553ZM107.842 700.002L101.3 695.969L94.762 700.002V708.067L101.3 712.099L107.842 708.067V700.002ZM38.8535 684.954L35.927 683.15L33.0005 684.954V688.56L35.927 690.364L38.8535 688.56V684.954ZM38.4314 719.768L35.927 718.22L33.4179 719.768V722.859L35.927 724.407L38.4314 722.859V719.768ZM77.8032 753.08L73.2822 750.29L68.7611 753.08V758.655L73.2822 761.445L77.8032 758.655V753.08ZM97.2898 752.584L91.9621 749.303L86.639 752.584V759.151L91.9621 762.437L97.2898 759.151V752.584ZM58.2838 753.606L54.6069 751.337L50.9301 753.606V758.139L54.6069 760.404L58.2838 758.139V753.606ZM38.6706 754.177L35.927 752.484L33.1834 754.177V757.563L35.927 759.251L38.6706 757.563V754.177ZM116.8 752.068L110.642 748.276L104.484 752.068V759.667L110.642 763.464L116.8 759.667V752.068ZM18.6259 755.019L17.2471 754.172L15.8683 755.019V756.722L17.2471 757.568L18.6259 756.722V755.019ZM78.8491 683.326L73.2822 679.894L67.7152 683.326V690.188L73.2822 693.625L78.8491 690.188V683.326ZM107.223 734.936L101.3 731.285L95.381 734.936V742.245L101.3 745.897L107.223 742.245V734.936ZM136.277 751.582L129.322 747.289L122.362 751.582V760.158L129.322 764.446L136.277 760.158V751.582ZM126.775 734.4L119.984 730.213L113.189 734.4V742.781L119.984 746.974L126.775 742.781V734.4ZM87.6943 735.462L82.6245 732.337L77.5547 735.462V741.719L82.6245 744.85L87.6943 741.719V735.462ZM48.435 736.639L45.2646 734.686L42.0989 736.639V740.547L45.2646 742.5L48.435 740.547V736.639ZM68.1702 735.988L63.9446 733.383L59.7189 735.988V741.198L63.9446 743.803L68.1702 741.198V735.988ZM28.456 737.441L26.5847 736.289L24.7181 737.441V739.745L26.5847 740.897L28.456 739.745V737.441ZM112.546 708.618L119.984 713.206L127.418 708.618V699.451L119.984 694.867L112.546 699.451V708.618ZM202.902 1044.54L194.695 1039.47L186.487 1044.54V1054.65L194.695 1059.72L202.902 1054.65V1044.54ZM212.413 1061.71L204.037 1056.54L195.661 1061.71V1072.04L204.037 1077.21L212.413 1072.04V1061.71ZM158.967 933.404L166.677 938.163L174.392 933.404V923.892L166.677 919.138L158.967 923.892V933.404ZM131.071 743.272L138.66 747.945L146.248 743.272V733.914L138.66 729.236L131.071 733.914V743.272ZM177.347 1037.26L185.357 1042.2L193.367 1037.26V1027.38L185.357 1022.44L177.347 1027.38V1037.26ZM121.832 725.93L129.322 730.548L136.812 725.93V716.692L129.322 712.079L121.832 716.692V725.93ZM176.939 968.399L185.357 973.589L193.775 968.399V958.01L185.357 952.82L176.939 958.01V968.399ZM103.171 691.366L110.642 695.974L118.113 691.366V682.148L110.642 677.545L103.171 682.148V691.366ZM184.072 940.963L176.019 935.999L167.967 940.963V950.892L176.019 955.856L184.072 950.892V940.963ZM193.663 992.639L185.357 987.52L177.051 992.639V1002.88L185.357 1008L193.663 1002.88V992.639ZM168.295 1019.8L176.019 1024.57L183.744 1019.8V1010.28L176.019 1005.51L168.295 1010.28V1019.8ZM159.051 967.913L166.677 972.612L174.308 967.913V958.501L166.677 953.797L159.051 958.501V967.913ZM168.051 985.396L176.019 990.31L183.988 985.396V975.573L176.019 970.658L168.051 975.573V985.396ZM60.3849 648.636L54.6069 645.075L48.8243 648.636V655.765L54.6069 659.331L60.3849 655.765V648.636ZM93.7161 674.154L101.3 678.832L108.888 674.154V664.801L101.3 660.123L93.7161 664.801V674.154ZM19.1559 651.021L17.2471 649.844L15.3383 651.021V653.38L17.2471 654.557L19.1559 653.38V651.021ZM40.2371 649.543L35.927 646.888L31.617 649.543V654.863L35.927 657.518L40.2371 654.863V649.543ZM49.5325 666.845L45.2646 664.215L40.9968 666.845V672.11L45.2646 674.745L49.5325 672.11V666.845ZM29.0329 667.967L26.5847 666.459L24.1366 667.967V670.988L26.5847 672.501L29.0329 670.988V667.967ZM69.5302 666.034L63.9446 662.592L58.3589 666.034V672.921L63.9446 676.368L69.5302 672.921V666.034ZM89.2795 665.377L82.6245 661.27L75.9695 665.377V673.583L82.6245 677.685L89.2795 673.583V665.377ZM71.364 630.347L63.9446 625.779L56.5298 630.347V639.499L63.9446 644.068L71.364 639.499V630.347ZM99.874 647.319L91.9621 642.445L84.0502 647.319V657.082L91.9621 661.961L99.874 657.082V647.319ZM98.5045 682.725L91.9621 678.692L85.4243 682.725V690.789L91.9621 694.822L98.5045 690.789V682.725ZM51.4694 631.099L45.2646 627.272L39.0646 631.099V638.748L45.2646 642.575L51.4694 638.748V631.099ZM80.167 647.955L73.2822 643.712L66.4021 647.955V656.446L73.2822 660.694L80.167 656.446V647.955ZM31.1105 632.136L26.5847 629.346L22.0683 632.136V637.711L26.5847 640.501L31.1105 637.711V632.136ZM9.14294 634.164L7.90949 633.403L6.67605 634.164V635.682L7.90949 636.444L9.14294 635.682V634.164ZM26.9365 1222.16L26.5847 1221.94L26.2377 1222.16V1222.59L26.5847 1222.81L26.9365 1222.59V1222.16ZM255.04 1139.09L260.072 1142.19L265.104 1139.09V1132.88L260.072 1129.78L255.04 1132.88V1139.09ZM286.603 1154.18L288.094 1155.11L289.586 1154.18V1152.34L288.094 1151.42L286.603 1152.34V1154.18ZM294.379 1172.43L297.432 1174.31L300.485 1172.43V1168.66L297.432 1166.78L294.379 1168.66V1172.43ZM277.978 1136.47L278.752 1136.94L279.526 1136.47V1135.51L278.752 1135.03L277.978 1135.51V1136.47ZM263.383 1156.98L269.414 1160.71L275.445 1156.98V1149.54L269.414 1145.82L263.383 1149.54V1156.98ZM232.763 1141.31L241.392 1146.63L250.026 1141.31V1130.66L241.392 1125.34L232.763 1130.66V1141.31ZM316.065 1170.57L316.112 1170.6L316.159 1170.57V1170.51L316.112 1170.48L316.065 1170.51V1170.57ZM328.793 1208.8L334.792 1212.49L340.785 1208.8V1201.4L334.792 1197.7L328.793 1201.4V1208.8ZM270.826 1175.43L278.752 1180.32L286.678 1175.43V1165.66L278.752 1160.77L270.826 1165.66V1175.43ZM371.359 1205.58L372.147 1206.06L372.935 1205.58V1204.62L372.147 1204.13L371.359 1204.62V1205.58ZM300.902 1191.44L306.769 1195.05L312.641 1191.44V1184.2L306.769 1180.58L300.902 1184.2V1191.44ZM323.386 1189.1L325.449 1190.37L327.518 1189.1V1186.54L325.449 1185.27L323.386 1186.54V1189.1ZM350.587 1206.88L353.467 1208.65L356.351 1206.88V1203.32L353.467 1201.54L350.587 1203.32V1206.88ZM219.124 1034.53L222.717 1036.75L226.305 1034.53V1030.1L222.717 1027.89L219.124 1030.1V1034.53ZM240.013 1067.72L241.392 1068.57L242.776 1067.72V1066.03L241.392 1065.17L240.013 1066.03V1067.72ZM226.684 1087.46L232.054 1090.77L237.424 1087.46V1080.84L232.054 1077.53L226.684 1080.84V1087.46ZM249.876 1084.68L250.734 1085.21L251.593 1084.68V1083.62L250.734 1083.1L249.876 1083.62V1084.68ZM205.359 1054.54L213.375 1059.48L221.39 1054.54V1044.66L213.375 1039.71L205.359 1044.66V1054.54ZM216.259 1070.85L222.717 1074.84L229.17 1070.85V1062.89L222.717 1058.91L216.259 1062.89V1070.85ZM229.761 1051.01L232.054 1052.43L234.348 1051.01V1048.18L232.054 1046.76L229.761 1048.18V1051.01ZM214.083 1106.75L222.717 1112.08L231.346 1106.75V1096.11L222.717 1090.79L214.083 1096.11V1106.75ZM245.998 1121.63L250.734 1124.55L255.466 1121.63V1115.79L250.734 1112.87L245.998 1115.79V1121.63ZM268.898 1119.02L269.414 1119.34L269.925 1119.02V1118.39L269.414 1118.07L268.898 1118.39V1119.02ZM236.66 1104.35L241.392 1107.27L246.129 1104.35V1098.51L241.392 1095.59L236.66 1098.51V1104.35ZM223.383 1124.06L232.054 1129.4L240.731 1124.06V1113.36L232.054 1108.01L223.383 1113.36V1124.06ZM204.872 1089.39L213.375 1094.64L221.882 1089.39V1078.9L213.375 1073.66L204.872 1078.9V1089.39ZM101.3 1220.28L99.602 1221.33V1223.17H103.002V1221.33L101.3 1220.28ZM259.542 1101.76L260.072 1102.09L260.607 1101.76V1101.1L260.072 1100.77L259.542 1101.1V1101.76ZM189.625 1202.47L185.357 1199.83L181.089 1202.47V1207.73L185.357 1210.36L189.625 1207.73V1202.47ZM65.5579 1186.82L63.9446 1185.83L62.3312 1186.82V1188.81L63.9446 1189.81L65.5579 1188.81V1186.82ZM112.931 1203.69L110.642 1202.27L108.353 1203.69V1206.51L110.642 1207.92L112.931 1206.51V1203.69ZM208.811 1202.15L204.037 1199.21L199.263 1202.15V1208.04L204.037 1210.99L208.811 1208.04V1202.15ZM132.08 1203.4L129.322 1201.7L126.564 1203.4V1206.8L129.322 1208.5L132.08 1206.8V1203.4ZM151.21 1203.12L147.997 1201.14L144.789 1203.12V1207.08L147.997 1209.06L151.21 1207.08V1203.12ZM8.42069 1187.51L7.90949 1187.18L7.3936 1187.51V1188.14L7.90949 1188.45L8.42069 1188.14V1187.51ZM46.4746 1187.07L45.2646 1186.33L44.0546 1187.07V1188.56L45.2646 1189.31L46.4746 1188.56V1187.07ZM93.838 1203.94L91.9621 1202.79L90.0908 1203.94V1206.26L91.9621 1207.41L93.838 1206.26V1203.94ZM228.04 1201.82L222.717 1198.53L217.389 1201.82V1208.38L222.717 1211.67L228.04 1208.38V1201.82ZM247.344 1201.43L241.392 1197.76L235.445 1201.43V1208.76L241.392 1212.43L247.344 1208.76V1201.43ZM266.643 1201.05L260.072 1196.99L253.501 1201.05V1209.15L260.072 1213.2L266.643 1209.15V1201.05ZM82.6245 1220.74L81.3019 1221.56V1223.17H83.947V1221.56L82.6245 1220.74ZM27.443 1187.29L26.5847 1186.76L25.7312 1187.29V1188.35L26.5847 1188.88L27.443 1188.35V1187.29ZM74.7689 1204.18L73.2822 1203.26L71.7955 1204.18V1206.01L73.2822 1206.93L74.7689 1206.01V1204.18ZM213.375 1216.96L208.985 1219.67V1223.17H217.769V1219.67L213.375 1216.96ZM194.695 1217.58L190.811 1219.98V1223.17H198.583V1219.98L194.695 1217.58ZM157.339 1218.71L154.371 1220.55V1223.17H160.308V1220.55L157.339 1218.71ZM119.984 1219.81L117.897 1221.09V1223.17H122.067V1221.09L119.984 1219.81ZM138.66 1219.29L136.16 1220.83V1223.17H141.164V1220.83L138.66 1219.29ZM176.019 1218.16L172.596 1220.27V1223.17H179.438V1220.27L176.019 1218.16ZM17.6786 1204.83L17.2471 1204.56L16.8156 1204.83V1205.36L17.2471 1205.63L17.6786 1205.36V1204.83ZM36.7009 1204.62L35.927 1204.15L35.1532 1204.62V1205.57L35.927 1206.05L36.7009 1205.57V1204.62ZM55.7138 1204.42L54.6069 1203.73L53.5001 1204.42V1205.78L54.6069 1206.46L55.7138 1205.78V1204.42ZM250.734 1215.76L245.364 1219.06V1223.17H256.104V1219.06L250.734 1215.76ZM232.054 1216.34L227.168 1219.36V1223.17H236.946V1219.36L232.054 1216.34ZM269.414 1215.09L263.505 1218.73V1223.17H275.319V1218.73L269.414 1215.09ZM288.094 1214.47L281.678 1218.42V1223.17H294.505V1218.42L288.094 1214.47ZM170.396 1202.8L166.677 1200.51L162.963 1202.8V1207.39L166.677 1209.68L170.396 1207.39V1202.8ZM193.635 739.249L194.695 739.901L195.759 739.249V737.937L194.695 737.281L193.635 737.937V739.249ZM170.199 742.18L176.019 745.771L181.84 742.18V735.001L176.019 731.41L170.199 735.001V742.18ZM180.597 758.806L185.357 761.741L190.122 758.806V752.935L185.357 749.994L180.597 752.935V758.806ZM174.233 705.136L176.019 706.233L177.802 705.136V702.937L176.019 701.835L174.233 702.937V705.136ZM183.823 722.258L185.357 723.205L186.891 722.258V720.369L185.357 719.423L183.823 720.369V722.258ZM160.092 725.374L166.677 729.431L173.262 725.374V717.254L166.677 713.196L160.092 717.254V725.374ZM158.048 761.195L166.677 766.515L175.311 761.195V750.55L166.677 745.225L158.048 750.55V761.195ZM201.706 791.862L204.037 793.305L206.372 791.862V788.987L204.037 787.549L201.706 788.987V791.862ZM195.281 1026.92V1037.72L204.037 1043.12L212.793 1037.72V1026.92L204.037 1021.52L195.281 1026.92ZM191.022 775.416L194.695 777.681L198.371 775.416V770.883L194.695 768.614L191.022 770.883V775.416ZM203.507 756.196L204.037 756.526L204.567 756.196V755.54L204.037 755.214L203.507 755.54V756.196ZM150.412 708.307L157.339 712.58L164.266 708.307V699.766L157.339 695.493L150.412 699.766V708.307ZM167.259 778.547L176.019 783.952L184.775 778.547V767.747L176.019 762.347L167.259 767.747V778.547ZM45.2646 607.074L50.7049 603.723V599.57H39.8243V603.723L45.2646 607.074ZM164.979 687.804L166.677 688.856L168.38 687.804V685.71L166.677 684.663L164.979 685.71V687.804ZM94.3492 639.209L101.3 643.497L108.255 639.209V630.638L101.3 626.35L94.3492 630.638V639.209ZM110.028 618.025L110.642 618.405L111.256 618.025V617.268L110.642 616.887L110.028 617.268V618.025ZM26.5847 610.4L34.7217 605.386V599.57H18.4524V605.386L26.5847 610.4ZM188.748 811.368L194.695 815.04L200.646 811.368V804.034L194.695 800.368L188.748 804.034V811.368ZM88.5009 619.783L91.9621 621.917L95.4279 619.783V615.51L91.9621 613.371L88.5009 615.51V619.783ZM65.8252 622.242L73.2822 626.846L80.7438 622.242V613.045L73.2822 608.447L65.8252 613.045V622.242ZM156.022 670.291L157.339 671.103L158.657 670.291V668.668L157.339 667.857L156.022 668.668V670.291ZM141.413 690.82L147.997 694.882L154.586 690.82V682.694L147.997 678.632L141.413 682.694V690.82ZM132.966 672.991L138.66 676.503L144.353 672.991V665.968L138.66 662.457L132.966 665.968V672.991ZM101.886 657.603L110.642 663.003L119.398 657.603V646.803L110.642 641.398L101.886 646.803V657.603ZM125.012 654.863L129.322 657.518L133.632 654.863V649.543L129.322 646.888L125.012 649.543V654.863ZM117.438 636.494L119.984 638.062L122.526 636.494V633.353L119.984 631.785L117.438 633.353V636.494ZM147.341 652.604L147.997 653.014L148.658 652.604V651.797L147.997 651.391L147.341 651.797V652.604ZM177.478 795.288L185.357 800.147L193.241 795.288V785.565L185.357 780.701L177.478 785.565V795.288ZM198.329 932.172L204.037 935.689L209.74 932.172V925.134L204.037 921.612L198.329 925.134V932.172ZM221.399 964.016L222.717 964.833L224.035 964.016V962.393L222.717 961.582L221.399 962.393V964.016ZM209.468 982.896L213.375 985.311L217.286 982.896V978.072L213.375 975.658L209.468 978.072V982.896ZM221.718 929.267L222.717 929.878L223.711 929.267V928.034L222.717 927.418L221.718 928.034V929.267ZM185.896 940.503V951.353L194.695 956.783L203.498 951.353V940.503L194.695 935.072L185.896 940.503ZM210.19 947.891L213.375 949.855L216.564 947.891V943.964L213.375 942L210.19 943.964V947.891ZM197.748 967.082L204.037 970.959L210.321 967.082V959.327L204.037 955.45L197.748 959.327V967.082ZM231.29 1015.51L232.054 1015.99L232.824 1015.51V1014.56L232.054 1014.09L231.29 1014.56V1015.51ZM208.047 1018.33L213.375 1021.61L218.707 1018.33V1011.75L213.375 1008.46L208.047 1011.75V1018.33ZM232.008 980.512L232.054 980.542L232.101 980.512V980.457L232.054 980.427L232.008 980.457V980.512ZM220.634 999.041L222.717 1000.33L224.794 999.041V996.481L222.717 995.199L220.634 996.481V999.041ZM185.981 975.107V985.862L194.695 991.232L203.413 985.862V975.107L194.695 969.737L185.981 975.107ZM196.411 1002.47L204.037 1007.17L211.663 1002.47V993.055L204.037 988.356L196.411 993.055V1002.47ZM222.665 825.013L222.717 825.038L222.764 825.013V824.953L222.717 824.923L222.665 824.953V825.013ZM211.255 843.568L213.375 844.875L215.499 843.568V840.948L213.375 839.64L211.255 840.948V843.568ZM210.406 913.202L213.375 915.03L216.348 913.202V909.54L213.375 907.712L210.406 909.54V913.202ZM212.268 808.383L213.375 809.064L214.481 808.383V807.02L213.375 806.339L212.268 807.02V808.383ZM200.107 827.403L204.037 829.827L207.967 827.403V822.559L204.037 820.134L200.107 822.559V827.403ZM199.005 862.638L204.037 865.744L209.064 862.638V856.437L204.037 853.336L199.005 856.437V862.638ZM176.638 819.608V830.358L185.357 835.728L194.076 830.358V819.608L185.357 814.233L176.638 819.608ZM187.027 846.989L194.695 851.718L202.367 846.989V837.532L194.695 832.798L187.027 837.532V846.989ZM221.779 894.668L222.717 895.249L223.65 894.668V893.515L222.717 892.939L221.779 893.515V894.668ZM19.7468 996.221L17.2471 994.673L14.7474 996.221V999.307L17.2471 1000.85L19.7468 999.307V996.221ZM185.939 905.968V916.774L194.695 922.174L203.455 916.774V905.968L194.695 900.573L185.939 905.968ZM222.112 859.913L222.717 860.279L223.317 859.913V859.167L222.717 858.796L222.112 859.167V859.913ZM193.986 854.213L185.357 848.893L176.728 854.213V864.857L185.357 870.182L193.986 864.857V854.213ZM186.093 882.119L194.695 887.424L203.301 882.119V871.51L194.695 866.205L186.093 871.51V882.119ZM210.622 878.518L213.375 880.216L216.132 878.518V875.116L213.375 873.413L210.622 875.116V878.518ZM198.47 897.528L204.037 900.959L209.604 897.528V890.66L204.037 887.229L198.47 890.66V897.528ZM19.2731 1065.62L17.2471 1064.38L15.2211 1065.62V1068.12L17.2471 1069.37L19.2731 1068.12V1065.62ZM38.4314 1065.33L35.927 1063.79L33.4226 1065.33V1068.41L35.927 1069.96L38.4314 1068.41V1065.33ZM57.646 1065L54.6069 1063.12L51.5632 1065V1068.75L54.6069 1070.62L57.646 1068.75V1065ZM182.97 1079.87L176.019 1075.58L169.069 1079.87V1088.44L176.019 1092.72L182.97 1088.44V1079.87ZM124.801 1081.18L119.984 1078.2L115.158 1081.18V1087.12L119.984 1090.1L124.801 1087.12V1081.18ZM163.586 1080.3L157.339 1076.45L151.092 1080.3V1088.01L157.339 1091.85L163.586 1088.01V1080.3ZM144.184 1080.75L138.66 1077.34L133.135 1080.75V1087.56L138.66 1090.97L144.184 1087.56V1080.75ZM173.515 1062.66L166.677 1058.44L159.844 1062.66V1071.09L166.677 1075.3L173.515 1071.09V1062.66ZM76.8887 1064.65L73.2822 1062.43L69.6803 1064.65V1069.1L73.2822 1071.32L76.8887 1069.1V1064.65ZM154.08 1063.12L147.997 1059.38L141.919 1063.12V1070.62L147.997 1074.38L154.08 1070.62V1063.12ZM134.72 1063.55L129.322 1060.22L123.924 1063.55V1070.2L129.322 1073.53L134.72 1070.2V1063.55ZM96.122 1064.31L91.9621 1061.75L87.8021 1064.31V1069.44L91.9621 1072L96.122 1069.44V1064.31ZM115.374 1063.96L110.642 1061.04L105.91 1063.96V1069.79L110.642 1072.71L115.374 1069.79V1063.96ZM153.583 1097.98L147.997 1094.54L142.416 1097.98V1104.87L147.997 1108.32L153.583 1104.87V1097.98ZM29.0047 1048.11L26.5847 1046.61L24.1694 1048.11V1051.09L26.5847 1052.58L29.0047 1051.09V1048.11ZM134.223 1098.41L129.322 1095.38L124.416 1098.41V1104.45L129.322 1107.48L134.223 1104.45V1098.41ZM172.971 1097.55L166.677 1093.67L160.388 1097.55V1105.31L166.677 1109.19L172.971 1105.31V1097.55ZM114.952 1098.77L110.642 1096.12L106.332 1098.77V1104.09L110.642 1106.75L114.952 1104.09V1098.77ZM76.4666 1099.47L73.2822 1097.51L70.1024 1099.47V1103.39L73.2822 1105.35L76.4666 1103.39V1099.47ZM95.6953 1099.13L91.9621 1096.82L88.2289 1099.13V1103.74L91.9621 1106.03L95.6953 1103.74V1099.13ZM47.8394 1082.57L45.2646 1080.98L42.6899 1082.57V1085.74L45.2646 1087.32L47.8394 1085.74V1082.57ZM86.2967 1081.88L82.6245 1079.62L78.9476 1081.88V1086.42L82.6245 1088.69L86.2967 1086.42V1081.88ZM67.0399 1082.24L63.9446 1080.33L60.8492 1082.24V1086.06L63.9446 1087.97L67.0399 1086.06V1082.24ZM9.56972 1083.13L7.90949 1082.1L6.24457 1083.13V1085.18L7.90949 1086.2L9.56972 1085.18V1083.13ZM105.53 1081.54L101.3 1078.93L97.0741 1081.54V1086.76L101.3 1089.37L105.53 1086.76V1081.54ZM28.6717 1082.87L26.5847 1081.58L24.5024 1082.87V1085.44L26.5847 1086.72L28.6717 1085.44V1082.87ZM192.392 1097.09L185.357 1092.75L178.322 1097.09V1105.77L185.357 1110.11L192.392 1105.77V1097.09ZM168.614 1054.16L176.019 1058.73L183.42 1054.16V1045.03L176.019 1040.46L168.614 1045.03V1054.16ZM48.4444 1013.08L45.2646 1011.12L42.0849 1013.08V1017L45.2646 1018.96L48.4444 1017V1013.08ZM10.0715 1013.7L7.90949 1012.37L5.74275 1013.7V1016.37L7.90949 1017.71L10.0715 1016.37V1013.7ZM29.2486 1013.4L26.5847 1011.76L23.9255 1013.4V1016.68L26.5847 1018.32L29.2486 1016.68V1013.4ZM154.497 1028.31L147.997 1024.3L141.502 1028.31V1036.33L147.997 1040.33L154.497 1036.33V1028.31ZM67.6777 1012.74L63.9446 1010.43L60.2114 1012.74V1017.34L63.9446 1019.64L67.6777 1017.34V1012.74ZM173.9 1027.86L166.677 1023.41L159.455 1027.86V1036.77L166.677 1041.22L173.9 1036.77V1027.86ZM86.9345 1012.38L82.6245 1009.72L78.3144 1012.38V1017.7L82.6245 1020.36L86.9345 1017.7V1012.38ZM164.351 1010.72L157.339 1006.39L150.328 1010.72V1019.36L157.339 1023.69L164.351 1019.36V1010.72ZM38.9426 995.9L35.927 994.042L32.9114 995.9V999.622L35.927 1001.48L38.9426 999.622V995.9ZM125.603 1011.57L119.984 1008.1L114.361 1011.57V1018.51L119.984 1021.97L125.603 1018.51V1011.57ZM106.229 1012L101.3 1008.96L96.3753 1012V1018.08L101.3 1021.12L106.229 1018.08V1012ZM135.114 1028.74L129.322 1025.17L123.525 1028.74V1035.89L129.322 1039.47L135.114 1035.89V1028.74ZM144.953 1011.16L138.66 1007.28L132.37 1011.16V1018.92L138.66 1022.8L144.953 1018.92V1011.16ZM105.91 1046.75L101.3 1043.91L96.6942 1046.75V1052.44L101.3 1055.28L105.91 1052.44V1046.75ZM115.716 1029.19L110.642 1026.06L105.568 1029.19V1035.45L110.642 1038.58L115.716 1035.45V1029.19ZM144.606 1045.93L138.66 1042.26L132.713 1045.93V1053.27L138.66 1056.93L144.606 1053.27V1045.93ZM9.82298 1048.41L7.90949 1047.24L5.99132 1048.41V1050.78L7.90949 1051.96L9.82298 1050.78V1048.41ZM48.1911 1047.79L45.2646 1045.99L42.3381 1047.79V1051.4L45.2646 1053.2L48.1911 1051.4V1047.79ZM86.6531 1047.11L82.6245 1044.63L78.5911 1047.11V1052.08L82.6245 1054.57L86.6531 1052.08V1047.11ZM67.4245 1047.45L63.9446 1045.3L60.4646 1047.45V1051.74L63.9446 1053.89L67.4245 1051.74V1047.45ZM125.223 1046.36L119.984 1043.13L114.741 1046.36V1052.83L119.984 1056.06L125.223 1052.83V1046.36ZM57.9415 1030.26L54.6069 1028.21L51.2677 1030.26V1034.38L54.6069 1036.43L57.9415 1034.38V1030.26ZM77.1936 1029.9L73.2822 1027.49L69.3708 1029.9V1034.73L73.2822 1037.14L77.1936 1034.73V1029.9ZM96.441 1029.56L91.9621 1026.79L87.4832 1029.56V1035.08L91.9621 1037.84L96.441 1035.08V1029.56ZM164.037 1045.47L157.339 1041.33L150.642 1045.47V1053.73L157.339 1057.86L164.037 1053.73V1045.47ZM57.2333 1099.81L54.6069 1098.18L51.9759 1099.81V1103.05L54.6069 1104.67L57.2333 1103.05V1099.81ZM38.755 1030.57L35.927 1028.83L33.099 1030.57V1034.07L35.927 1035.8L38.755 1034.07V1030.57ZM19.5405 1030.91L17.2471 1029.49L14.9537 1030.91V1033.73L17.2471 1035.14L19.5405 1033.73V1030.91ZM94.5087 1168.97L91.9621 1167.4L89.4155 1168.97V1172.11L91.9621 1173.68L94.5087 1172.11V1168.97ZM123.671 1150.99L119.984 1148.71L116.293 1150.99V1155.54L119.984 1157.81L123.671 1155.54V1150.99ZM190.671 1167.26L185.357 1163.99L180.048 1167.26V1173.82L185.357 1177.1L190.671 1173.82V1167.26ZM171.4 1167.63L166.677 1164.72L161.954 1167.63V1173.45L166.677 1176.36L171.4 1173.45V1167.63ZM132.91 1168.33L129.322 1166.11L125.729 1168.33V1172.76L129.322 1174.97L132.91 1172.76V1168.33ZM152.138 1167.99L147.997 1165.43L143.861 1167.99V1173.09L147.997 1175.65L152.138 1173.09V1167.99ZM229.414 1166.41L222.717 1162.28L216.02 1166.41V1174.67L222.717 1178.8L229.414 1174.67V1166.41ZM27.9073 1152.45L26.5847 1151.63L25.2669 1152.45V1154.08L26.5847 1154.9L27.9073 1154.08V1152.45ZM113.695 1168.66L110.642 1166.78L107.589 1168.66V1172.43L110.642 1174.31L113.695 1172.43V1168.66ZM18.9495 1100.38L17.2471 1099.33L15.5447 1100.38V1102.48L17.2471 1103.53L18.9495 1102.48V1100.38ZM85.2508 1151.64L82.6245 1150.02L79.9934 1151.64V1154.89L82.6245 1156.51L85.2508 1154.89V1151.64ZM8.84279 1152.69L7.90949 1152.11L6.97151 1152.69V1153.84L7.90949 1154.42L8.84279 1153.84V1152.69ZM46.9671 1152.22L45.2646 1151.16L43.5622 1152.22V1154.31L45.2646 1155.37L46.9671 1154.31V1152.22ZM66.1113 1151.93L63.9446 1150.59L61.7825 1151.93V1154.6L63.9446 1155.93L66.1113 1154.6V1151.93ZM210.026 1166.85L204.037 1163.16L198.048 1166.85V1174.24L204.037 1177.93L210.026 1174.24V1166.85ZM180.54 1185.03L176.019 1182.25L171.498 1185.03V1190.61L176.019 1193.4L180.54 1190.61V1185.03ZM161.312 1185.37L157.339 1182.92L153.367 1185.37V1190.27L157.339 1192.72L161.312 1190.27V1185.37ZM84.6177 1186.59L82.6245 1185.36L80.6313 1186.59V1189.05L82.6245 1190.28L84.6177 1189.05V1186.59ZM142.083 1185.71L138.66 1183.6L135.241 1185.71V1189.93L138.66 1192.04L142.083 1189.93V1185.71ZM103.724 1186.32L101.3 1184.83L98.8797 1186.32V1189.31L101.3 1190.81L103.724 1189.31V1186.32ZM199.769 1184.7L194.695 1181.56L189.625 1184.7V1190.95L194.695 1194.08L199.769 1190.95V1184.7ZM122.906 1186.02L119.984 1184.21L117.058 1186.02V1189.62L119.984 1191.43L122.906 1189.62V1186.02ZM18.1616 1169.98L17.2471 1169.42L16.3326 1169.98V1171.11L17.2471 1171.67L18.1616 1171.11V1169.98ZM56.2625 1169.52L54.6069 1168.5L52.942 1169.52V1171.57L54.6069 1172.59L56.2625 1171.57V1169.52ZM75.3692 1169.26L73.2822 1167.97L71.1998 1169.26V1171.83L73.2822 1173.11L75.3692 1171.83V1169.26ZM219.124 1184.27L213.375 1180.73L207.629 1184.27V1191.36L213.375 1194.91L219.124 1191.36V1184.27ZM238.428 1183.89L232.054 1179.96L225.686 1183.89V1191.75L232.054 1195.68L238.428 1191.75V1183.89ZM257.783 1183.47L250.734 1179.13L243.685 1183.47V1192.16L250.734 1196.51L257.783 1192.16V1183.47ZM37.2074 1169.75L35.927 1168.97L34.6467 1169.75V1171.33L35.927 1172.12L37.2074 1171.33V1169.75ZM104.437 1151.33L101.3 1149.39L98.1668 1151.33V1155.2L101.3 1157.13L104.437 1155.2V1151.33ZM105.038 1116.4L101.3 1114.1L97.5665 1116.4V1121.01L101.3 1123.31L105.038 1121.01V1116.4ZM85.8042 1116.74L82.6245 1114.79L79.4447 1116.74V1120.67L82.6245 1122.63L85.8042 1120.67V1116.74ZM66.6178 1117.06L63.9446 1115.41L61.2713 1117.06V1120.36L63.9446 1122L66.6178 1120.36V1117.06ZM28.3294 1117.64L26.5847 1116.56L24.8448 1117.64V1119.78L26.5847 1120.85L28.3294 1119.78V1117.64ZM47.4595 1117.36L45.2646 1116L43.0698 1117.36V1120.06L45.2646 1121.41L47.4595 1120.06V1117.36ZM9.26957 1117.87L7.90949 1117.03L6.54942 1117.87V1119.54L7.90949 1120.39L9.26957 1119.54V1117.87ZM124.294 1116.05L119.984 1113.39L115.67 1116.05V1121.37L119.984 1124.02L124.294 1121.37V1116.05ZM38.0891 1100.1L35.927 1098.76L33.7603 1100.1V1102.76L35.927 1104.1L38.0891 1102.76V1100.1ZM201.729 1114.37L194.695 1110.03L187.66 1114.37V1123.05L194.695 1127.38L201.729 1123.05V1114.37ZM211.03 1131.68L204.037 1127.36L197.04 1131.68V1140.3L204.037 1144.61L211.03 1140.3V1131.68ZM143.593 1115.67L138.66 1112.62L133.726 1115.67V1121.75L138.66 1124.79L143.593 1121.75V1115.67ZM182.351 1114.81L176.019 1110.9L169.693 1114.81V1122.61L176.019 1126.51L182.351 1122.61V1114.81ZM162.963 1115.24L157.339 1111.78L151.716 1115.24V1122.17L157.339 1125.64L162.963 1122.17V1115.24ZM56.7971 1134.63L54.6069 1133.28L52.4121 1134.63V1137.34L54.6069 1138.7L56.7971 1137.34V1134.63ZM220.255 1149.02L213.375 1144.78L206.499 1149.02V1157.5L213.375 1161.75L220.255 1157.5V1149.02ZM37.6717 1134.91L35.927 1133.83L34.1824 1134.91V1137.06L35.927 1138.14L37.6717 1137.06V1134.91ZM181.511 1149.88L176.019 1146.48L170.523 1149.88V1156.65L176.019 1160.04L181.511 1156.65V1149.88ZM191.641 1132.11L185.357 1128.23L179.072 1132.11V1139.86L185.357 1143.74L191.641 1139.86V1132.11ZM18.6072 1135.15L17.2471 1134.31L15.887 1135.15V1136.82L17.2471 1137.66L18.6072 1136.82V1135.15ZM200.857 1149.47L194.695 1145.67L188.541 1149.47V1157.06L194.695 1160.86L200.857 1157.06V1149.47ZM162.165 1150.29L157.339 1147.32L152.514 1150.29V1156.24L157.339 1159.21L162.165 1156.24V1150.29ZM152.903 1132.96L147.997 1129.94L143.096 1132.96V1139.01L147.997 1142.03L152.903 1139.01V1132.96ZM172.263 1132.54L166.677 1129.1L161.096 1132.54V1139.43L166.677 1142.87L172.263 1139.43V1132.54ZM133.632 1133.33L129.322 1130.67L125.012 1133.33V1138.64L129.322 1141.3L133.632 1138.64V1133.33ZM142.918 1150.64L138.66 1148.02L134.406 1150.64V1155.89L138.66 1158.51L142.918 1155.89V1150.64ZM114.38 1133.68L110.642 1131.38L106.904 1133.68V1138.29L110.642 1140.59L114.38 1138.29V1133.68ZM75.9554 1134.34L73.2822 1132.69L70.6136 1134.34V1137.63L73.2822 1139.28L75.9554 1137.63V1134.34ZM95.1418 1137.95L91.9621 1139.91L88.7823 1137.95V1134.02L91.9621 1132.06L95.1418 1134.02V1137.95Z" fill="black"/>
</g>
</g>
<mask id="mask2_539_2428" style="mask-type:luminance" maskUnits="userSpaceOnUse" x="0" y="0" width="389" height="604">
<path d="M0 0V604H389V0H0Z" fill="white"/>
</mask>
<g mask="url(#mask2_539_2428)">
<mask id="mask3_539_2428" style="mask-type:luminance" maskUnits="userSpaceOnUse" x="0" y="0" width="389" height="604">
<path d="M0.0820312 603.055V0.0014808H388.904V603.055H0.0820312Z" fill="white"/>
</mask>
<g mask="url(#mask3_539_2428)">
<path d="M10.2404 362.177L7.90949 363.615L5.57392 362.177V359.302L7.90949 357.859L10.2404 359.302V362.177ZM48.7258 362.879L45.2646 365.013L41.8035 362.879V358.606L45.2646 356.472L48.7258 358.606V362.879ZM19.7797 379.58L17.2471 381.142L14.7146 379.58V376.454L17.2471 374.896L19.7797 376.454V379.58ZM135.691 347.39L129.322 351.322L122.948 347.39V339.535L129.322 335.603L135.691 339.535V347.39ZM68.0013 363.239L63.9446 365.744L59.8878 363.239V358.24L63.9446 355.735L68.0013 358.24V363.239ZM155.051 347.811L147.997 352.154L140.953 347.811V339.115L147.997 334.772L155.051 339.115V347.811ZM149.868 356.131L157.339 351.523L164.81 356.131V365.348L157.339 369.952L149.868 365.348V356.131ZM39.0646 379.955L35.927 381.889L32.7895 379.955V376.083L35.927 374.15L39.0646 376.083V379.955ZM87.2722 363.605L82.6245 366.475L77.9768 363.605V357.874L82.6245 355.004L87.2722 357.874V363.605ZM116.312 346.959L110.642 350.456L104.972 346.959V339.966L110.642 336.47L116.312 339.966V346.959ZM29.5441 328.009L26.5847 329.827L23.6301 328.009V324.362L26.5847 322.539L29.5441 324.362V328.009ZM145.441 364.922L138.66 369.105L131.878 364.922V356.557L138.66 352.374L145.441 356.557V364.922ZM125.987 364.447L119.984 368.148L113.972 364.447V357.038L119.984 353.331L125.987 357.038V364.447ZM29.5018 362.538L26.5847 364.336L23.6723 362.538V358.946L26.5847 357.148L29.5018 358.946V362.538ZM125.931 329.852L119.984 333.529L114.028 329.852V322.514L119.984 318.842L125.931 322.514V329.852ZM106.548 329.422L101.3 332.653L96.0564 329.422V322.95L101.3 319.714L106.548 322.95V329.422ZM96.9521 346.538L91.9621 349.614L86.9767 346.538V340.387L91.9621 337.311L96.9521 340.387V346.538ZM126.381 433.8L119.984 437.747L113.578 433.8V425.906L119.984 421.958L126.381 425.906V433.8ZM68.0013 328.685L63.9446 331.19L59.8878 328.685V323.686L63.9446 321.181L68.0013 323.686V328.685ZM48.7727 328.345L45.2646 330.509L41.7613 328.345V324.022L45.2646 321.863L48.7727 324.022V328.345ZM87.2534 329.041L82.6245 331.896L77.9908 329.041V323.33L82.6245 320.475L87.2534 323.33V329.041ZM77.6391 346.148L73.2822 348.833L68.9299 346.148V340.778L73.2822 338.098L77.6391 340.778V346.148ZM145.357 330.313L138.66 334.446L131.962 330.313V322.053L138.66 317.925L145.357 322.053V330.313ZM58.3636 345.782L54.6069 348.096L50.8456 345.782V341.143L54.6069 338.824L58.3636 341.143V345.782ZM149.962 321.637L157.339 317.089L164.712 321.637V330.729L157.339 335.277L149.962 330.729V321.637ZM39.1349 345.441L35.927 347.42L32.7144 345.441V341.484L35.927 339.505L39.1349 341.484V345.441ZM19.8828 345.086L17.2471 346.714L14.6114 345.086V341.835L17.2471 340.217L19.8828 341.835V345.086ZM106.618 364.016L101.3 367.292L95.986 364.016V357.464L101.3 354.188L106.618 357.464V364.016ZM140.62 408.022L147.997 403.474L155.379 408.022V417.124L147.997 421.673L140.62 417.124V408.022ZM135.977 416.678L129.322 420.781L122.667 416.678V408.468L129.322 404.371L135.977 408.468V416.678ZM19.4983 413.963L17.2471 415.346L14.9959 413.963V411.188L17.2471 409.801L19.4983 411.188V413.963ZM58.326 414.865L54.6069 417.159L50.8878 414.865V410.282L54.6069 407.987L58.326 410.282V414.865ZM58.3636 380.336L54.6069 382.655L50.8456 380.336V375.697L54.6069 373.378L58.3636 375.697V380.336ZM77.6813 415.286L73.2822 418.001L68.8877 415.286V409.861L73.2822 407.151L77.6813 409.861V415.286ZM116.523 416.202L110.642 419.829L104.761 416.202V408.949L110.642 405.322L116.523 408.949V416.202ZM87.4457 432.823L82.6245 435.799L77.8032 432.823V426.877L82.6245 423.902L87.4457 426.877V432.823ZM106.923 433.319L101.3 436.786L95.6812 433.319V426.386L101.3 422.92L106.923 426.386V433.319ZM29.0047 431.341L26.5847 432.833L24.1694 431.341V428.36L26.5847 426.867L29.0047 428.36V431.341ZM68.0435 432.383L63.9446 434.907L59.8456 432.383V427.328L63.9446 424.798L68.0435 427.328V432.383ZM9.07259 430.569L7.90949 431.29L6.74171 430.569V429.131L7.90949 428.415L9.07259 429.131V430.569ZM48.5616 431.887L45.2646 433.915L41.9723 431.887V427.819L45.2646 425.79L48.5616 427.819V431.887ZM97.0788 415.727L91.9621 418.882L86.8454 415.727V409.42L91.9621 406.264L97.0788 409.42V415.727ZM29.3471 396.997L26.5847 398.695L23.8271 396.997V393.596L26.5847 391.897L29.3471 393.596V396.997ZM135.794 382.009L129.322 386.001L122.845 382.009V374.024L129.322 370.037L135.794 374.024V382.009ZM155.191 382.455L147.997 386.888L140.808 382.455V373.583L147.997 369.15L155.191 373.583V382.455ZM116.392 381.563L110.642 385.11L104.892 381.563V374.475L110.642 370.929L116.392 374.475V381.563ZM77.6625 380.717L73.2822 383.422L68.9018 380.717V375.317L73.2822 372.612L77.6625 375.317V380.717ZM96.9944 381.122L91.9621 384.223L86.9345 381.122V374.916L91.9621 371.815L96.9944 374.916V381.122ZM87.3566 398.214L82.6245 401.135L77.8877 398.214V392.378L82.6245 389.458L87.3566 392.378V398.214ZM126.137 399.096L119.984 402.893L113.822 399.096V391.497L119.984 387.7L126.137 391.497V399.096ZM106.712 398.63L101.3 401.971L95.8922 398.63V391.963L101.3 388.621L106.712 391.963V398.63ZM9.98712 396.576L7.90949 397.863L5.82717 396.576V394.016L7.90949 392.729L9.98712 394.016V396.576ZM145.568 399.557L138.66 403.815L131.751 399.557V391.036L138.66 386.778L145.568 391.036V399.557ZM38.9379 414.429L35.927 416.288L32.9161 414.429V410.717L35.927 408.864L38.9379 410.717V414.429ZM48.6883 397.408L45.2646 399.517L41.8457 397.408V393.19L45.2646 391.081L48.6883 393.19V397.408ZM68.0013 397.798L63.9446 400.298L59.8878 397.798V392.794L63.9446 390.294L68.0013 392.794V397.798ZM10.3342 327.678L7.90949 329.171L5.48481 327.678V324.688L7.90949 323.195L10.3342 324.688V327.678ZM77.5547 242.425L73.2822 245.055L69.0143 242.425V237.16L73.2822 234.531L77.5547 237.16V242.425ZM96.8255 242.796L91.9621 245.797L87.0986 242.796V236.795L91.9621 233.794L96.8255 236.795V242.796ZM39.0693 241.734L35.927 243.673L32.7848 241.734V237.857L35.927 235.918L39.0693 237.857V241.734ZM116.181 243.212L110.642 246.623L105.103 243.212V236.379L110.642 232.963L116.181 236.379V243.212ZM19.8781 241.413L17.2471 243.036L14.6161 241.413V238.172L17.2471 236.554L19.8781 238.172V241.413ZM58.326 242.09L54.6069 244.379L50.8878 242.09V237.501L54.6069 235.207L58.326 237.501V242.09ZM29.5441 258.896L26.5847 260.719L23.6301 258.896V255.249L26.5847 253.426L29.5441 255.249V258.896ZM48.7258 259.206L45.2646 261.345L41.8035 259.206V254.933L45.2646 252.799L48.7258 254.933V259.206ZM155.009 313.232L147.997 317.55L140.986 313.232V304.586L147.997 300.258L155.009 304.586V313.232ZM87.23 259.913L82.6245 262.753L78.019 259.913V254.232L82.6245 251.392L87.23 254.232V259.913ZM154.91 244.053L147.997 248.316L141.089 244.053V235.532L147.997 231.275L154.91 235.532V244.053ZM135.564 243.643L129.322 247.495L123.08 243.643V235.943L129.322 232.096L135.564 235.943V243.643ZM164.543 226.957L157.339 231.405L150.136 226.957V218.075L157.339 213.632L164.543 218.075V226.957ZM10.3248 258.565L7.90949 260.053L5.4895 258.565V255.58L7.90949 254.087L10.3248 255.58V258.565ZM154.783 209.419L147.997 213.602L141.22 209.419V201.059L147.997 196.876L154.783 201.059V209.419ZM135.353 208.958L129.322 212.68L123.286 208.958V201.519L129.322 197.798L135.353 201.519V208.958ZM77.3999 207.776L73.2822 210.316L69.1691 207.776V202.697L73.2822 200.162L77.3999 202.697V207.776ZM159.206 200.633L166.677 196.024L174.148 200.633V209.845L166.677 214.453L159.206 209.845V200.633ZM96.6942 208.157L91.9621 211.077L87.23 208.157V202.321L91.9621 199.4L96.6942 202.321V208.157ZM115.974 208.527L110.642 211.814L105.31 208.527V201.95L110.642 198.664L115.974 201.95V208.527ZM29.4549 224.287L26.5847 226.055L23.7145 224.287V220.745L26.5847 218.977L29.4549 220.745V224.287ZM87.1033 225.278L82.6245 228.044L78.1456 225.278V219.753L82.6245 216.993L87.1033 219.753V225.278ZM106.402 225.664L101.3 228.805L96.2018 225.664V219.367L101.3 216.227L106.402 219.367V225.664ZM125.804 226.105L119.984 229.697L114.159 226.105V218.927L119.984 215.335L125.804 218.927V226.105ZM48.6414 224.597L45.2646 226.681L41.8879 224.597V220.434L45.2646 218.351L48.6414 220.434V224.597ZM10.2404 223.956L7.90949 225.394L5.57392 223.956V221.076L7.90949 219.638L10.2404 221.076V223.956ZM145.16 226.526L138.66 230.528L132.164 226.526V218.511L138.66 214.503L145.16 218.511V226.526ZM67.8747 224.938L63.9446 227.362L60.0144 224.938V220.094L63.9446 217.669L67.8747 220.094V224.938ZM67.9591 259.547L63.9446 262.022L59.93 259.547V254.598L63.9446 252.123L67.9591 254.598V259.547ZM150.004 287.108L157.339 282.585L164.674 287.108V296.15L157.339 300.668L150.004 296.15V287.108ZM145.329 295.739L138.66 299.852L131.995 295.739V287.519L138.66 283.406L145.329 287.519V295.739ZM125.931 295.298L119.984 298.965L114.033 295.298V287.96L119.984 284.293L125.931 287.96V295.298ZM87.2534 294.487L82.6245 297.342L77.9908 294.487V288.771L82.6245 285.916L87.2534 288.771V294.487ZM39.149 310.892L35.927 312.881L32.7051 310.892V306.92L35.927 304.931L39.149 306.92V310.892ZM106.543 294.857L101.3 298.094L96.0611 294.857V288.396L101.3 285.165L106.543 288.396V294.857ZM58.3917 311.243L54.6069 313.572L50.8222 311.243V306.574L54.6069 304.24L58.3917 306.574V311.243ZM19.9485 310.572L17.2471 312.24L14.5457 310.572V307.24L17.2471 305.572L19.9485 307.24V310.572ZM116.265 312.375L110.642 315.846L105.014 312.375V305.437L110.642 301.966L116.265 305.437V312.375ZM135.649 312.806L129.322 316.713L122.991 312.806V305.006L129.322 301.104L135.649 305.006V312.806ZM106.506 260.283L101.3 263.489L96.0986 260.283V253.866L101.3 250.656L106.506 253.866V260.283ZM77.6391 311.594L73.2822 314.273L68.9299 311.594V306.224L73.2822 303.539L77.6391 306.224V311.594ZM96.9381 311.974L91.9621 315.045L86.9861 311.974V305.838L91.9621 302.772L96.9381 305.838V311.974ZM68.0013 294.131L63.9446 296.631L59.8878 294.131V289.127L63.9446 286.622L68.0013 289.127V294.131ZM39.149 276.338L35.927 278.327L32.7051 276.338V272.361L35.927 270.377L39.149 272.361V276.338ZM19.9485 276.018L17.2471 277.681L14.5457 276.018V272.681L17.2471 271.018L19.9485 272.681V276.018ZM150.051 252.579L157.339 248.081L164.628 252.579V261.566L157.339 266.064L150.051 261.566V252.579ZM125.889 260.714L119.984 264.356L114.075 260.714V253.431L119.984 249.789L125.889 253.431V260.714ZM145.315 261.175L138.66 265.278L132.005 261.175V252.97L138.66 248.867L145.315 252.97V261.175ZM58.3636 276.669L54.6069 278.988L50.8456 276.669V272.03L54.6069 269.716L58.3636 272.03V276.669ZM77.6391 277.034L73.2822 279.719L68.9299 277.034V271.669L73.2822 268.985L77.6391 271.669V277.034ZM154.999 278.667L147.997 282.98L141.004 278.667V270.036L147.997 265.718L154.999 270.036V278.667ZM29.5534 293.46L26.5847 295.288L23.6207 293.46V289.798L26.5847 287.97L29.5534 289.798V293.46ZM10.367 293.144L7.90949 294.662L5.44729 293.144V290.114L7.90949 288.596L10.367 290.114V293.144ZM116.265 277.816L110.642 281.282L105.019 277.816V270.883L110.642 267.417L116.265 270.883V277.816ZM96.9381 277.415L91.9621 280.486L86.9861 277.415V271.284L91.9621 268.213L96.9381 271.284V277.415ZM48.7727 293.791L45.2646 295.955L41.7613 293.791V289.467L45.2646 287.303L48.7727 289.467V293.791ZM135.625 278.237L129.322 282.124L123.019 278.237V270.462L129.322 266.575L135.625 270.462V278.237ZM0.804277 310.286L0.0820312 310.732V307.08L0.804277 307.526V310.286ZM261.615 10.3699L269.414 5.56104L277.214 10.3699V19.9878L269.414 24.7967L261.615 19.9878V10.3699ZM248.826 37.0444L241.392 41.6279L233.963 37.0444V27.8724L241.392 23.2889L248.826 27.8724V37.0444ZM196.284 96.7902L204.037 92.0063L211.794 96.7902V106.353L204.037 111.137L196.284 106.353V96.7902ZM205.575 79.4831L213.375 74.6792L221.174 79.4831V89.101L213.375 93.9099L205.575 89.101V79.4831ZM214.941 62.2211L222.717 57.4272L230.488 62.2211V71.8089L222.717 76.6028L214.941 71.8089V62.2211ZM224.382 45.0042L232.054 40.2754L239.722 45.0042V54.4667L232.054 59.1955L224.382 54.4667V45.0042ZM285.965 2.34509L278.752 6.79333L271.543 2.34509V-6.54138L278.752 -10.9896L285.965 -6.54138V2.34509ZM388.904 -14.8017L381.489 -10.2282L374.07 -14.8017V-20.1717H388.904V-14.8017ZM297.432 7.62988L289.543 2.76587V-6.96216L297.432 -11.8262L305.32 -6.96216V2.76587L297.432 7.62988ZM362.804 -8.71545L354.166 -14.0453V-20.1717H371.453V-14.0453L362.804 -8.71545ZM344.129 -9.44177L336.072 -14.406V-20.1717H352.182V-14.406L344.129 -9.44177ZM306.769 -10.8043L299.819 -15.0873V-20.1717H313.72V-15.0873L306.769 -10.8043ZM325.449 -10.123L317.95 -14.7516V-20.1717H332.953V-14.7516L325.449 -10.123ZM158.723 373.113L166.677 368.209L174.631 373.113V382.926L166.677 387.83L158.723 382.926V373.113ZM184.184 331.22L176.019 336.254L167.854 331.22V321.151L176.019 316.112L184.184 321.151V331.22ZM158.911 338.674L166.677 333.88L174.448 338.674V348.251L166.677 353.045L158.911 348.251V338.674ZM184.311 365.854L176.019 370.969L167.723 365.854V355.625L176.019 350.511L184.311 355.625V365.854ZM184.114 296.616L176.019 301.61L167.925 296.616V286.637L176.019 281.648L184.114 286.637V296.616ZM158.953 304.14L166.677 299.381L174.406 304.14V313.672L166.677 318.436L158.953 313.672V304.14ZM186.994 114.102L194.695 109.348L202.395 114.102V123.6L194.695 128.344L186.994 123.6V114.102ZM193.893 314.168L185.357 319.428L176.821 314.168V303.644L185.357 298.379L193.893 303.644V314.168ZM140.245 442.346L147.997 437.567L155.754 442.346V451.914L147.997 456.698L140.245 451.914V442.346ZM177.802 131.465L185.357 126.806L192.912 131.465V140.787L185.357 145.445L177.802 140.787V131.465ZM149.681 390.575L157.339 385.851L164.998 390.575V400.023L157.339 404.741L149.681 400.023V390.575ZM149.371 424.939L157.339 420.025L165.308 424.939V434.767L157.339 439.676L149.371 434.767V424.939ZM307.435 -7.44806L316.112 -12.793L324.783 -7.44806V3.25177L316.112 8.59668L307.435 3.25177V-7.44806ZM174.889 417.635L166.677 422.695L158.47 417.635V407.511L166.677 402.452L174.889 407.511V417.635ZM167.554 390.079L176.019 384.859L184.48 390.079V400.513L176.019 405.733L167.554 400.513V390.079ZM0.593232 206.489L0.0820312 206.799V203.673L0.593232 203.989V206.489ZM0.733929 241.128L0.0820312 241.529V238.057L0.733929 238.458V241.128ZM0.733929 344.795L0.0820312 345.196V341.724L0.733929 342.13V344.795ZM0.804277 275.732L0.0820312 276.173V272.526L0.804277 272.972V275.732ZM0.424395 171.829L0.0820312 172.035V169.33L0.424395 169.535V171.829ZM58.1947 207.45L54.6069 209.67L51.0145 207.45V203.022L54.6069 200.808L58.1947 203.022V207.45ZM64.9247 -18.7741L63.9446 -18.168L62.9644 -18.7741V-19.9763L63.2786 -20.1717H64.6105L64.9247 -19.9763V-18.7741ZM63.9446 599.227L66.7069 600.93V603.43H61.1822V600.93L63.9446 599.227ZM279.502 9.88403L288.094 4.58423L296.681 9.88403V20.4787L288.094 25.7735L279.502 20.4787V9.88403ZM0.518193 379.224L0.0820312 379.494V376.544L0.518193 376.814V379.224ZM7.9986 -19.3201L7.90949 -19.265L7.81569 -19.3201V-19.4303L7.90949 -19.4904L7.9986 -19.4303V-19.3201ZM45.9072 -18.9795L45.2646 -18.5887L44.6221 -18.9795V-19.7709L45.2646 -20.1667L45.9072 -19.7709V-18.9795ZM0.185209 137.125L0.0820312 137.19V135.061L0.185209 135.126V137.125ZM82.0242 602.263L82.6245 601.892L83.2201 602.263V602.999L82.6245 603.37L82.0242 602.999V602.263ZM16.0512 603.43H0.0820312V597.419L7.90949 592.595L16.0512 597.614V603.43ZM156.345 486.833L147.997 491.983L139.649 486.833V476.539L147.997 471.39L156.345 476.539V486.833ZM193.86 279.594L185.357 284.839L176.854 279.594V269.105L185.357 263.86L193.86 269.105V279.594ZM186.15 182.689L194.695 177.42L203.244 182.689V193.229L194.695 198.499L186.15 193.229V182.689ZM268.322 37.5453L260.072 42.6348L251.822 37.5453V27.3715L260.072 22.282L268.322 27.3715V37.5453ZM145.826 434.271L138.66 438.684L131.498 434.271V425.435L138.66 421.021L145.826 425.435V434.271ZM165.772 469.607L157.339 474.811L148.907 469.607V459.207L157.339 454.008L165.772 459.207V469.607ZM43.1307 589.799L35.927 594.243L28.7233 589.799V580.913L35.927 576.465L43.1307 580.913V589.799ZM46.3011 580.232L54.6069 575.112L62.9128 580.232V590.476L54.6069 595.595L46.3011 590.476V580.232ZM22.6593 588.692L17.2471 592.029L11.8349 588.692V582.02L17.2471 578.684L22.6593 582.02V588.692ZM137.698 521.408L129.322 526.577L120.946 521.408V511.078L129.322 505.914L137.698 511.078V521.408ZM147.008 504.111L138.66 509.26L130.311 504.111V493.816L138.66 488.672L147.008 493.816V504.111ZM74.2483 562.91L82.6245 557.745L91.0007 562.91V573.244L82.6245 578.408L74.2483 573.244V562.91ZM111.477 528.275L119.984 523.031L128.482 528.275V538.765L119.984 544.01L111.477 538.765V528.275ZM242.274 44.5182L250.734 39.2986L259.195 44.5182V54.9526L250.734 60.1723L242.274 54.9526V44.5182ZM117.274 485.777L110.642 489.864L104.015 485.777V477.596L110.642 473.509L117.274 477.596V485.777ZM28.2918 500.013L26.5847 501.065L24.8823 500.013V497.914L26.5847 496.862L28.2918 497.914V500.013ZM48.6414 501.05L45.2646 503.129L41.8879 501.05V496.882L45.2646 494.798L48.6414 496.882V501.05ZM17.8521 482.06L17.2471 482.43L16.6421 482.06V481.313L17.2471 480.943L17.8521 481.313V482.06ZM58.4105 484.028L54.6069 486.378L50.8034 484.028V479.345L54.6069 476.995L58.4105 479.345V484.028ZM78.1081 484.659L73.2822 487.635L68.4609 484.659V478.713L73.2822 475.738L78.1081 478.713V484.659ZM97.7401 485.251L91.9621 488.812L86.1841 485.251V478.122L91.9621 474.561L97.7401 478.122V485.251ZM59.0014 518.953L54.6069 521.663L50.2125 518.953V513.533L54.6069 510.823L59.0014 513.533V518.953ZM68.5313 501.796L63.9446 504.621L59.3578 501.796V496.136L63.9446 493.305L68.5313 496.136V501.796ZM17.9459 516.674L17.2471 517.105L16.5483 516.674V515.812L17.2471 515.381L17.9459 515.812V516.674ZM88.2758 502.447L82.6245 505.934L76.9731 502.447V495.48L82.6245 491.998L88.2758 495.48V502.447ZM107.842 502.998L101.3 507.031L94.762 502.998V494.934L101.3 490.901L107.842 494.934V502.998ZM38.8535 518.046L35.927 519.85L33.0005 518.046V514.44L35.927 512.636L38.8535 514.44V518.046ZM38.4314 483.232L35.927 484.78L33.4179 483.232V480.141L35.927 478.593L38.4314 480.141V483.232ZM77.8032 449.92L73.2822 452.71L68.7611 449.92V444.345L73.2822 441.555L77.8032 444.345V449.92ZM97.2898 450.416L91.9621 453.697L86.639 450.416V443.849L91.9621 440.563L97.2898 443.849V450.416ZM58.2838 449.394L54.6069 451.663L50.9301 449.394V444.861L54.6069 442.596L58.2838 444.861V449.394ZM38.6706 448.823L35.927 450.516L33.1834 448.823V445.437L35.927 443.749L38.6706 445.437V448.823ZM116.8 450.932L110.642 454.724L104.484 450.932V443.333L110.642 439.536L116.8 443.333V450.932ZM18.6259 447.981L17.2471 448.828L15.8683 447.981V446.278L17.2471 445.432L18.6259 446.278V447.981ZM78.8491 519.674L73.2822 523.106L67.7152 519.674V512.812L73.2822 509.375L78.8491 512.812V519.674ZM107.223 468.064L101.3 471.715L95.381 468.064V460.755L101.3 457.103L107.223 460.755V468.064ZM136.277 451.418L129.322 455.711L122.362 451.418V442.842L129.322 438.554L136.277 442.842V451.418ZM126.775 468.6L119.984 472.787L113.189 468.6V460.219L119.984 456.026L126.775 460.219V468.6ZM87.6943 467.538L82.6245 470.663L77.5547 467.538V461.281L82.6245 458.15L87.6943 461.281V467.538ZM48.435 466.361L45.2646 468.314L42.0989 466.361V462.453L45.2646 460.5L48.435 462.453V466.361ZM68.1702 467.012L63.9446 469.617L59.7189 467.012V461.802L63.9446 459.197L68.1702 461.802V467.012ZM28.456 465.559L26.5847 466.711L24.7181 465.559V463.255L26.5847 462.103L28.456 463.255V465.559ZM112.546 494.382L119.984 489.794L127.418 494.382V503.549L119.984 508.133L112.546 503.549V494.382ZM202.902 158.465L194.695 163.529L186.487 158.465V148.346L194.695 143.281L202.902 148.346V158.465ZM212.413 141.293L204.037 146.457L195.661 141.293V130.959L204.037 125.794L212.413 130.959V141.293ZM158.967 269.596L166.677 264.837L174.392 269.596V279.108L166.677 283.862L158.967 279.108V269.596ZM131.071 459.728L138.66 455.055L146.248 459.728V469.086L138.66 473.764L131.071 469.086V459.728ZM177.347 165.743L185.357 160.804L193.367 165.743V175.621L185.357 180.561L177.347 175.621V165.743ZM121.832 477.07L129.322 472.452L136.812 477.07V486.308L129.322 490.921L121.832 486.308V477.07ZM176.939 234.601L185.357 229.411L193.775 234.601V244.99L185.357 250.18L176.939 244.99V234.601ZM103.171 511.634L110.642 507.026L118.113 511.634V520.852L110.642 525.455L103.171 520.852V511.634ZM184.072 262.037L176.019 267.001L167.967 262.037V252.108L176.019 247.144L184.072 252.108V262.037ZM193.663 210.361L185.357 215.48L177.051 210.361V200.117L185.357 194.997L193.663 200.117V210.361ZM168.295 183.195L176.019 178.432L183.744 183.195V192.723L176.019 197.487L168.295 192.723V183.195ZM159.051 235.087L166.677 230.388L174.308 235.087V244.499L166.677 249.203L159.051 244.499V235.087ZM168.051 217.604L176.019 212.69L183.988 217.604V227.427L176.019 232.342L168.051 227.427V217.604ZM60.3849 554.364L54.6069 557.925L48.8243 554.364V547.235L54.6069 543.669L60.3849 547.235V554.364ZM93.7161 528.846L101.3 524.168L108.888 528.846V538.199L101.3 542.877L93.7161 538.199V528.846ZM19.1559 551.979L17.2471 553.156L15.3383 551.979V549.62L17.2471 548.443L19.1559 549.62V551.979ZM40.2371 553.457L35.927 556.112L31.617 553.457V548.137L35.927 545.482L40.2371 548.137V553.457ZM49.5325 536.155L45.2646 538.785L40.9968 536.155V530.89L45.2646 528.255L49.5325 530.89V536.155ZM29.0329 535.033L26.5847 536.541L24.1366 535.033V532.012L26.5847 530.499L29.0329 532.012V535.033ZM69.5302 536.966L63.9446 540.408L58.3589 536.966V530.079L63.9446 526.632L69.5302 530.079V536.966ZM89.2795 537.623L82.6245 541.73L75.9695 537.623V529.417L82.6245 525.315L89.2795 529.417V537.623ZM71.364 572.653L63.9446 577.221L56.5298 572.653V563.501L63.9446 558.932L71.364 563.501V572.653ZM99.874 555.681L91.9621 560.555L84.0502 555.681V545.918L91.9621 541.039L99.874 545.918V555.681ZM98.5045 520.275L91.9621 524.308L85.4244 520.275V512.211L91.9621 508.178L98.5045 512.211V520.275ZM51.4694 571.901L45.2646 575.728L39.0646 571.901V564.252L45.2646 560.425L51.4694 564.252V571.901ZM80.167 555.045L73.2822 559.288L66.4021 555.045V546.554L73.2822 542.306L80.167 546.554V555.045ZM31.1105 570.864L26.5847 573.654L22.0683 570.864V565.289L26.5847 562.499L31.1105 565.289V570.864ZM9.14294 568.836L7.90949 569.597L6.67605 568.836V567.318L7.90949 566.556L9.14294 567.318V568.836ZM26.9365 -19.1598L26.5847 -18.9444L26.2377 -19.1598V-19.5906L26.5847 -19.806L26.9365 -19.5906V-19.1598ZM255.04 63.9092L260.072 60.8085L265.104 63.9092V70.1157L260.072 73.2215L255.04 70.1157V63.9092ZM286.603 48.8162L288.094 47.8945L289.586 48.8162V50.6597L288.094 51.5764L286.603 50.6597V48.8162ZM294.379 30.5724L297.432 28.6939L300.485 30.5724V34.3394L297.432 36.2229L294.379 34.3394V30.5724ZM277.978 66.5341L278.752 66.0632L279.526 66.5341V67.4909L278.752 67.9667L277.978 67.4909V66.5341ZM263.383 46.0161L269.414 42.2941L275.445 46.0161V53.4598L269.414 57.1768L263.383 53.4598V46.0161ZM232.763 61.6901L241.392 56.3702L250.026 61.6901V72.3398L241.392 77.6597L232.763 72.3398V61.6901ZM316.065 32.4258L316.112 32.4008L316.159 32.4258V32.486L316.112 32.5161L316.065 32.486V32.4258ZM328.793 -5.79504L334.792 -9.49188L340.785 -5.79504V1.59869L334.792 5.29553L328.793 1.59869V-5.79504ZM270.826 27.5718L278.752 22.6828L286.678 27.5718V37.345L278.752 42.2341L270.826 37.345V27.5718ZM371.359 -2.58405L372.147 -3.06494L372.935 -2.58405V-1.61725L372.147 -1.12634L371.359 -1.61725V-2.58405ZM300.902 11.5622L306.769 7.94543L312.641 11.5622V18.8006L306.769 22.4173L300.902 18.8006V11.5622ZM323.386 13.9015L325.449 12.6342L327.518 13.9015V16.4562L325.449 17.7286L323.386 16.4562V13.9015ZM350.587 -3.87646L353.467 -5.65479L356.351 -3.87646V-0.319885L353.467 1.45844L350.587 -0.319885V-3.87646ZM219.124 168.468L222.717 166.254L226.305 168.468V172.896L222.717 175.11L219.124 172.896V168.468ZM240.013 135.277L241.392 134.43L242.776 135.277V136.975L241.392 137.826L240.013 136.975V135.277ZM226.684 115.54L232.054 112.229L237.424 115.54V122.157L232.054 125.468L226.684 122.157V115.54ZM249.876 118.32L250.734 117.789L251.593 118.32V119.377L250.734 119.903L249.876 119.377V118.32ZM205.359 148.461L213.375 143.517L221.39 148.461V158.344L213.375 163.289L205.359 158.344V148.461ZM216.259 132.146L222.717 128.163L229.17 132.146V140.111L222.717 144.088L216.259 140.111V132.146ZM229.761 151.988L232.054 150.575L234.348 151.988V154.818L232.054 156.235L229.761 154.818V151.988ZM214.083 96.2492L222.717 90.9243L231.346 96.2492V106.894L222.717 112.214L214.083 106.894V96.2492ZM245.998 81.3716L250.734 78.4512L255.466 81.3716V87.2125L250.734 90.1329L245.998 87.2125V81.3716ZM268.898 83.9764L269.414 83.6558L269.925 83.9764V84.6076L269.414 84.9282L268.898 84.6076V83.9764ZM236.66 98.6487L241.392 95.7332L246.129 98.6487V104.489L241.392 107.41L236.66 104.489V98.6487ZM223.383 78.9421L232.054 73.5972L240.731 78.9421V89.642L232.054 94.9919L223.383 89.642V78.9421ZM204.872 113.606L213.375 108.362L221.882 113.606V124.096L213.375 129.336L204.872 124.096V113.606ZM101.3 -17.2813L99.6019 -18.3282V-20.1717H103.002V-18.3282L101.3 -17.2813ZM259.542 101.243L260.072 100.913L260.607 101.243V101.9L260.072 102.225L259.542 101.9V101.243ZM189.625 0.531738L185.357 3.16663L181.089 0.531738V-4.72803L185.357 -7.36292L189.625 -4.72803V0.531738ZM65.5579 16.1757L63.9446 17.1725L62.3312 16.1757V14.187L63.9446 13.1902L65.5579 14.187V16.1757ZM112.931 -0.685547L110.642 0.727051L108.353 -0.685547V-3.5108L110.642 -4.9234L112.931 -3.5108V-0.685547ZM208.811 0.84729L204.037 3.79279L199.263 0.84729V-5.03864L204.037 -7.98907L208.811 -5.03864V0.84729ZM132.08 -0.400024L129.322 1.30316L126.564 -0.400024V-3.79633L129.322 -5.49945L132.08 -3.79633V-0.400024ZM151.21 -0.119507L147.997 1.85919L144.789 -0.119507V-4.07684L147.997 -6.05548L151.21 -4.07684V-0.119507ZM8.42069 15.4944L7.90949 15.8151L7.3936 15.4944V14.8633L7.90949 14.5477L8.42069 14.8633V15.4944ZM46.4746 15.9252L45.2646 16.6716L44.0546 15.9252V14.4375L45.2646 13.6911L46.4746 14.4375V15.9252ZM93.8381 -0.94104L91.9621 0.211121L90.0908 -0.94104V-3.25531L91.9621 -4.40747L93.8381 -3.25531V-0.94104ZM228.04 1.18292L222.717 4.474L217.389 1.18292V-5.37927L222.717 -8.66534L228.04 -5.37927V1.18292ZM247.344 1.57367L241.392 5.23541L235.445 1.57367V-5.76495L241.392 -9.43176L247.344 -5.76495V1.57367ZM266.643 1.95435L260.072 6.00684L253.501 1.95435V-6.1507L260.072 -10.1982L266.643 -6.1507V1.95435ZM82.6245 -17.7422L81.3019 -18.5587V-20.1717H83.947V-18.5587L82.6245 -17.7422ZM27.443 15.7098L26.5847 16.2358L25.7312 15.7098V14.6529L26.5847 14.1219L27.443 14.6529V15.7098ZM74.7689 -1.18146L73.2822 -0.264771L71.7955 -1.18146V-3.01489L73.2822 -3.93158L74.7689 -3.01489V-1.18146ZM213.375 -13.9551L208.985 -16.6652V-20.1717H217.769V-16.6652L213.375 -13.9551ZM194.695 -14.5813L190.811 -16.9758V-20.1717H198.583V-16.9758L194.695 -14.5813ZM157.339 -15.7134L154.371 -17.5468V-20.1717H160.308V-17.5468L157.339 -15.7134ZM119.984 -16.8054L117.897 -18.0928V-20.1717H122.067V-18.0928L119.984 -16.8054ZM138.66 -16.2895L136.16 -17.8323V-20.1717H141.164V-17.8323L138.66 -16.2895ZM176.019 -15.1574L172.596 -17.2663V-20.1717H179.438V-17.2663L176.019 -15.1574ZM17.6786 -1.82764L17.2471 -1.56219L16.8156 -1.82764V-2.36365L17.2471 -2.63416L17.6786 -2.36365V-1.82764ZM36.7009 -1.62225L35.927 -1.14642L35.1532 -1.62225V-2.57404L35.927 -3.04993L36.7009 -2.57404V-1.62225ZM55.7138 -1.41693L54.6069 -0.730652L53.5001 -1.41693V-2.77942L54.6069 -3.46069L55.7138 -2.77942V-1.41693ZM250.734 -12.7579L245.364 -16.0641V-20.1717H256.104V-16.0641L250.734 -12.7579ZM232.054 -13.344L227.168 -16.3596V-20.1717H236.946V-16.3596L232.054 -13.344ZM269.414 -12.0917L263.505 -15.7335V-20.1717H275.319V-15.7335L269.414 -12.0917ZM288.094 -11.4655L281.678 -15.4178V-20.1717H294.505V-15.4178L288.094 -11.4655ZM170.396 0.196106L166.677 2.48535L162.963 0.196106V-4.38739L166.677 -6.68164L170.396 -4.38739V0.196106ZM193.635 463.751L194.695 463.099L195.759 463.751V465.063L194.695 465.719L193.635 465.063V463.751ZM170.199 460.82L176.019 457.229L181.84 460.82V467.999L176.019 471.59L170.199 467.999V460.82ZM180.597 444.194L185.357 441.259L190.122 444.194V450.065L185.357 453.006L180.597 450.065V444.194ZM174.233 497.864L176.019 496.767L177.802 497.864V500.063L176.019 501.165L174.233 500.063V497.864ZM183.823 480.742L185.357 479.795L186.891 480.742V482.631L185.357 483.577L183.823 482.631V480.742ZM160.092 477.626L166.677 473.569L173.262 477.626V485.746L166.677 489.804L160.092 485.746V477.626ZM158.048 441.805L166.677 436.485L175.311 441.805V452.45L166.677 457.775L158.048 452.45V441.805ZM201.706 411.138L204.037 409.695L206.372 411.138V414.013L204.037 415.451L201.706 414.013V411.138ZM195.281 176.082V165.282L204.037 159.882L212.793 165.282V176.082L204.037 181.482L195.281 176.082ZM191.022 427.584L194.695 425.319L198.371 427.584V432.117L194.695 434.386L191.022 432.117V427.584ZM203.507 446.804L204.037 446.474L204.567 446.804V447.46L204.037 447.786L203.507 447.46V446.804ZM150.412 494.693L157.339 490.42L164.266 494.693V503.234L157.339 507.507L150.412 503.234V494.693ZM167.259 424.453L176.019 419.048L184.775 424.453V435.253L176.019 440.653L167.259 435.253V424.453ZM45.2646 595.926L50.7049 599.277V603.43H39.8243V599.277L45.2646 595.926ZM164.979 515.196L166.677 514.144L168.379 515.196V517.29L166.677 518.337L164.979 517.29V515.196ZM94.3492 563.791L101.3 559.503L108.255 563.791V572.362L101.3 576.65L94.3492 572.362V563.791ZM110.028 584.975L110.642 584.595L111.256 584.975V585.732L110.642 586.113L110.028 585.732V584.975ZM26.5847 592.6L34.7217 597.614V603.43H18.4524V597.614L26.5847 592.6ZM188.748 391.632L194.695 387.96L200.646 391.632V398.966L194.695 402.632L188.748 398.966V391.632ZM88.5009 583.217L91.9621 581.083L95.4279 583.217V587.49L91.9621 589.629L88.5009 587.49V583.217ZM65.8252 580.758L73.2822 576.154L80.7438 580.758V589.955L73.2822 594.553L65.8252 589.955V580.758ZM156.022 532.709L157.339 531.897L158.657 532.709V534.332L157.339 535.143L156.022 534.332V532.709ZM141.413 512.18L147.997 508.118L154.586 512.18V520.306L147.997 524.368L141.413 520.306V512.18ZM132.966 530.009L138.66 526.497L144.353 530.009V537.032L138.66 540.543L132.966 537.032V530.009ZM101.886 545.397L110.642 539.997L119.398 545.397V556.197L110.642 561.602L101.886 556.197V545.397ZM125.012 548.137L129.322 545.482L133.632 548.137V553.457L129.322 556.112L125.012 553.457V548.137ZM117.438 566.506L119.984 564.938L122.526 566.506V569.647L119.984 571.215L117.438 569.647V566.506ZM147.341 550.396L147.997 549.986L148.658 550.396V551.203L147.997 551.609L147.341 551.203V550.396ZM177.478 407.712L185.357 402.853L193.241 407.712V417.435L185.357 422.299L177.478 417.435V407.712ZM198.329 270.828L204.037 267.311L209.74 270.828V277.866L204.037 281.388L198.329 277.866V270.828ZM221.399 238.984L222.717 238.167L224.035 238.984V240.607L222.717 241.418L221.399 240.607V238.984ZM209.468 220.104L213.375 217.689L217.286 220.104V224.928L213.375 227.342L209.468 224.928V220.104ZM221.718 273.733L222.717 273.122L223.711 273.733V274.966L222.717 275.582L221.718 274.966V273.733ZM185.896 262.497V251.647L194.695 246.217L203.498 251.647V262.497L194.695 267.928L185.896 262.497ZM210.19 255.109L213.375 253.145L216.564 255.109V259.036L213.375 261L210.19 259.036V255.109ZM197.748 235.918L204.037 232.041L210.321 235.918V243.673L204.037 247.55L197.748 243.673V235.918ZM231.29 187.488L232.054 187.013L232.824 187.488V188.435L232.054 188.906L231.29 188.435V187.488ZM208.047 184.673L213.375 181.387L218.707 184.673V191.25L213.375 194.536L208.047 191.25V184.673ZM232.008 222.488L232.054 222.458L232.101 222.488V222.543L232.054 222.573L232.008 222.543V222.488ZM220.634 203.959L222.717 202.672L224.794 203.959V206.519L222.717 207.801L220.634 206.519V203.959ZM185.981 227.893V217.138L194.695 211.768L203.413 217.138V227.893L194.695 233.263L185.981 227.893ZM196.411 200.533L204.037 195.829L211.663 200.533V209.945L204.037 214.644L196.411 209.945V200.533ZM222.665 377.987L222.717 377.962L222.764 377.987V378.047L222.717 378.077L222.665 378.047V377.987ZM211.255 359.432L213.375 358.125L215.499 359.432V362.052L213.375 363.36L211.255 362.052V359.432ZM210.406 289.798L213.375 287.97L216.348 289.798V293.46L213.375 295.288L210.406 293.46V289.798ZM212.268 394.617L213.375 393.936L214.481 394.617V395.98L213.375 396.661L212.268 395.98V394.617ZM200.107 375.597L204.037 373.173L207.967 375.597V380.441L204.037 382.866L200.107 380.441V375.597ZM199.005 340.362L204.037 337.256L209.064 340.362V346.563L204.037 349.664L199.005 346.563V340.362ZM176.638 383.392V372.642L185.357 367.272L194.076 372.642V383.392L185.357 388.767L176.638 383.392ZM187.027 356.011L194.695 351.282L202.367 356.011V365.468L194.695 370.202L187.027 365.468V356.011ZM221.779 308.332L222.717 307.751L223.65 308.332V309.485L222.717 310.061L221.779 309.485V308.332ZM19.7468 206.779L17.2471 208.327L14.7474 206.779V203.693L17.2471 202.151L19.7468 203.693V206.779ZM185.939 297.032V286.227L194.695 280.826L203.455 286.227V297.032L194.695 302.427L185.939 297.032ZM222.112 343.087L222.717 342.721L223.317 343.087V343.833L222.717 344.204L222.112 343.833V343.087ZM193.986 348.787L185.357 354.107L176.728 348.787V338.143L185.357 332.818L193.986 338.143V348.787ZM186.093 320.881L194.695 315.576L203.301 320.881V331.49L194.695 336.795L186.093 331.49V320.881ZM210.622 324.482L213.375 322.784L216.132 324.482V327.884L213.375 329.587L210.622 327.884V324.482ZM198.47 305.472L204.037 302.041L209.604 305.472V312.34L204.037 315.771L198.47 312.34V305.472ZM19.2731 137.375L17.2471 138.623L15.2211 137.375V134.881L17.2471 133.629L19.2731 134.881V137.375ZM38.4314 137.671L35.927 139.214L33.4226 137.671V134.585L35.927 133.037L38.4314 134.585V137.671ZM57.646 138.002L54.6069 139.875L51.5632 138.002V134.255L54.6069 132.376L57.646 134.255V138.002ZM182.97 123.134L176.019 127.422L169.069 123.134V114.563L176.019 110.275L182.97 114.563V123.134ZM124.801 121.822L119.984 124.797L115.158 121.822V115.876L119.984 112.9L124.801 115.876V121.822ZM163.586 122.698L157.339 126.55L151.092 122.698V114.994L157.339 111.147L163.586 114.994V122.698ZM144.184 122.252L138.66 125.659L133.135 122.252V115.44L138.66 112.033L144.184 115.44V122.252ZM173.515 140.341L166.677 144.559L159.844 140.341V131.91L166.677 127.698L173.515 131.91V140.341ZM76.8887 138.347L73.2822 140.571L69.6803 138.347V133.904L73.2822 131.685L76.8887 133.904V138.347ZM154.08 139.875L147.997 143.622L141.919 139.875V132.376L147.997 128.624L154.08 132.376V139.875ZM134.72 139.454L129.322 142.78L123.924 139.454V132.797L129.322 129.471L134.72 132.797V139.454ZM96.122 138.693L91.9621 141.253L87.8021 138.693V133.563L91.9621 130.999L96.122 133.563V138.693ZM115.374 139.044L110.642 141.964L105.91 139.044V133.208L110.642 130.287L115.374 133.208V139.044ZM153.583 105.015L147.997 108.457L142.416 105.015V98.1277L147.997 94.6813L153.583 98.1277V105.015ZM29.0047 154.893L26.5847 156.386L24.1694 154.893V151.912L26.5847 150.425L29.0047 151.912V154.893ZM134.223 104.595L129.322 107.615L124.416 104.595V98.5485L129.322 95.5229L134.223 98.5485V104.595ZM172.971 105.451L166.677 109.333L160.388 105.451V97.6919L166.677 93.8097L172.971 97.6919V105.451ZM114.952 104.229L110.642 106.884L106.332 104.229V98.9142L110.642 96.2542L114.952 98.9142V104.229ZM76.4666 103.533L73.2822 105.491L70.1024 103.533V99.6104L73.2822 97.6468L76.4666 99.6104V103.533ZM95.6953 103.873L91.9621 106.178L88.2289 103.873V99.2648L91.9621 96.9655L95.6953 99.2648V103.873ZM47.8394 120.434L45.2646 122.022L42.6899 120.434V117.263L45.2646 115.675L47.8394 117.263V120.434ZM86.2967 121.115L82.6245 123.38L78.9476 121.115V116.582L82.6245 114.313L86.2967 116.582V121.115ZM67.0399 120.76L63.9446 122.668L60.8492 120.76V116.938L63.9446 115.034L67.0399 116.938V120.76ZM9.56972 119.873L7.90949 120.9L6.24457 119.873V117.824L7.90949 116.802L9.56972 117.824V119.873ZM105.53 121.456L101.3 124.066L97.0741 121.456V116.241L101.3 113.631L105.53 116.241V121.456ZM28.6717 120.133L26.5847 121.421L24.5024 120.133V117.564L26.5847 116.276L28.6717 117.564V120.133ZM192.392 105.907L185.357 110.245L178.322 105.907V97.231L185.357 92.893L192.392 97.231V105.907ZM168.614 148.842L176.019 144.273L183.42 148.842V157.969L176.019 162.537L168.614 157.969V148.842ZM48.4444 189.923L45.2646 191.882L42.0849 189.923V186.001L45.2646 184.042L48.4444 186.001V189.923ZM10.0715 189.297L7.90949 190.629L5.74275 189.297V186.627L7.90949 185.294L10.0715 186.627V189.297ZM29.2486 189.602L26.5847 191.24L23.9255 189.602V186.321L26.5847 184.683L29.2486 186.321V189.602ZM154.497 174.69L147.997 178.697L141.502 174.69V166.675L147.997 162.667L154.497 166.675V174.69ZM67.6777 190.264L63.9446 192.568L60.2114 190.264V185.66L63.9446 183.356L67.6777 185.66V190.264ZM173.9 175.135L166.677 179.594L159.455 175.135V166.229L166.677 161.776L173.9 166.229V175.135ZM86.9345 190.619L82.6245 193.279L78.3144 190.619V185.299L82.6245 182.644L86.9345 185.299V190.619ZM164.351 192.282L157.339 196.605L150.328 192.282V183.636L157.339 179.313L164.351 183.636V192.282ZM38.9426 207.1L35.927 208.958L32.9114 207.1V203.378L35.927 201.519L38.9426 203.378V207.1ZM125.603 191.426L119.984 194.897L114.361 191.426V184.493L119.984 181.026L125.603 184.493V191.426ZM106.229 191L101.3 194.036L96.3753 191V184.924L101.3 181.883L106.229 184.924V191ZM135.114 174.259L129.322 177.83L123.525 174.259V167.106L129.322 163.534L135.114 167.106V174.259ZM144.953 191.841L138.66 195.719L132.37 191.841V184.082L138.66 180.2L144.953 184.082V191.841ZM105.91 156.245L101.3 159.086L96.6942 156.245V150.565L101.3 147.725L105.91 150.565V156.245ZM115.716 173.813L110.642 176.944L105.568 173.813V167.551L110.642 164.421L115.716 167.551V173.813ZM144.606 157.072L138.66 160.739L132.713 157.072V149.733L138.66 146.067L144.606 149.733V157.072ZM9.82298 154.587L7.90949 155.765L5.99132 154.587V152.223L7.90949 151.041L9.82298 152.223V154.587ZM48.1911 155.209L45.2646 157.012L42.3381 155.209V151.602L45.2646 149.798L48.1911 151.602V155.209ZM86.6531 155.89L82.6245 158.374L78.5911 155.89V150.921L82.6245 148.431L86.6531 150.921V155.89ZM67.4245 155.549L63.9446 157.698L60.4646 155.549V151.256L63.9446 149.112L67.4245 151.256V155.549ZM125.223 156.636L119.984 159.867L114.741 156.636V150.174L119.984 146.938L125.223 150.174V156.636ZM57.9415 172.741L54.6069 174.795L51.2677 172.741V168.623L54.6069 166.57L57.9415 168.623V172.741ZM77.1936 173.097L73.2822 175.506L69.3708 173.097V168.273L73.2822 165.858L77.1936 168.273V173.097ZM96.441 173.442L91.9621 176.207L87.4832 173.442V167.922L91.9621 165.157L96.441 167.922V173.442ZM164.037 157.533L157.339 161.665L150.642 157.533V149.273L157.339 145.145L164.037 149.273V157.533ZM57.2333 103.192L54.6069 104.815L51.9759 103.192V99.9461L54.6069 98.3281L57.2333 99.9461V103.192ZM38.755 172.425L35.927 174.169L33.099 172.425V168.934L35.927 167.196L38.755 168.934V172.425ZM19.5405 172.095L17.2471 173.507L14.9537 172.095V169.27L17.2471 167.857L19.5405 169.27V172.095ZM94.5087 34.0288L91.9621 35.5967L89.4155 34.0288V30.888L91.9621 29.3201L94.5087 30.888V34.0288ZM123.671 52.0121L119.984 54.2864L116.293 52.0121V47.4637L119.984 45.1895L123.671 47.4637V52.0121ZM190.671 35.737L185.357 39.0081L180.048 35.737V29.1798L185.357 25.9037L190.671 29.1798V35.737ZM171.4 35.3713L166.677 38.2817L161.954 35.3713V29.5455L166.677 26.6351L171.4 29.5455V35.3713ZM132.91 34.67L129.322 36.8892L125.729 34.67V30.2418L129.322 28.0327L132.91 30.2418V34.67ZM152.138 35.0106L147.997 37.5654L143.861 35.0106V29.9062L147.997 27.3514L152.138 29.9062V35.0106ZM229.414 36.5886L222.717 40.7162L216.02 36.5886V28.3282L222.717 24.2006L229.414 28.3282V36.5886ZM27.9073 50.5494L26.5847 51.366L25.2669 50.5494V48.9214L26.5847 48.1049L27.9073 48.9214V50.5494ZM113.695 34.3394L110.642 36.2229L107.589 34.3394V30.5724L110.642 28.6939L113.695 30.5724V34.3394ZM18.9495 102.621L17.2471 103.668L15.5447 102.621V100.517L17.2471 99.4702L18.9495 100.517V102.621ZM85.2508 51.356L82.6245 52.9789L79.9934 51.356V48.1149L82.6245 46.4919L85.2508 48.1149V51.356ZM8.84279 50.314L7.90949 50.8901L6.97151 50.314V49.1569L7.90949 48.5808L8.84279 49.1569V50.314ZM46.9671 50.7849L45.2646 51.8369L43.5622 50.7849V48.686L45.2646 47.634L46.9671 48.686V50.7849ZM66.1113 51.0704L63.9446 52.4079L61.7825 51.0704V48.4005L63.9446 47.068L66.1113 48.4005V51.0704ZM210.026 36.1528L204.037 39.8446L198.048 36.1528V28.764L204.037 25.0722L210.026 28.764V36.1528ZM180.54 17.9691L176.019 20.7542L171.498 17.9691V12.3937L176.019 9.60352L180.54 12.3937V17.9691ZM161.312 17.6284L157.339 20.0779L153.367 17.6284V12.7293L157.339 10.2848L161.312 12.7293V17.6284ZM84.6177 16.4111L82.6245 17.6434L80.6313 16.4111V13.9516L82.6245 12.7193L84.6177 13.9516V16.4111ZM142.083 17.2928L138.66 19.4017L135.241 17.2928V13.0699L138.66 10.9611L142.083 13.0699V17.2928ZM103.724 16.6766L101.3 18.1694L98.8797 16.6766V13.6861L101.3 12.1884L103.724 13.6861V16.6766ZM199.769 18.3047L194.695 21.4355L189.625 18.3047V12.0531L194.695 8.92224L199.769 12.0531V18.3047ZM122.906 16.9822L119.984 18.7906L117.058 16.9822V13.3755L119.984 11.5722L122.906 13.3755V16.9822ZM18.1616 33.022L17.2471 33.583L16.3326 33.022V31.8949L17.2471 31.3338L18.1616 31.8949V33.022ZM56.2625 33.4828L54.6069 34.5047L52.942 33.4828V31.434L54.6069 30.4071L56.2625 31.434V33.4828ZM75.3692 33.7433L73.2822 35.0307L71.1998 33.7433V31.1735L73.2822 29.8862L75.3692 31.1735V33.7433ZM219.124 18.7255L213.375 22.272L207.629 18.7255V11.6373L213.375 8.09076L219.124 11.6373V18.7255ZM238.428 19.1061L232.054 23.0385L225.686 19.1061V11.2516L232.054 7.32428L238.428 11.2516V19.1061ZM257.783 19.5269L250.734 23.875L243.685 19.5269V10.8358L250.734 6.48773L257.783 10.8358V19.5269ZM37.2074 33.2474L35.927 34.0338L34.6467 33.2474V31.6694L35.927 30.878L37.2074 31.6694V33.2474ZM104.437 51.6716L101.3 53.6051L98.1668 51.6716V47.8044L101.3 45.8658L104.437 47.8044V51.6716ZM105.038 86.5963L101.3 88.8956L97.5665 86.5963V81.9877L101.3 79.6885L105.038 81.9877V86.5963ZM85.8042 86.2557L82.6245 88.2143L79.4447 86.2557V82.3284L82.6245 80.3698L85.8042 82.3284V86.2557ZM66.6178 85.9401L63.9446 87.5881L61.2713 85.9401V82.644L63.9446 80.9959L66.6178 82.644V85.9401ZM28.3294 85.364L26.5847 86.436L24.8448 85.364V83.22L26.5847 82.1481L28.3294 83.22V85.364ZM47.4595 85.6445L45.2646 86.9971L43.0698 85.6445V82.9395L45.2646 81.587L47.4595 82.9395V85.6445ZM9.26957 85.1286L7.90949 85.9702L6.54942 85.1286V83.4555L7.90949 82.6139L9.26957 83.4555V85.1286ZM124.294 86.952L119.984 89.6069L115.67 86.952V81.6321L119.984 78.9772L124.294 81.6321V86.952ZM38.0891 102.902L35.927 104.239L33.7603 102.902V100.237L35.927 98.8991L38.0891 100.237V102.902ZM201.729 88.6301L194.695 92.9681L187.66 88.6301V79.954L194.695 75.616L201.729 79.954V88.6301ZM211.03 71.323L204.037 75.641L197.04 71.323V62.702L204.037 58.389L211.03 62.702V71.323ZM143.593 87.3326L138.66 90.3783L133.726 87.3326V81.2514L138.66 78.2108L143.593 81.2514V87.3326ZM182.351 88.1943L176.019 92.0965L169.693 88.1943V80.3898L176.019 76.4875L182.351 80.3898V88.1943ZM162.963 87.7585L157.339 91.2249L151.716 87.7585V80.8256L157.339 77.3592L162.963 80.8256V87.7585ZM56.7971 68.3675L54.6069 69.72L52.4121 68.3675V65.6625L54.6069 64.305L56.7971 65.6625V68.3675ZM220.255 53.9758L213.375 58.2187L206.499 53.9758V45.4951L213.375 41.2522L220.255 45.4951V53.9758ZM37.6717 68.092L35.927 69.169L34.1824 68.092V65.938L35.927 64.861L37.6717 65.938V68.092ZM181.511 53.1242L176.019 56.5155L170.523 53.1242V46.3467L176.019 42.9604L181.511 46.3467V53.1242ZM191.641 70.8922L185.357 74.7693L179.072 70.8922V63.1378L185.357 59.2606L191.641 63.1378V70.8922ZM18.6072 67.8516L17.2471 68.6931L15.887 67.8516V66.1785L17.2471 65.3369L18.6072 66.1785V67.8516ZM200.857 53.535L194.695 57.332L188.541 53.535V45.9359L194.695 42.1389L200.857 45.9359V53.535ZM162.165 52.7135L157.339 55.684L152.514 52.7135V46.7625L157.339 43.7869L162.165 46.7625V52.7135ZM152.903 70.0356L147.997 73.0612L143.096 70.0356V63.9894L147.997 60.9688L152.903 63.9894V70.0356ZM172.263 70.4564L166.677 73.9028L161.096 70.4564V63.5686L166.677 60.1272L172.263 63.5686V70.4564ZM133.632 69.6749L129.322 72.3298L125.012 69.6749V64.355L129.322 61.7001L133.632 64.355V69.6749ZM142.918 52.3629L138.66 54.9827L134.406 52.3629V47.1131L138.66 44.4882L142.918 47.1131V52.3629ZM114.38 69.3193L110.642 71.6185L106.904 69.3193V64.7107L110.642 62.4114L114.38 64.7107V69.3193ZM75.9554 68.663L73.2822 70.3111L70.6136 68.663V65.3669L73.2822 63.7189L75.9554 65.3669V68.663ZM95.1418 65.0513L91.9621 63.0927L88.7823 65.0513V68.9786L91.9621 70.9373L95.1418 68.9786V65.0513Z" fill="black"/>
</g>
</g>
</svg>
