<svg width="1287" height="1116" viewBox="0 0 1287 1116" fill="none" xmlns="http://www.w3.org/2000/svg">
<path d="M763.726 801.188C729.336 825.094 693.648 837.75 659.33 838.037C625.778 838.318 545.82 802.385 496.893 745.448C464.481 707.724 450.757 666.594 457.211 626.51C463.086 590.026 439.492 551.432 418.674 517.38C394.846 478.401 374.268 444.74 398.033 420.99C429.299 389.745 471.757 389.031 520.924 388.203C581.935 387.172 651.08 386.005 718.586 325.839C749.773 298.031 782.544 295.609 813.351 318.823C886.757 374.141 929.955 559.885 889.122 644.635C861.362 702.245 825.304 750.76 784.836 784.948C777.872 790.833 770.825 796.25 763.726 801.188ZM458.185 626.667C451.783 666.458 465.424 707.307 497.643 744.802C546.382 801.531 625.955 837.333 659.32 837.052C700.492 836.708 743.674 818.427 784.2 784.198C824.565 750.099 860.539 701.698 888.231 644.208C928.914 559.771 885.888 374.719 812.757 319.615C782.372 296.719 750.039 299.13 719.242 326.573C651.466 386.984 582.122 388.156 520.94 389.188C471.992 390.01 429.711 390.724 398.737 421.682C375.518 444.885 395.908 478.245 419.518 516.865C440.424 551.063 464.117 589.823 458.185 626.667ZM768.643 803.724C731.523 829.526 692.763 842.984 655.45 842.854C637.143 842.792 609.205 833.526 580.721 818.073C548.664 800.682 518.81 777.193 496.658 751.932C461.94 712.333 446.419 669.339 451.778 627.589C456.289 592.422 434.523 555.406 413.471 519.615C389.653 479.115 367.158 440.865 392.731 415.068C424.799 382.823 468.377 382.75 518.836 382.672C581.237 382.578 651.95 382.469 720.919 320.995C752.893 292.495 786.502 290.016 818.101 313.828C893.065 370.313 937.247 559.844 895.601 646.281C867.226 705.167 829.794 754.714 787.33 789.568C781.158 794.635 774.924 799.354 768.643 803.724ZM406.513 404.776C401.961 407.938 397.596 411.578 393.435 415.766C368.398 441.021 390.705 478.958 414.325 519.12C435.461 555.057 457.315 592.219 452.757 627.719C447.44 669.177 462.877 711.906 497.403 751.287C534.856 794 608.976 841.708 655.455 841.87C698.851 842.021 744.242 823.672 786.705 788.813C829.054 754.047 866.403 704.609 894.711 645.854C936.211 559.729 892.195 370.896 817.513 314.62C786.336 291.125 753.174 293.578 721.58 321.734C713.58 328.865 705.554 335.177 697.528 340.755C636.06 383.49 574.19 383.578 518.836 383.662C475.185 383.729 436.705 383.787 406.513 404.776ZM773.627 806.167C734.45 833.401 692.518 848.24 651.58 847.672C632.606 847.412 605.804 838.484 578.039 823.177C547.955 806.594 519.216 783.891 497.122 759.255C471.054 730.188 441.086 683.938 446.346 628.672C449.575 594.792 428.586 557.844 408.289 522.109C383.45 478.38 359.992 437.078 387.429 409.156C420.315 375.896 465.002 376.479 516.747 377.156C580.533 377.99 652.825 378.938 723.268 316.156C756.023 286.948 790.471 284.417 822.867 308.833C899.382 366.49 944.549 559.802 902.086 647.927C868.981 716.635 823.549 771.464 773.627 806.167ZM401.518 398.563C396.862 401.802 392.393 405.537 388.127 409.849C361.216 437.234 384.497 478.224 409.143 521.62C429.513 557.484 450.58 594.578 447.325 628.766C442.096 683.672 471.919 729.677 497.856 758.599C535.398 800.458 604.851 846.042 651.596 846.688C692.32 847.245 734.07 832.469 773.07 805.359C822.851 770.76 868.158 716.063 901.195 647.495C943.502 559.688 898.507 367.068 822.268 309.615C790.294 285.521 756.294 288.037 723.914 316.891C653.205 379.927 580.7 378.974 516.731 378.135C471.955 377.557 432.481 377.042 401.518 398.563ZM778.783 808.813C737.028 837.839 691.929 853.5 647.711 852.49C606.226 851.542 541.997 814.984 498.31 767.453C447.278 711.922 438.929 661.922 440.914 629.755C442.924 597.141 422.674 560.38 403.096 524.833C377.174 477.76 352.69 433.302 382.127 403.24C415.768 368.88 461.601 370.13 514.669 371.578C579.851 373.359 653.737 375.375 725.606 311.313C759.158 281.406 794.435 278.823 827.627 303.828C864.393 331.537 896.591 391.755 913.757 464.917C930.935 538.141 928.997 607.167 908.57 649.563C875.382 718.443 829.565 773.516 778.783 808.813ZM441.403 629.787L441.893 629.818C439.924 661.792 448.237 711.51 499.033 766.787C542.56 814.141 606.487 850.563 647.731 851.505C691.731 852.505 736.648 836.906 778.221 808.01C828.867 772.813 874.554 717.875 907.674 649.141C928.007 606.943 929.919 538.162 912.789 465.146C895.674 392.203 863.612 332.193 827.023 304.625C794.257 279.932 759.403 282.505 726.252 312.052C654.106 376.375 580.007 374.349 514.632 372.568C461.799 371.125 416.174 369.885 382.825 403.932C353.898 433.474 378.216 477.62 403.955 524.354C423.601 560.026 443.919 596.912 441.888 629.813L441.403 629.787ZM783.69 811.448C738.414 842.922 690.31 858.74 643.841 857.307C606.622 856.162 553.158 827.979 510.799 787.182C487.987 765.219 469.148 740.391 456.315 715.391C441.726 686.964 434.716 658.516 435.481 630.833C436.346 599.464 416.836 563.057 397.966 527.844C370.908 477.354 345.356 429.662 376.825 397.323C411.257 361.943 458.205 363.849 512.56 366.057C579.148 368.766 654.612 371.839 727.945 306.474C762.283 275.865 798.398 273.224 832.382 298.833C869.919 327.12 902.794 388.49 920.315 463C937.862 537.589 935.893 607.948 915.049 651.203C884.836 713.912 843.257 766.526 794.815 803.349C791.127 806.156 787.419 808.854 783.69 811.448ZM391.653 386C386.737 389.422 382.028 393.396 377.528 398.016C346.565 429.833 371.955 477.214 398.836 527.38C417.768 562.703 437.341 599.234 436.466 630.865C435.705 658.375 442.679 686.662 457.195 714.943C469.976 739.849 488.752 764.583 511.481 786.479C553.679 827.115 606.882 855.188 643.872 856.328C693.94 857.865 745.919 839.287 794.216 802.573C842.539 765.839 884.018 713.354 914.164 650.787C934.908 607.724 936.851 537.615 919.356 463.234C901.882 388.938 869.148 327.776 831.794 299.63C798.226 274.339 762.549 276.953 728.601 307.219C720.533 314.412 712.44 320.781 704.336 326.412C638.497 372.182 571.981 369.474 512.523 367.052C465.528 365.135 424.091 363.453 391.653 386ZM788.783 814.057C740.799 847.412 689.549 864 639.971 862.125C601.007 860.651 548.33 832.083 505.763 789.359C458.002 741.417 430.403 684.037 430.049 631.922C429.841 601.781 411.054 565.87 392.888 531.135C365.877 479.505 337.95 426.109 371.523 391.412C406.757 355 454.81 357.573 510.455 360.552C578.44 364.188 655.487 368.307 730.283 301.641C765.414 270.323 802.362 267.63 837.143 293.844C875.45 322.708 908.997 385.229 926.882 461.094C944.794 537.047 942.794 608.734 921.533 652.854C890.705 716.844 847.747 770.464 797.31 807.932C794.476 810.031 791.638 812.073 788.783 814.057ZM386.685 379.766C381.648 383.266 376.83 387.344 372.226 392.099C339.153 426.287 366.914 479.354 393.757 530.682C411.981 565.516 430.825 601.537 431.033 631.912C431.388 683.771 458.877 740.901 506.455 788.662C548.856 831.224 601.278 859.672 640.002 861.135C692.304 863.12 746.502 844.443 796.716 807.141C847.028 769.766 889.882 716.266 920.638 652.427C941.804 608.495 943.778 537.057 925.919 461.318C908.08 385.672 874.674 323.359 836.544 294.63C802.185 268.74 765.669 271.417 730.935 302.375C722.836 309.594 714.7 315.995 706.565 321.651C639.268 368.438 571.216 364.787 510.398 361.531C462.294 358.958 419.877 356.693 386.685 379.766ZM793.914 816.682C743.226 851.922 688.804 869.276 636.096 866.938C595.351 865.135 543.471 836.229 500.705 791.5C454.539 743.214 426.804 685.443 424.617 633C423.408 604.094 405.341 568.828 387.872 534.729C359.643 479.63 330.455 422.656 366.221 385.495C402.247 348.068 451.408 351.297 508.341 355.037C577.721 359.604 656.367 364.776 732.622 296.797C768.528 264.781 806.325 262.031 841.908 288.844C880.981 318.287 915.205 381.958 933.45 459.172C951.721 536.49 949.695 609.505 928.018 654.495C896.575 719.755 852.237 774.391 799.799 812.495C797.841 813.922 795.877 815.318 793.914 816.682ZM381.705 373.537C376.554 377.115 371.627 381.297 366.924 386.182C331.653 422.833 360.679 479.49 388.747 534.281C397.523 551.417 406.596 569.13 413.419 585.776C421.065 604.448 425.049 619.885 425.601 632.964C427.778 685.172 455.414 742.708 501.419 790.823C544.013 835.375 595.632 864.167 636.138 865.964C690.664 868.375 747.06 849.635 799.216 811.708C851.523 773.698 895.752 719.188 927.127 654.073C948.705 609.281 950.711 536.51 932.487 459.406C914.294 382.412 880.205 318.948 841.31 289.641C806.153 263.146 768.799 265.885 733.278 297.542C656.705 365.797 577.851 360.609 508.273 356.031C459.049 352.792 415.653 349.938 381.705 373.537ZM799.07 819.328C745.69 856.438 688.086 874.552 632.226 871.755C589.648 869.63 538.586 840.417 495.638 793.625C451.132 745.135 423.263 686.984 419.185 634.083C417.049 606.422 400.481 573.495 382.935 538.641C353.408 479.974 322.877 419.307 360.919 379.583C397.737 341.13 448.007 345.026 506.221 349.542C577.002 355.026 657.231 361.25 734.961 291.958C771.653 259.245 810.289 256.438 846.669 283.849C886.513 313.87 921.408 378.698 940.018 457.255C958.653 535.943 956.591 610.287 934.497 656.135C902.44 722.672 856.726 778.318 802.294 817.063C801.221 817.828 800.143 818.583 799.07 819.328ZM420.169 634.01C424.231 686.693 452.002 744.63 496.362 792.958C539.138 839.568 589.95 868.656 632.278 870.776C689.033 873.615 747.622 854.818 801.721 816.26C856.013 777.62 901.622 722.099 933.606 655.714C955.601 610.063 957.638 535.958 939.054 457.49C920.497 379.146 885.742 314.531 846.075 284.641C810.122 257.547 771.935 260.333 735.617 292.698C657.586 362.266 577.122 356.026 506.143 350.526C448.185 346.031 398.122 342.146 361.632 380.266C324.075 419.49 354.445 479.839 383.82 538.198C401.408 573.146 418.018 606.151 420.169 634.01ZM804.252 821.995C748.185 860.969 687.382 879.839 628.356 876.578C583.888 874.12 533.658 844.651 490.544 795.729C447.789 747.214 419.799 688.693 413.752 635.167C410.768 608.76 394.898 576.766 378.096 542.896C362.919 512.292 347.221 480.646 340.336 451.339C332.513 418.063 337.513 392.656 355.612 373.667C393.221 334.198 444.601 338.76 504.091 344.042C576.278 350.453 658.086 357.719 737.299 287.12C774.799 253.693 814.257 250.844 851.429 278.854C892.044 309.458 927.612 375.432 946.58 455.344C965.575 535.391 963.487 611.068 940.976 657.781C908.304 725.594 861.211 782.25 804.783 821.62C804.612 821.745 804.429 821.875 804.252 821.995ZM414.731 635.057C420.757 688.385 448.658 746.714 491.283 795.078C534.226 843.802 584.205 873.146 628.408 875.589C688.2 878.896 749.226 858.891 803.58 821.109C858.622 782.854 906.83 726.375 940.086 657.354C962.497 610.839 964.565 535.401 945.617 455.568C926.7 375.88 891.268 310.109 850.83 279.641C814.08 251.948 775.054 254.781 737.95 287.859C729.726 295.193 721.461 301.698 713.19 307.443C641.544 357.255 568.898 350.792 504.002 345.026C444.768 339.766 393.612 335.229 356.325 374.349C316.388 416.255 348.205 480.417 378.981 542.458C395.82 576.412 411.726 608.474 414.731 635.057ZM809.32 824.745C752.325 864.365 687.872 885.198 624.487 881.396C578.752 878.651 528.07 848.188 485.429 797.813C445.148 750.224 416.32 689.828 408.32 636.25C404.57 611.13 389.424 580.24 373.388 547.537C342.461 484.458 307.403 412.969 350.31 367.75C388.721 327.271 441.2 332.495 501.966 338.552C575.549 345.885 658.955 354.208 739.638 282.281C777.914 248.162 818.221 245.245 856.19 273.859C897.575 305.042 933.82 372.172 953.148 453.427C972.507 534.839 970.382 611.849 947.461 659.427C913.981 728.912 865.242 785.87 809.32 824.745ZM408.81 636.177L409.299 636.104C417.273 689.51 446.018 749.719 486.185 797.177C528.648 847.344 579.08 877.682 624.549 880.412C687.705 884.203 751.95 863.422 808.757 823.938C864.549 785.162 913.164 728.339 946.575 659C969.398 611.625 971.497 534.859 952.19 453.656C932.914 372.615 896.804 305.698 855.601 274.646C818.054 246.354 778.19 249.25 740.294 283.021C659.294 355.229 575.658 346.896 501.867 339.537C441.356 333.51 389.101 328.307 351.023 368.438C308.596 413.156 343.487 484.318 374.273 547.104C390.346 579.88 405.523 610.839 409.299 636.109L408.81 636.177ZM814.481 827.604C755.065 868.906 687.388 890.51 620.622 886.214C572.908 883.135 523.075 852.479 480.294 799.88C442.007 752.807 413.075 692.042 402.893 637.333C398.466 613.547 384.07 583.943 368.83 552.599C336.33 485.76 299.492 410.01 345.007 361.839C384.216 320.344 437.794 326.234 499.836 333.068C574.83 341.318 659.82 350.667 741.981 277.443C781.039 242.62 822.19 239.646 860.955 268.859C903.106 300.625 940.028 368.906 959.711 451.516C979.44 534.292 977.283 612.635 953.945 661.073C920.294 730.912 871.148 788.219 814.481 827.604ZM361.768 348.635C356.179 352.526 350.825 357.109 345.721 362.516C300.679 410.193 337.356 485.62 369.716 552.167C384.987 583.573 399.408 613.234 403.862 637.156C414.013 691.703 442.872 752.302 481.06 799.255C523.664 851.641 573.247 882.172 620.679 885.224C687.221 889.51 754.685 867.969 813.919 826.797C870.45 787.505 919.476 730.328 953.054 660.641C976.299 612.396 978.424 534.302 958.752 451.74C939.117 369.349 902.341 301.276 860.367 269.646C822.023 240.755 781.315 243.698 742.638 278.177C734.304 285.604 725.94 292.188 717.565 298.01C643.028 349.823 567.325 341.484 499.731 334.047C446.065 328.141 398.742 322.938 361.768 348.635ZM819.856 830.135C817.346 831.88 814.815 833.599 812.268 835.281C750.263 876.266 682.648 895.542 616.747 891.031C582.054 888.656 529.325 871.276 475.132 801.938C439.06 755.787 410.023 694.662 397.461 638.422C392.461 616.026 378.856 587.906 364.45 558.135C330.226 487.396 291.435 407.214 339.7 355.927C379.711 313.417 434.388 319.984 497.7 327.583C574.091 336.76 660.669 347.156 744.315 272.604C784.158 237.078 826.153 234.052 865.716 263.865C908.643 296.208 946.231 365.641 966.273 449.594C986.367 533.74 984.174 613.412 960.419 662.714C927.31 731.438 878.825 789.146 819.856 830.135ZM356.783 342.422C351.08 346.38 345.627 351.068 340.424 356.599C292.622 407.396 331.257 487.25 365.346 557.703C379.773 587.526 393.403 615.698 398.429 638.203C410.961 694.307 439.924 755.287 475.914 801.328C529.882 870.375 582.325 887.682 616.82 890.042C682.502 894.542 749.898 875.318 811.726 834.453C814.263 832.776 816.794 831.063 819.294 829.323C878.132 788.427 926.497 730.859 959.539 662.281C983.2 613.177 985.356 533.755 965.32 449.823C945.33 366.083 907.872 296.859 865.132 264.651C825.987 235.156 784.45 238.162 744.976 273.333C736.591 280.813 728.164 287.443 719.737 293.302C643.757 346.125 566.539 336.839 497.586 328.563C442.81 321.984 394.513 316.193 356.783 342.422ZM825.06 832.901C821.664 835.266 818.231 837.573 814.763 839.828C750.82 881.391 681.013 900.76 612.882 895.844C561.757 892.156 512.33 860.391 469.94 803.979C435.898 758.672 407.497 698.719 392.039 639.5C386.575 618.578 373.815 592.162 360.304 564.198C343.091 528.563 323.586 488.177 315.07 450.542C305.268 407.219 311.591 374.333 334.398 350.005C375.195 306.49 430.981 313.724 495.565 322.104C573.362 332.193 661.539 343.63 746.658 267.76C787.299 231.531 830.122 228.453 870.487 258.87C914.174 291.792 952.44 362.375 972.846 447.682C993.299 533.188 991.075 614.188 966.908 664.354C933.664 733.359 884.768 791.396 825.06 832.901ZM351.789 336.198C345.981 340.24 340.424 345.026 335.122 350.682C312.554 374.755 306.31 407.349 316.033 450.328C324.523 487.854 344.007 528.188 361.195 563.771C374.721 591.781 387.502 618.24 392.992 639.255C408.424 698.354 436.763 758.177 470.731 803.385C512.945 859.563 562.127 891.193 612.955 894.859C680.872 899.76 750.471 880.448 814.226 839C878.481 797.234 930.961 736.698 966.018 663.932C990.096 613.964 992.289 533.203 971.888 447.912C951.539 362.818 913.408 292.443 869.898 259.656C829.955 229.563 787.575 232.62 747.315 268.5C738.872 276.026 730.393 282.703 721.903 288.604C644.481 342.422 565.742 332.203 495.445 323.083C439.554 315.833 390.283 309.443 351.789 336.198ZM830.268 835.693C825.987 838.667 821.648 841.563 817.257 844.37C751.388 886.521 679.382 905.984 609.013 900.667C555.752 896.635 507.205 864.792 464.726 806.01C422.263 747.245 397.554 677.141 386.612 640.583C380.82 621.24 368.976 596.776 356.44 570.875C320.07 495.734 274.804 402.214 329.101 344.094C370.695 299.568 427.575 307.474 493.435 316.63C572.632 327.635 662.398 340.12 749.002 262.922C790.435 225.984 834.096 222.859 875.257 253.87C919.716 287.37 958.653 359.109 979.414 445.76C1000.23 532.635 997.981 614.969 973.393 666C939.997 735.307 890.705 793.682 830.268 835.693ZM346.799 329.984C340.882 334.099 335.221 338.984 329.82 344.766C275.987 402.391 321.086 495.573 357.325 570.443C369.882 596.385 381.742 620.885 387.554 640.302C398.481 676.797 423.138 746.787 465.523 805.432C507.825 863.969 556.122 895.677 609.086 899.677C679.231 904.984 751.033 885.573 816.726 843.542C882.971 801.162 936.82 739.62 972.497 665.573C996.992 614.74 999.216 532.656 978.45 445.995C957.742 359.557 918.94 288.026 874.653 254.662C833.919 223.958 790.695 227.068 749.648 263.656C662.726 341.146 572.7 328.641 493.289 317.604C436.299 309.682 386.054 302.698 346.799 329.984ZM835.471 838.505C830.31 842.094 825.075 845.563 819.752 848.912C751.955 891.641 677.742 911.203 605.143 905.479C550.445 901.167 501.435 868.385 459.481 808.037C430.612 766.516 405.002 712.094 381.185 641.667C375.221 624.037 364.393 601.797 352.924 578.255C333.945 539.276 312.429 495.089 302.643 452.526C291.273 403.083 298.195 365.682 323.799 338.182C366.19 292.641 424.164 301.224 491.289 311.156C571.893 323.078 663.257 336.599 751.336 258.083C793.549 220.443 838.06 217.26 880.018 248.875C925.247 282.958 964.862 355.844 985.981 443.849C1007.16 532.089 1004.87 615.755 979.872 667.646C946.33 737.266 896.622 795.995 835.471 838.505ZM341.81 323.766C335.783 327.953 330.018 332.943 324.518 338.849C299.153 366.094 292.31 403.203 303.601 452.302C313.362 494.76 334.851 538.891 353.81 577.823C365.289 601.396 376.132 623.662 382.117 641.349C405.903 711.688 431.476 766.026 460.289 807.474C502.065 867.568 550.825 900.208 605.221 904.495C677.606 910.203 751.606 890.693 819.226 848.078C887.44 805.083 942.69 742.542 978.981 667.214C1003.89 615.521 1006.15 532.104 985.023 444.078C963.955 356.287 924.476 283.609 879.424 249.662C837.888 218.365 793.836 221.531 751.992 258.818C743.429 266.448 734.825 273.224 726.211 279.214C645.919 335.031 564.138 322.927 491.148 312.125C433.044 303.531 381.82 295.958 341.81 323.766ZM840.669 841.344C834.638 845.537 828.497 849.573 822.252 853.453C788.143 874.635 751.976 890.302 714.763 900C676.825 909.891 638.643 913.354 601.273 910.297C544.575 905.662 496.658 873.151 454.783 810.922C419.382 758.313 395.533 695.135 376.367 644.37L375.757 642.75C369.815 627.005 360.565 608.219 349.856 586.458C310.768 507.042 257.237 398.276 318.497 332.266C361.685 285.724 420.752 294.974 489.148 305.682C571.158 318.526 664.112 333.078 753.679 253.245C796.69 214.906 842.028 211.662 884.789 243.88C930.783 278.537 971.07 352.578 992.549 441.932C1014.09 531.542 1011.77 616.531 986.356 669.287C952.648 739.25 902.533 798.339 840.669 841.344ZM336.82 317.552C330.685 321.818 324.815 326.901 319.216 332.932C258.414 398.448 311.778 506.865 350.742 586.026C361.461 607.802 370.721 626.615 376.679 642.401L377.294 644.021C396.435 694.734 420.263 757.854 455.601 810.37C497.299 872.339 544.976 904.703 601.356 909.318C638.612 912.365 676.679 908.906 714.507 899.047C751.632 889.37 787.705 873.745 821.731 852.615C827.961 848.745 834.091 844.714 840.106 840.531C901.841 797.625 951.83 738.672 985.466 668.859C1010.79 616.302 1013.08 531.557 991.586 442.167C970.158 353.021 930.007 279.193 884.19 244.667C841.856 212.766 796.955 215.99 754.33 253.979C745.705 261.667 737.033 268.495 728.362 274.526C646.622 331.349 563.33 318.297 488.992 306.656C429.783 297.385 377.586 289.214 336.82 317.552ZM845.862 844.203C838.966 848.995 831.929 853.589 824.747 857.99C789.7 879.453 752.513 895.281 714.211 905.037C675.174 914.979 635.872 918.37 597.403 915.115C475.752 904.823 421.695 770.828 382.221 672.995C378.086 662.74 374.179 653.057 370.325 643.828C364.643 630.208 356.627 614.188 347.356 595.641C327.242 555.422 302.216 505.37 290.591 457.063C276.929 400.307 284.32 357.547 313.19 326.349C357.179 278.802 417.341 288.724 487.002 300.214C570.419 313.969 664.961 329.568 756.013 248.401C799.815 209.354 845.997 206.063 889.549 238.88C936.32 274.12 977.278 349.313 999.112 440.016C1021.01 530.99 1018.67 617.313 992.836 670.927C958.961 741.245 908.435 800.708 845.862 844.203ZM370.789 643.641L371.242 643.448C375.096 652.682 379.002 662.37 383.143 672.625C422.518 770.224 476.44 903.891 597.492 914.13C635.851 917.38 675.039 914 713.971 904.083C752.174 894.354 789.273 878.563 824.231 857.151C896.429 812.943 954.419 748.396 991.95 670.505C1017.69 617.083 1020.01 531.005 998.158 440.25C976.372 349.76 935.549 274.776 888.961 239.672C845.83 207.172 800.086 210.448 756.674 249.141C747.981 256.885 739.247 263.766 730.502 269.844C647.336 327.667 562.528 313.672 486.846 301.188C417.461 289.745 357.544 279.859 313.914 327.021C285.289 357.958 277.976 400.422 291.549 456.839C303.148 505.037 328.148 555.031 348.242 595.203C357.523 613.766 365.539 629.797 371.242 643.453L370.789 643.641ZM851.054 847.083C843.299 852.474 835.362 857.625 827.247 862.531C791.263 884.271 753.049 900.266 713.664 910.073C673.528 920.068 633.112 923.38 593.544 919.932C475.257 909.615 425.388 789.307 385.325 692.635C378.263 675.599 371.591 659.505 364.908 644.912C359.783 633.719 353.221 620.88 345.617 606.016C324.283 564.292 297.731 512.37 284.851 460.76C269.601 399.672 277.138 353.771 307.893 320.432C352.679 271.891 413.935 282.479 484.867 294.75C569.685 309.422 665.804 326.057 758.356 243.568C802.95 203.813 849.971 200.469 894.325 233.891C941.862 269.708 983.492 346.047 1005.68 438.109C1027.95 530.443 1025.57 618.094 999.32 672.578C965.263 743.26 914.32 803.104 851.054 847.083ZM365.356 644.708L365.799 644.5C372.492 659.109 379.164 675.214 386.231 692.255C426.195 788.682 475.929 908.688 593.622 918.953C633.086 922.391 673.393 919.083 713.424 909.12C752.711 899.339 790.836 883.38 826.731 861.688C900.908 816.875 960.278 751.323 998.429 672.146C1024.58 617.865 1026.93 530.458 1004.72 438.339C982.58 346.5 941.08 270.365 893.726 234.677C849.794 201.573 803.216 204.901 759.007 244.302C750.247 252.109 741.45 259.042 732.643 265.167C648.033 323.984 561.716 309.047 484.69 295.724C414.044 283.505 353.028 272.953 308.612 321.104C278.101 354.177 270.643 399.781 285.804 460.521C298.658 512.026 325.185 563.896 346.492 605.573C353.783 619.828 360.669 633.292 365.804 644.505L365.356 644.708ZM856.237 849.984C847.627 855.969 838.799 861.662 829.742 867.068C792.82 889.089 753.586 905.25 713.112 915.109C671.877 925.151 630.346 928.396 589.669 924.75C537.716 920.089 494.961 894.688 458.95 847.094C427.664 805.74 405.836 753.453 386.575 707.328C377.32 685.162 368.58 664.224 359.481 645.99C355.33 637.677 350.263 628.063 344.898 617.885C301.112 534.818 227.825 395.781 302.586 314.516C348.174 264.969 410.518 276.234 482.716 289.281C568.94 304.865 666.679 322.521 760.69 238.724C806.07 198.271 853.935 194.865 899.091 228.885C947.393 265.287 989.695 342.781 1012.25 436.182C1034.88 529.885 1032.47 618.87 1005.8 674.214C971.56 745.281 920.195 805.521 856.237 849.984ZM321.841 298.912C315.388 303.401 309.205 308.781 303.31 315.188C229.023 395.943 302.106 534.589 345.773 617.427C351.138 627.609 356.205 637.229 360.362 645.552C369.476 663.813 378.221 684.766 387.487 706.948C406.726 753.021 428.528 805.245 459.742 846.5C495.57 893.865 538.101 919.141 589.757 923.771C630.325 927.406 671.747 924.172 712.882 914.156C753.252 904.318 792.398 888.193 829.237 866.224C905.398 820.797 966.143 754.25 1004.91 673.792C1031.48 618.646 1033.87 529.906 1011.29 436.422C988.789 343.234 946.622 265.948 898.497 229.682C853.763 195.974 806.341 199.365 761.351 239.464C752.528 247.328 743.653 254.318 734.778 260.484C648.731 320.307 560.903 304.417 482.539 290.255C420.007 278.953 364.888 268.99 321.841 298.912ZM861.414 852.906C851.955 859.479 842.231 865.714 832.237 871.599C794.377 893.901 754.117 910.234 712.565 920.141C670.231 930.234 627.58 933.406 585.799 929.568C534.039 924.802 491.862 900.271 456.867 854.563C426.356 814.708 405.2 763.828 386.539 718.932C375.627 692.682 365.32 667.885 354.054 647.068C351.487 642.323 348.664 637.188 345.658 631.708C323.997 592.297 291.268 532.74 274.601 473.083C254.737 401.995 262.367 346.656 297.283 308.604C343.664 258.047 407.106 269.99 480.565 283.818C568.2 300.318 667.518 319.01 763.033 233.88C809.211 192.714 857.903 189.266 903.856 223.891C952.929 260.865 995.903 339.51 1018.81 434.266C1041.8 529.333 1039.36 619.651 1012.28 675.854C977.851 747.323 926.065 807.964 861.414 852.906ZM316.846 292.698C310.283 297.26 304.002 302.734 298.007 309.271C263.341 347.057 255.783 402.083 275.549 472.818C292.185 532.365 324.882 591.865 346.518 631.234C349.528 636.714 352.351 641.849 354.924 646.599C366.205 667.464 376.523 692.281 387.45 718.552C406.091 763.391 427.216 814.208 457.648 853.958C492.471 899.438 534.419 923.849 585.893 928.583C627.565 932.412 670.106 929.25 712.341 919.182C753.794 909.297 793.966 893 831.737 870.75C909.877 824.708 972.013 757.172 1011.4 675.427C1038.38 619.422 1040.8 529.354 1017.86 434.5C994.997 339.958 952.164 261.521 903.268 224.677C857.737 190.37 809.476 193.813 763.69 234.615C754.799 242.547 745.856 249.589 736.908 255.807C649.435 316.625 560.096 299.792 480.388 284.787C416.747 272.813 360.648 262.25 316.846 292.698ZM866.132 856.13C855.95 863.208 845.476 869.885 834.737 876.135C795.94 898.714 754.658 915.214 712.018 925.177C668.586 935.323 624.82 938.422 581.935 934.385C530.065 929.5 488.216 905.542 454.002 861.135C424.101 822.323 404.502 774.604 385.544 728.464C373.377 698.839 361.877 670.859 348.627 648.156C305.195 573.719 203.471 399.401 291.981 302.688C339.158 251.13 403.695 263.75 478.419 278.359C567.461 295.771 668.382 315.495 765.372 229.047C812.33 187.188 861.877 183.672 908.627 218.896C1015.33 299.297 1077.09 556.458 1018.76 677.5C998.606 719.344 972.19 757.87 940.257 792C917.815 815.995 892.981 837.469 866.132 856.13ZM311.851 286.49C305.185 291.125 298.799 296.698 292.705 303.354C204.695 399.531 306.153 573.406 349.487 647.656C362.768 670.422 374.273 698.432 386.461 728.089C423.893 819.219 466.325 922.51 582.028 933.401C624.804 937.427 668.466 934.333 711.799 924.214C754.336 914.271 795.533 897.813 834.242 875.281C845.148 868.932 855.752 862.177 866.028 855.031C931.231 809.714 983.32 748.802 1017.88 677.078C1045.28 620.203 1047.73 528.807 1024.43 432.589C1001.21 336.698 957.7 257.104 908.039 219.688C861.711 184.776 812.606 188.271 766.033 229.781C757.065 237.776 748.06 244.87 739.039 251.141C650.132 312.948 559.278 295.177 478.231 279.333C413.481 266.667 356.414 255.51 311.851 286.49ZM871.268 859.104C860.252 866.76 848.898 873.958 837.231 880.672C797.502 903.526 755.19 920.193 711.471 930.208C666.935 940.406 622.049 943.432 578.065 939.203C461.117 927.953 420.054 826.245 383.825 736.51C370.705 704.021 358.315 673.333 343.211 649.229C305.039 588.339 278.216 532.198 263.476 482.365C239.737 402.089 247.539 339.646 286.679 296.776C334.658 244.219 400.283 257.51 476.268 272.901C566.716 291.224 669.237 311.99 767.711 224.208C815.471 181.635 865.846 178.073 913.393 213.901C1021.68 295.495 1084.4 556.38 1025.25 679.151C1004.77 721.641 977.841 760.75 945.2 795.391C922.799 819.167 898.028 840.5 871.268 859.104ZM343.622 648.969L344.039 648.703C359.195 672.88 371.601 703.609 384.737 736.141C420.862 825.615 461.804 927.026 578.158 938.219C622.039 942.438 666.82 939.422 711.252 929.245C754.872 919.255 797.096 902.625 836.737 879.813C876.669 856.839 912.919 828.208 944.487 794.708C977.054 760.146 1003.92 721.12 1024.36 678.719C1083.36 556.271 1020.8 296.063 912.799 214.688C865.674 179.172 815.726 182.729 768.367 224.938C759.33 232.995 750.247 240.146 741.153 246.469C650.815 309.271 558.455 290.552 476.07 273.865C400.377 258.531 335.002 245.297 287.403 297.432C248.513 340.031 240.783 402.156 264.419 482.078C279.132 531.823 305.919 587.885 344.044 648.703L343.622 648.969ZM876.033 862.255C788.127 923.365 680.799 954.484 574.195 944.021C456.231 932.448 416.544 832.047 381.533 743.464C367.705 708.49 354.648 675.453 337.783 650.313C320.398 624.396 277.638 556.021 256.086 480.932C232.58 399.042 241.091 335.094 281.372 290.859C330.148 237.307 396.867 251.271 474.122 267.443C565.976 286.677 670.075 308.474 770.054 219.365C818.601 176.089 869.82 172.474 918.169 208.906C1028.03 291.693 1091.71 556.302 1031.73 680.792C996.122 754.698 941.45 816.781 876.033 862.255ZM301.862 274.068C294.981 278.849 288.393 284.615 282.106 291.521C242.065 335.484 233.632 399.12 257.033 480.662C278.549 555.609 321.247 623.885 338.601 649.76C355.528 674.99 368.606 708.073 382.45 743.104C417.362 831.422 456.929 931.521 574.294 943.037C680.653 953.479 787.752 922.417 875.471 861.448C940.757 816.068 995.299 754.125 1030.84 680.365C1090.67 556.193 1027.15 292.26 917.57 209.693C869.648 173.578 818.856 177.177 770.705 220.099C670.377 309.537 566.002 287.688 473.919 268.412C406.966 254.391 347.94 242.037 301.862 274.068ZM881.127 865.354C790.961 928.026 680.367 959.839 570.325 948.839C451.065 936.912 412.669 837.391 378.794 749.589C364.45 712.412 350.903 677.297 332.356 651.385C304.028 611.802 267.169 545.865 248.684 479.51C238.101 441.521 234.283 406.651 237.336 375.875C240.908 339.891 253.94 309.297 276.07 284.938C325.643 230.385 393.455 245.026 471.971 261.984C565.231 282.125 670.935 304.953 772.388 214.521C821.726 170.542 873.789 166.87 922.935 203.906C975.08 243.198 1020.74 326.448 1045.09 426.604C1069.53 527.141 1066.96 622.776 1038.21 682.432C1002.36 756.854 947.231 819.401 881.127 865.354ZM296.867 267.854C289.877 272.714 283.19 278.578 276.799 285.604C254.815 309.802 241.867 340.203 238.32 375.974C235.278 406.63 239.08 441.375 249.632 479.25C268.086 545.479 304.877 611.302 333.158 650.813C351.778 676.828 365.346 711.995 379.711 749.234C413.487 836.776 451.763 935.99 570.424 947.854C680.221 958.833 790.596 927.078 880.56 864.547C946.539 818.693 1001.53 756.281 1037.33 682.005C1097.98 556.109 1033.51 288.464 922.346 204.698C873.622 167.979 821.997 171.63 773.049 215.266C763.862 223.453 754.638 230.719 745.398 237.141C652.2 301.927 556.82 281.323 471.763 262.953C403.7 248.255 343.705 235.297 296.867 267.854ZM886.627 868.13C873.148 877.5 859.174 886.219 844.726 894.266C758.872 942.083 660.044 963.172 566.461 953.651C445.679 941.37 408.497 842.391 375.695 755.068C360.987 715.917 347.096 678.938 326.935 652.464C299.388 616.281 260.419 548.906 241.273 478.104C230.815 439.422 227.237 403.776 230.643 372.162C234.617 335.349 248.117 304.016 270.768 279.026C321.143 223.464 390.044 238.792 469.815 256.531C564.487 277.589 671.789 301.448 774.726 209.688C824.862 165 877.757 161.276 927.705 198.912C980.617 238.781 1026.96 323.188 1051.66 424.693C1076.46 526.589 1073.85 623.557 1044.69 684.078C1023.28 728.526 994.799 769.385 960.044 805.537C937.737 828.74 913.153 849.688 886.627 868.13ZM291.867 261.646C284.773 266.578 277.987 272.542 271.497 279.688C248.987 304.521 235.57 335.667 231.622 372.271C228.231 403.76 231.799 439.281 242.226 477.849C261.336 548.516 300.221 615.76 327.721 651.87C347.966 678.458 361.882 715.505 376.617 754.724C409.32 841.781 446.382 940.453 566.56 952.677C659.945 962.177 758.565 941.125 844.242 893.406C887.033 869.578 925.757 839.787 959.336 804.854C994.013 768.781 1022.43 728.005 1043.8 683.651C1072.87 623.333 1075.44 526.615 1050.7 424.932C1026.05 323.641 979.846 239.443 927.112 199.703C877.586 162.385 825.112 166.099 775.382 210.427C766.127 218.677 756.825 226.005 747.507 232.484C652.877 298.271 555.997 276.714 469.601 257.5C400.435 242.115 339.471 228.557 291.867 261.646ZM891.737 871.167C877.445 881.099 862.596 890.323 847.226 898.797C759.466 947.182 658.382 968.375 562.591 958.474C440.117 945.813 404.086 847.12 372.294 760.042C357.351 719.094 343.231 680.417 321.513 653.547C262.356 580.339 166.117 382.912 265.466 273.115C316.643 216.557 386.627 232.557 467.664 251.083C563.742 273.047 672.638 297.938 777.07 204.849C827.987 159.458 881.731 155.677 932.476 193.917C986.158 234.365 1033.16 319.922 1058.23 422.781C1083.39 526.042 1080.75 624.339 1051.17 685.724C1029.44 730.818 1000.45 772.271 964.992 808.917C942.711 831.953 918.19 852.776 891.737 871.167ZM322.278 652.922C344.101 679.922 358.247 718.677 373.221 759.698C404.914 846.505 440.83 944.891 562.695 957.49C658.283 967.37 759.164 946.219 846.747 897.927C890.487 873.813 930.033 843.635 964.289 808.229C999.669 771.656 1028.61 730.297 1050.29 685.292C1079.77 624.104 1082.38 526.057 1057.27 423.01C1032.26 320.365 985.388 235.016 931.882 194.703C881.56 156.781 828.252 160.542 777.726 205.578C768.393 213.901 759.018 221.292 749.622 227.818C653.565 294.599 555.179 272.094 467.445 252.042C386.711 233.583 316.992 217.646 266.2 273.771C167.273 383.099 263.289 579.917 322.278 652.922ZM896.841 874.219C881.742 884.714 866.023 894.427 849.721 903.323C760.065 952.281 656.716 973.573 558.726 963.292C434.414 950.24 399.476 851.615 368.658 764.599C353.575 722.005 339.325 681.771 316.091 654.62C287.195 620.849 246.372 553.63 226.419 475.328C210.934 414.573 204.221 329.146 260.169 267.198C312.138 209.646 383.216 226.318 465.513 245.63C562.997 268.5 673.481 294.427 779.408 200.005C831.117 153.917 885.705 150.078 937.252 188.922C991.7 229.948 1039.38 316.656 1064.8 420.865C1090.32 525.49 1087.65 625.115 1057.66 687.365C1035.62 733.109 1006.11 775.146 969.945 812.302C947.69 835.162 923.221 855.88 896.841 874.219ZM316.841 653.974C340.19 681.266 354.466 721.583 369.586 764.266C385.283 808.589 401.523 854.427 429.502 891.354C461.283 933.297 503.586 956.505 558.83 962.302C656.622 972.568 759.768 951.313 849.252 902.453C893.945 878.052 934.315 847.484 969.237 811.609C1005.33 774.531 1034.77 732.583 1056.77 686.932C1086.66 624.885 1089.31 525.505 1063.84 421.094C1038.47 317.099 990.924 230.599 936.658 189.703C885.533 151.177 831.388 154.99 780.065 200.74C770.658 209.125 761.2 216.578 751.731 223.156C654.242 290.932 554.356 267.484 465.289 246.583C383.289 227.344 312.476 210.729 260.893 267.854C205.242 329.479 211.945 414.557 227.372 475.078C246.013 548.208 285.737 617.625 316.841 653.974ZM901.94 877.276C886.044 888.328 869.45 898.537 852.221 907.854C760.658 957.375 655.054 978.771 554.856 968.104C428.591 954.667 394.711 855.932 364.815 768.823C349.674 724.698 335.377 683.026 310.669 655.693C278.648 620.281 237.882 550.354 218.976 473.958C191.242 361.859 223.184 296.432 254.862 261.281C307.632 202.724 379.799 220.083 463.356 240.177C562.252 263.958 674.33 290.917 781.747 195.167C834.252 148.359 889.674 144.479 942.023 183.927C997.237 225.531 1045.59 313.391 1071.37 418.948C1097.25 524.943 1094.54 625.901 1064.14 689.01C1041.78 735.412 1011.76 778.031 974.893 815.688C952.658 838.385 928.252 858.99 901.94 877.276ZM276.882 243.016C269.471 248.167 262.377 254.422 255.596 261.938C224.075 296.912 192.304 362.042 219.934 473.719C238.799 549.948 279.466 619.708 311.398 655.031C336.242 682.51 350.575 724.276 365.752 768.5C380.981 812.891 396.731 858.787 424.575 895.792C456.19 937.818 498.841 961.151 554.966 967.125C654.966 977.771 760.367 956.412 851.757 906.99C897.403 882.302 938.596 851.349 974.19 814.99C1010.98 777.412 1040.94 734.88 1063.26 688.578C1093.56 625.672 1096.24 524.964 1070.41 419.182C1044.68 313.839 996.471 226.182 941.429 184.714C889.507 145.583 834.513 149.464 782.408 195.906C772.919 204.365 763.393 211.87 753.846 218.505C654.929 287.266 553.533 262.88 463.132 241.135C390.648 223.708 326.757 208.344 276.882 243.016ZM907.033 880.349C890.336 891.958 872.877 902.651 854.721 912.38C761.257 962.469 653.388 983.969 550.987 972.922C422.664 959.078 389.799 860.099 360.804 772.771C345.685 727.219 331.398 684.188 305.242 656.766C272.33 622.255 230.586 551.927 211.528 472.604C201.565 431.125 198.976 392.344 203.841 357.349C209.419 317.203 224.799 282.891 249.559 255.365C303.138 195.818 376.388 213.849 461.205 234.729C561.507 259.417 675.169 287.412 784.091 190.328C837.377 142.823 893.643 138.88 946.794 178.927C1002.78 221.115 1051.8 310.125 1077.93 417.031C1104.18 524.391 1101.44 626.682 1070.63 690.651C1047.96 737.703 1017.41 780.906 979.841 819.063C957.632 841.615 933.273 862.109 907.033 880.349ZM271.882 236.807C264.367 242.037 257.164 248.386 250.294 256.026C217.966 291.953 185.169 358.656 212.487 472.37C231.502 551.516 273.132 621.672 305.955 656.089C332.263 683.672 346.58 726.797 361.742 772.458C376.518 816.964 391.794 862.979 419.528 900.12C451.023 942.297 494.054 965.787 551.096 971.938C653.299 982.969 760.966 961.505 854.252 911.51C900.851 886.537 942.867 855.203 979.132 818.37C1016.63 780.292 1047.11 737.177 1069.73 690.219C1100.46 626.448 1103.16 524.406 1076.97 417.266C1050.89 310.568 1002.01 221.766 946.195 179.714C893.471 139.979 837.648 143.901 784.742 191.063C775.179 199.589 765.57 207.156 755.945 213.849C655.606 283.599 552.705 258.266 460.971 235.688C387.382 217.573 322.523 201.609 271.882 236.807ZM912.127 883.438C894.632 895.599 876.304 906.771 857.221 916.912C761.851 967.563 651.726 989.167 547.122 977.74C416.658 963.484 384.778 864.141 356.653 776.495C341.606 729.594 327.393 685.297 299.82 657.844C265.966 624.13 223.231 553.365 204.075 471.26C194.237 429.073 191.898 389.505 197.132 353.662C203.112 312.672 218.971 277.609 244.257 249.448C298.622 188.912 372.971 207.615 459.049 229.281C560.757 254.88 676.039 283.875 786.429 185.49C840.518 137.271 897.617 133.281 951.565 173.932C1008.31 216.693 1058.01 306.854 1084.5 415.115C1111.11 523.844 1108.34 627.464 1077.11 692.292C1054.12 740 1023.06 783.792 984.783 822.448C962.606 844.849 938.299 865.245 912.127 883.438ZM300.513 657.146C328.257 684.771 342.507 729.177 357.591 776.193C371.924 820.859 386.747 867.047 414.393 904.365C445.783 946.745 489.237 970.427 547.226 976.76C651.638 988.167 761.565 966.604 856.752 916.042C904.304 890.781 947.148 859.063 984.08 821.75C1022.28 783.172 1053.28 739.474 1076.22 691.865C1107.36 627.229 1110.1 523.859 1083.54 415.349C1057.11 307.302 1007.54 217.349 950.966 174.714C897.445 134.385 840.778 138.359 787.08 186.224C777.44 194.818 767.752 202.453 758.049 209.198C656.278 279.943 551.882 253.656 458.81 230.234C373.039 208.646 298.961 190 244.992 250.104C219.836 278.12 204.059 313.005 198.106 353.802C192.888 389.526 195.221 428.969 205.033 471.031C224.148 552.953 266.763 623.531 300.513 657.146ZM917.211 886.531C898.924 899.245 879.731 910.901 859.716 921.438C762.45 972.656 650.06 994.365 543.252 982.557C410.58 967.891 379.658 868.083 352.382 780.026C337.455 731.854 323.362 686.354 294.393 658.922C259.565 625.938 215.82 554.708 196.612 469.932C186.893 427.042 184.809 386.682 190.419 349.974C196.804 308.146 213.138 272.333 238.95 243.537C294.117 181.995 369.554 201.38 456.893 223.833C560.007 250.339 676.872 280.38 788.763 180.651C843.638 131.724 901.586 127.682 956.33 168.932C1013.85 212.276 1064.22 303.589 1091.06 413.198C1118.03 523.292 1115.23 628.24 1083.58 693.932C1060.28 742.292 1028.71 786.667 989.726 825.823C967.575 848.089 943.315 868.385 917.211 886.531ZM295.075 658.203C324.231 685.813 338.362 731.432 353.325 779.734C367.226 824.604 381.601 871 409.179 908.537C440.497 951.167 484.388 975.057 543.362 981.578C649.976 993.365 762.164 971.698 859.257 920.568C907.763 895.026 951.424 862.917 989.033 825.135C1027.93 786.052 1059.45 741.766 1082.7 693.51C1114.26 628.016 1117.03 523.318 1090.12 413.438C1063.32 304.042 1013.09 212.932 955.747 169.724C901.419 128.787 843.914 132.818 789.424 181.385C779.705 190.047 769.929 197.75 760.153 204.547C656.955 276.297 551.06 249.057 456.653 224.787C369.622 202.417 294.466 183.099 239.69 244.193C214.002 272.844 197.757 308.484 191.393 350.125C185.809 386.703 187.888 426.943 197.58 469.714C216.742 554.287 260.356 625.323 295.075 658.203ZM922.294 889.641C903.216 902.896 883.164 915.026 862.221 925.964C763.049 977.75 648.398 999.557 539.388 987.37C404.45 972.292 374.466 871.938 348.013 783.396C333.252 734.01 319.32 687.359 288.971 659.99C245.914 621.156 205.799 544.25 189.158 468.615C179.565 425.01 177.731 383.854 183.711 346.292C190.507 303.615 207.309 267.052 233.653 237.615C289.622 175.078 366.138 195.146 454.737 218.38C559.257 245.797 677.721 276.87 791.106 175.802C846.773 126.177 905.56 122.078 961.106 163.938C1019.4 207.854 1070.43 300.318 1097.64 411.281C1124.97 522.74 1122.14 629.016 1090.07 695.578C1066.46 744.583 1034.36 789.542 994.679 829.203C972.544 851.333 948.33 871.537 922.294 889.641ZM256.893 218.182C249.059 223.63 241.554 230.271 234.388 238.276C208.174 267.568 191.45 303.964 184.684 346.448C178.726 383.885 180.549 424.922 190.122 468.401C206.721 543.849 246.716 620.552 289.632 659.255C320.185 686.813 334.158 733.589 348.955 783.109C362.435 828.219 376.372 874.859 403.893 912.646C435.158 955.568 479.513 979.688 539.497 986.396C648.315 998.563 762.768 976.787 861.763 925.094C911.216 899.266 955.705 866.771 993.987 828.51C1033.59 788.927 1065.62 744.057 1089.18 695.151C1121.15 628.792 1123.96 522.76 1096.68 411.516C1069.53 300.771 1018.63 208.51 960.518 164.724C905.388 123.182 847.028 127.281 791.763 176.542C781.966 185.276 772.112 193.042 762.252 199.896C657.632 272.63 550.231 244.448 454.492 219.339C377.591 199.172 309.815 181.396 256.893 218.182ZM927.367 892.755C907.507 906.557 886.591 919.162 864.716 930.495C763.648 982.849 646.737 1004.76 535.518 992.193C398.263 976.682 369.195 875.714 343.554 786.625C329.002 736.078 315.257 688.333 283.549 661.063C257.57 638.719 232.19 602.313 212.08 558.542C190.299 511.125 177.106 460.568 173.94 412.339C169.153 339.359 187.966 276.896 228.351 231.698C254.309 202.641 286.153 189.26 328.544 189.594C366.382 189.891 408.257 201.083 452.586 212.938C558.513 241.255 678.565 273.359 793.445 170.964C849.888 120.641 909.528 116.479 965.882 158.938C1024.93 203.432 1076.64 297.052 1104.21 409.365C1131.89 522.193 1129.03 629.802 1096.55 697.219C1072.62 746.88 1040.01 792.422 999.627 832.583C977.513 854.583 953.346 874.698 927.367 892.755ZM251.898 211.974C243.961 217.495 236.351 224.234 229.086 232.359C188.882 277.354 170.153 339.568 174.924 412.276C178.086 460.385 191.242 510.823 212.976 558.13C233.023 601.771 258.315 638.063 284.19 660.313C316.122 687.776 329.903 735.656 344.497 786.349C357.56 831.724 371.065 878.641 398.549 916.708C429.773 959.948 474.612 984.318 535.627 991.208C646.648 1003.76 763.362 981.88 864.257 929.615C914.669 903.505 959.976 870.625 998.929 831.885C1039.24 791.802 1071.78 746.349 1095.66 696.792C1128.05 629.573 1130.88 522.214 1103.25 409.599C1075.74 297.5 1024.16 204.094 965.283 159.724C909.356 117.583 850.164 121.729 794.096 171.703C784.221 180.505 774.289 188.333 764.346 195.24C658.294 268.974 549.398 239.839 452.325 213.885C374.325 193.037 305.58 174.656 251.898 211.974ZM932.44 895.88C911.799 910.229 890.028 923.297 867.221 935.021C764.247 987.938 645.075 1009.95 531.653 997.01C392.033 981.073 363.867 879.427 339.023 789.74C324.705 738.078 311.185 689.281 278.127 662.135C251.914 640.615 226.32 604.912 206.059 561.604C184.367 515.229 170.914 465.135 167.164 416.734C162.987 362.885 169.294 286.047 223.054 225.787C249.382 196.276 281.669 182.76 324.658 183.255C363.028 183.698 405.487 195.255 450.429 207.495C557.768 236.724 679.429 269.849 795.789 166.13C853.039 115.089 913.507 110.88 970.658 153.943C1030.48 199.021 1082.86 293.792 1110.78 407.453C1138.83 521.646 1135.93 630.583 1103.04 698.865C1078.79 749.177 1045.67 795.307 1004.58 835.969C982.481 857.839 958.356 877.865 932.44 895.88ZM246.903 205.766C238.856 211.365 231.148 218.193 223.789 226.443C170.257 286.443 163.987 363 168.143 416.662C171.888 464.943 185.309 514.922 206.955 561.188C227.153 604.365 252.653 639.943 278.752 661.375C312.054 688.714 325.617 737.662 339.971 789.474C352.622 835.141 365.705 882.354 393.164 920.724C424.356 964.313 469.695 988.943 531.763 996.031C644.992 1008.95 763.966 986.974 866.768 934.146C918.132 907.75 964.263 874.484 1003.89 835.271C1044.9 794.682 1077.96 748.651 1102.15 698.438C1134.95 630.359 1137.82 521.667 1109.82 407.688C1081.96 294.24 1029.71 199.677 970.065 154.734C913.341 111.99 853.304 116.188 796.44 166.865C786.481 175.75 776.476 183.63 766.45 190.599C658.981 265.307 548.57 235.24 450.174 208.448C371.065 186.906 301.346 167.927 246.903 205.766ZM937.507 899.016C916.091 913.901 893.455 927.443 869.716 939.547C764.846 993.037 643.408 1015.15 527.783 1001.83C385.757 985.464 358.487 883.083 334.424 792.755C320.377 740.016 307.106 690.198 272.705 663.208C216.179 618.865 168.955 517.109 160.419 421.266C155.362 364.432 161.195 283.359 217.747 219.875C244.44 189.912 277.174 176.255 320.763 176.912C359.664 177.5 402.705 189.427 448.278 202.052C557.023 232.188 680.289 266.328 798.127 161.292C856.169 109.542 917.481 105.281 975.435 148.948C1036.02 194.604 1089.08 290.526 1117.35 405.537C1145.76 521.099 1142.83 631.365 1109.52 700.51C1084.97 751.474 1051.32 798.188 1009.53 839.349C987.445 861.099 963.362 881.042 937.507 899.016ZM273.31 662.432C307.971 689.63 321.278 739.599 335.377 792.5C347.622 838.474 360.283 886.016 387.731 924.703C418.914 968.667 464.757 993.573 527.898 1000.84C643.33 1014.15 764.565 992.068 869.268 938.667C921.586 911.99 968.539 878.333 1008.84 838.646C1050.55 797.563 1084.13 750.943 1108.63 700.078C1141.85 631.135 1144.75 521.109 1116.39 405.771C1088.17 290.974 1035.25 195.26 974.841 149.734C917.315 106.385 856.435 110.63 798.783 162.026C788.742 170.974 778.653 178.927 768.549 185.948C659.648 261.662 547.752 230.635 448.013 203C355.955 177.49 276.45 155.453 218.487 220.526C162.169 283.75 156.362 364.537 161.403 421.177C171.049 529.49 224.997 624.531 273.31 662.432ZM942.57 902.156C920.377 917.583 896.888 931.583 872.216 944.073C765.44 998.12 641.747 1020.34 523.919 1006.64C379.45 989.844 353.06 886.693 329.773 795.682C316.007 741.901 303.013 691.099 267.278 664.281C240.617 644.271 214.622 610 194.091 567.781C172.544 523.484 158.586 474.422 153.721 425.896C149.7 385.792 152.096 347.917 160.841 313.328C170.533 274.99 187.898 241.552 212.445 213.953C239.507 183.531 272.685 169.745 316.867 170.563C356.299 171.297 399.929 183.589 446.117 196.604C556.268 227.646 681.132 262.828 800.461 156.448C859.299 104 921.45 99.6772 980.2 143.948C1041.56 190.182 1095.28 287.255 1123.91 403.615C1152.68 520.537 1149.73 632.141 1116 702.146C1091.13 753.76 1056.97 801.057 1014.47 842.724C992.414 864.365 968.367 884.224 942.57 902.156ZM267.872 663.495C303.882 690.521 316.919 741.484 330.721 795.438C342.57 841.745 354.825 889.625 382.252 928.651C413.435 973.005 459.81 998.198 524.028 1005.66C641.664 1019.34 765.164 997.156 871.768 943.193C925.033 916.229 972.815 882.188 1013.78 842.026C1056.19 800.443 1090.29 753.234 1115.11 701.724C1148.74 631.917 1151.67 520.563 1122.96 403.854C1094.38 287.708 1040.78 190.839 979.606 144.74C921.278 100.787 859.56 105.094 801.117 157.182C790.992 166.208 780.825 174.219 770.638 181.302C660.31 258 546.908 226.031 445.846 197.552C352.528 171.255 271.94 148.547 213.179 214.604C188.737 242.083 171.45 275.38 161.794 313.568C153.075 348.042 150.69 385.802 154.7 425.792C159.549 474.203 173.476 523.151 194.976 567.349C215.445 609.432 241.33 643.573 267.872 663.495ZM947.627 905.313C924.664 921.271 900.32 935.734 874.716 948.599C766.039 1003.21 640.086 1025.54 520.049 1011.46C373.112 994.229 347.591 890.26 325.07 798.537C311.622 743.745 298.914 691.984 261.856 665.354C205.257 624.682 158.117 528.391 147.221 431.188C142.513 389.182 144.643 349.359 153.549 312.839C163.429 272.328 181.461 237.068 207.143 208.042C234.622 177.224 268.278 163.333 313.065 164.328C353.033 165.214 397.221 177.859 444.007 191.25C555.533 223.167 681.95 259.339 802.804 151.615C862.424 98.4636 925.424 94.0834 984.981 138.958C1047.1 185.771 1101.5 283.995 1130.49 401.708C1159.62 519.995 1156.63 632.927 1122.48 703.797C1097.3 756.068 1062.63 803.948 1019.42 846.115C997.377 867.63 973.372 887.417 947.627 905.313ZM231.794 187.302C223.476 193.083 215.502 200.151 207.877 208.698C182.304 237.604 164.351 272.724 154.507 313.078C145.627 349.484 143.507 389.188 148.2 431.078C159.065 528.026 206.039 624.037 262.429 664.557C299.783 691.396 312.533 743.323 326.028 798.302C337.481 844.953 349.32 893.193 376.752 932.573C407.935 977.339 454.846 1002.82 520.164 1010.48C640.007 1024.54 765.768 1002.26 874.273 947.724C928.492 920.474 977.096 886.052 1018.74 845.412C1061.85 803.323 1096.46 755.537 1121.59 703.375C1155.64 632.703 1158.61 520.021 1129.53 401.948C1100.59 284.448 1046.33 186.427 984.382 139.75C925.252 95.1928 862.69 99.5522 803.455 152.349C793.242 161.458 782.987 169.542 772.705 176.688C660.95 254.375 546.091 221.495 443.731 192.203C361.268 168.599 288.612 147.807 231.794 187.302ZM952.685 908.469C928.955 924.964 903.747 939.885 877.216 953.125C766.638 1008.31 638.419 1030.74 516.179 1016.28C366.747 998.609 342.086 893.797 320.33 801.318C307.205 745.542 294.81 692.854 256.429 666.427C200.106 627.641 152.471 532.849 140.591 435.906C129.179 342.76 150.929 259.734 201.836 202.125C229.679 170.854 263.783 156.828 309.164 157.979C349.664 159.01 394.44 172.026 441.846 185.802C554.783 218.63 682.773 255.849 805.143 146.771C865.56 92.9063 929.398 88.4845 989.747 133.958C1052.64 181.349 1107.71 280.724 1137.05 399.792C1166.55 519.443 1163.52 633.708 1128.96 705.438C1103.47 758.359 1068.27 806.823 1024.37 849.49C1002.34 870.906 978.372 890.609 952.685 908.469ZM226.799 181.089C218.372 186.948 210.294 194.109 202.575 202.781C151.856 260.177 130.195 342.927 141.575 435.787C153.419 532.469 200.882 626.979 256.992 665.615C295.685 692.255 308.122 745.125 321.289 801.094C342.971 893.255 367.549 997.708 516.294 1015.3C638.346 1029.73 766.367 1007.34 876.773 952.245C931.945 924.714 981.372 889.901 1023.68 848.787C1067.51 806.203 1102.63 757.828 1128.08 705.01C1162.54 633.479 1165.54 519.469 1136.1 400.026C1106.8 281.177 1051.87 182.005 989.158 134.75C929.226 89.5886 865.82 94.0001 805.799 147.505C795.502 156.682 785.158 164.833 774.799 172.037C661.622 250.719 545.263 216.891 441.57 186.75C358.007 162.464 284.372 141.068 226.799 181.089ZM957.731 911.635C933.237 928.662 907.185 944.037 879.716 957.651C767.237 1013.4 636.757 1035.93 512.315 1021.09C360.362 1002.98 336.56 897.292 315.56 804.042C302.778 747.302 290.711 693.708 251.007 667.495C223.372 649.245 197.58 618.026 176.414 577.214C155.054 536.026 140.388 488.797 133.997 440.63C121.086 343.333 143.299 256.526 196.539 196.208C224.747 164.474 259.294 150.313 305.268 151.63C346.299 152.807 391.664 166.193 439.69 180.359C554.039 214.094 683.648 252.313 807.481 141.932C868.685 87.3751 933.372 82.8855 994.523 128.964C1058.18 176.932 1113.92 277.458 1143.63 397.875C1173.48 518.901 1170.42 634.49 1135.44 707.083C1109.63 760.656 1073.93 809.708 1029.32 852.87C1007.3 874.182 983.372 893.813 957.731 911.635ZM251.549 666.672C291.58 693.109 303.695 746.891 316.518 803.828C337.45 896.76 361.169 1002.09 512.429 1020.12C636.685 1034.93 766.966 1012.43 879.278 956.766C935.398 928.953 985.648 893.76 1028.63 852.167C1073.15 809.078 1108.79 760.12 1134.55 706.656C1169.43 634.26 1172.47 518.922 1142.67 398.109C1113.01 277.912 1057.41 177.589 993.929 129.75C933.2 83.9897 868.955 88.4584 808.138 142.667C797.763 151.917 787.33 160.135 776.888 167.396C662.283 247.073 544.435 212.287 439.403 181.307C342.356 152.677 258.539 127.943 197.273 196.865C144.221 256.964 122.096 343.49 134.971 440.505C141.346 488.557 155.976 535.672 177.283 576.76C198.377 617.427 224.054 648.521 251.549 666.672ZM962.783 914.813C937.523 932.37 910.612 948.193 882.216 962.177C767.836 1018.49 635.096 1041.13 508.445 1025.92C353.95 1007.36 331.002 900.766 310.752 806.719C298.33 749.042 286.601 694.563 245.586 668.568C188.809 632.589 141.325 542.875 127.424 445.328C120.778 398.703 122.2 352.094 131.528 310.537C142.033 263.776 162.122 223.318 191.237 190.297C219.809 158.104 254.804 143.802 301.372 145.287C342.935 146.609 388.882 160.359 437.528 174.917C553.289 209.552 684.476 248.818 809.82 137.094C871.82 81.8282 937.346 77.2865 999.304 123.969C1063.73 172.516 1120.14 274.193 1150.19 395.964C1180.41 518.354 1177.32 635.271 1141.92 708.729C1115.8 762.953 1079.58 812.589 1034.27 856.255C1012.26 877.458 988.372 897.026 962.783 914.813ZM246.112 667.734C287.476 693.948 299.247 748.625 311.716 806.51C331.893 900.234 354.768 1006.46 508.56 1024.93C635.023 1040.12 767.57 1017.52 881.778 961.292C938.856 933.193 989.929 897.615 1033.59 855.542C1078.81 811.958 1114.97 762.417 1141.04 708.297C1176.34 635.042 1179.4 518.37 1149.24 396.198C1119.23 274.646 1062.96 173.172 998.705 124.755C937.174 78.3907 872.096 82.9011 810.476 137.828C800.018 147.151 789.513 155.432 778.981 162.75C662.955 243.406 543.601 207.682 437.247 175.859C338.935 146.438 254.033 121.031 191.971 190.948C162.966 223.844 142.955 264.146 132.492 310.75C123.184 352.193 121.768 398.677 128.393 445.182C142.263 542.469 189.57 631.901 246.112 667.734ZM967.825 917.99C941.81 936.073 914.044 952.354 884.716 966.698C768.435 1023.58 633.429 1046.32 504.58 1030.73C347.523 1011.73 325.419 904.214 305.919 809.349C293.872 750.75 282.492 695.401 240.158 669.641C212.122 652.578 185.987 622.672 164.575 583.162C143.247 543.802 128.132 497.745 120.872 449.974C113.533 401.698 114.679 353.224 124.195 309.787C134.898 260.932 155.674 218.734 185.934 184.38C214.867 151.734 250.309 137.297 297.476 138.943C339.57 140.412 386.101 154.526 435.367 169.474C552.533 205.016 685.32 245.313 812.158 132.255C874.945 76.2813 941.315 71.6876 1004.08 118.974C1069.27 168.099 1126.35 270.932 1156.76 394.047C1187.34 517.802 1184.22 636.052 1148.41 710.37C1121.97 765.245 1085.23 815.469 1039.22 859.635C1017.22 880.745 993.362 900.24 967.825 917.99ZM211.825 162.443C203.075 168.526 194.69 175.984 186.669 185.031C156.523 219.26 135.825 261.302 125.158 309.995C115.664 353.318 114.518 401.667 121.841 449.828C129.086 497.484 144.164 543.427 165.44 582.688C186.768 622.047 212.778 651.823 240.669 668.797C283.367 694.781 294.789 750.333 306.882 809.151C326.315 903.688 348.341 1010.84 504.695 1029.75C633.362 1045.32 768.164 1022.61 884.283 965.818C942.31 937.432 994.205 901.469 1038.53 858.922C1084.46 814.833 1121.13 764.714 1147.52 709.943C1183.23 635.823 1186.33 517.823 1155.8 394.281C1125.44 271.375 1068.5 168.75 1003.48 119.76C941.143 72.7917 875.211 77.3647 812.815 132.99C802.273 142.385 791.674 150.74 781.07 158.115C663.617 239.771 542.768 203.089 435.08 170.417C348.216 144.063 271.669 120.844 211.825 162.443ZM972.862 921.182C946.091 939.792 917.476 956.516 887.216 971.229C769.033 1028.67 631.768 1051.52 500.711 1035.55C341.075 1016.1 319.815 907.635 301.06 811.938C289.393 752.438 278.382 696.234 234.731 670.708C177.362 637.156 130.101 552.313 114.336 454.547C96.9397 346.734 121.106 246.109 180.627 178.464C209.929 145.359 245.82 130.787 293.575 132.594C336.2 134.208 383.32 148.693 433.211 164.026C551.783 200.479 686.179 241.792 814.502 127.412C878.08 70.7292 945.294 66.0834 1008.85 113.974C1074.81 163.677 1132.56 267.662 1163.33 392.13C1194.27 517.25 1191.11 636.833 1154.89 712.01C1128.14 767.542 1090.88 818.344 1044.16 863.01C1022.18 884.031 998.356 903.458 972.862 921.182ZM206.768 156.271C197.737 162.542 189.309 170.146 181.367 179.115C122.044 246.537 97.9657 346.875 115.304 454.391C131.028 551.875 178.101 636.448 235.231 669.854C279.263 695.604 290.32 752.021 302.023 811.745C320.716 907.115 341.903 1015.21 500.83 1034.57C631.7 1050.51 768.768 1027.7 886.783 970.339C945.763 941.667 998.481 905.318 1043.48 862.297C1090.11 817.714 1127.29 767.005 1154 711.583C1190.13 636.604 1193.26 517.266 1162.37 392.359C1131.65 268.109 1074.04 164.333 1008.25 114.76C945.122 67.1876 878.367 71.8126 815.153 128.146C804.528 137.615 793.846 146.037 783.158 153.469C664.283 236.109 541.935 198.479 432.919 164.969C383.096 149.651 336.033 135.182 293.539 133.578C259.054 132.276 230.799 139.563 206.768 156.271ZM978.164 924.068C950.57 943.25 921.028 960.464 889.737 975.563C769.763 1033.45 630.226 1056.47 496.841 1040.36C334.664 1020.17 314.231 910.839 296.2 814.375C284.924 754.047 274.273 697.063 229.304 671.776C172.018 639.568 124.325 556.063 107.809 459.037C99.0543 407.604 99.6532 355.464 109.544 308.25C120.653 255.224 142.783 209.563 175.325 172.547C204.987 138.99 241.32 124.276 289.674 126.245C332.83 128.005 380.539 142.859 431.044 158.583C551.028 195.943 687.023 238.281 816.836 122.568C881.216 65.1824 949.263 60.4792 1013.62 108.974C1080.35 159.255 1138.77 264.391 1169.9 390.214C1201.19 516.698 1198.01 637.609 1161.37 713.651C1134.3 769.823 1096.54 821.188 1049.12 866.318C1027.23 887.162 1003.52 906.448 978.164 924.068ZM201.773 150.057C192.638 156.406 184.106 164.109 176.07 173.203C143.643 210.089 121.586 255.594 110.513 308.453C100.643 355.552 100.049 407.563 108.783 458.87C125.252 555.615 172.752 638.849 229.789 670.917C275.164 696.427 285.851 753.635 297.169 814.193C315.138 910.328 335.502 1019.28 496.961 1039.39C630.164 1055.47 769.502 1032.49 889.31 974.672C949.252 945.745 1002.79 909.052 1048.44 865.609C1095.77 820.557 1133.47 769.292 1160.48 713.229C1197.02 637.391 1200.18 516.724 1168.94 390.453C1137.87 264.844 1079.58 159.917 1013.03 109.766C949.091 61.5886 881.476 66.2813 817.492 123.307C806.783 132.854 796.023 141.339 785.247 148.828C664.95 232.464 541.101 193.885 430.752 159.526C380.31 143.823 332.664 128.99 289.638 127.234C254.716 125.807 226.106 133.141 201.773 150.057ZM983.179 927.292C954.836 946.995 924.455 964.646 892.242 980.099C770.356 1038.56 628.56 1061.68 492.976 1045.18C328.19 1024.56 308.596 914.234 291.304 816.896C280.435 755.693 270.169 697.88 223.882 672.849C195.257 657.365 168.606 629.292 146.82 591.667C125.445 554.755 109.705 510.412 101.294 463.417C91.8251 410.49 92.148 356.557 102.231 307.448C113.544 252.349 136.351 204.974 170.023 166.635C200.054 132.615 236.836 117.766 285.783 119.901C329.471 121.807 377.763 137.031 428.888 153.146C550.283 191.406 687.872 234.776 819.179 117.734C884.346 59.6407 953.242 54.8803 1018.4 103.979C1085.89 154.839 1144.99 261.125 1176.48 388.297C1208.13 516.151 1204.91 638.391 1167.86 715.297C1140.48 772.12 1102.19 824.068 1054.07 869.708C1032.18 890.464 1008.49 909.698 983.179 927.292ZM196.778 143.844C187.533 150.271 178.903 158.068 170.768 167.281C137.211 205.49 114.476 252.714 103.2 307.646C93.1376 356.635 92.8199 410.438 102.268 463.245C110.653 510.12 126.356 554.359 147.674 591.172C169.372 628.641 195.882 656.583 224.351 671.979C271.06 697.24 281.367 755.281 292.278 816.724C309.507 913.724 329.033 1023.67 493.096 1044.2C628.497 1060.68 770.096 1037.59 891.815 979.203C952.705 949.995 1007.07 912.912 1053.39 868.99C1101.43 823.438 1139.64 771.583 1166.97 714.865C1203.92 638.162 1207.12 516.167 1175.52 388.531C1144.09 261.573 1085.13 155.495 1017.81 104.766C953.07 55.9897 884.622 60.7136 819.836 118.464C809.049 128.083 798.195 136.635 787.341 144.188C665.617 228.813 540.273 189.281 428.596 154.078C377.528 137.984 329.299 122.781 285.742 120.885C250.382 119.344 221.414 126.719 196.778 143.844ZM988.195 930.521C959.106 950.74 927.882 968.833 894.737 984.635C770.945 1043.68 626.888 1066.89 489.106 1050.01C321.695 1028.95 302.94 917.62 286.393 819.396C275.935 757.328 266.06 698.703 218.455 673.922C160.341 643.667 112.955 564.646 94.7887 467.693C84.6012 413.318 84.648 357.62 94.9241 306.615C106.445 249.464 129.929 200.38 164.721 160.724C195.117 126.245 232.341 111.261 281.882 113.563C326.101 115.609 374.976 131.203 426.726 147.708C549.533 186.875 688.716 231.281 821.518 112.901C887.476 54.099 957.216 49.2917 1023.17 98.9949C1091.44 150.432 1151.2 257.87 1183.04 386.391C1215.06 515.609 1211.8 639.182 1174.34 716.948C1146.64 774.427 1107.85 826.964 1059.02 873.099C1037.13 893.766 1013.47 912.953 988.195 930.521ZM218.914 673.042C266.95 698.052 276.867 756.912 287.367 819.229C303.851 917.115 322.544 1028.06 489.226 1049.02C626.82 1065.89 770.685 1042.71 894.315 983.745C956.158 954.25 1011.35 916.781 1058.34 872.375C1107.08 826.323 1145.81 773.885 1173.45 716.516C1210.82 638.953 1214.05 515.625 1182.09 386.62C1150.29 258.313 1090.66 151.078 1022.58 99.7761C957.039 50.3959 887.747 55.1928 822.169 113.635C811.294 123.328 800.367 131.943 789.419 139.557C666.278 225.156 539.429 184.688 426.424 148.646C374.737 132.162 325.924 116.589 281.836 114.542C232.617 112.261 195.638 127.141 165.461 161.375C130.778 200.896 107.372 249.828 95.8876 306.807C85.6376 357.688 85.5855 413.255 95.7522 467.51C113.867 564.167 161.059 642.927 218.914 673.042ZM993.205 933.75C963.372 954.49 931.304 973.016 897.237 989.172C771.539 1048.79 625.221 1072.1 485.242 1054.82C315.19 1033.33 297.273 920.979 281.466 821.854C271.435 758.938 261.955 699.51 213.033 674.984C154.882 645.839 107.08 567.995 88.2834 471.839C64.6689 351.073 91.2626 232.552 159.424 154.802C190.174 119.87 227.851 104.75 277.987 107.208C322.737 109.406 372.2 125.365 424.565 142.26C548.783 182.333 689.58 227.75 823.862 108.052C890.617 48.547 961.19 43.6824 1027.95 93.9897C1096.98 146.005 1157.41 254.594 1189.61 384.464C1221.99 515.052 1218.71 639.958 1180.82 718.583C1152.81 776.714 1113.5 829.839 1063.97 876.479C1042.09 897.078 1018.44 916.208 993.205 933.75ZM186.794 131.417C177.33 137.995 168.492 145.99 160.164 155.453C92.2001 232.974 65.6897 351.177 89.247 471.651C107.992 567.516 155.591 645.094 213.471 674.104C262.846 698.854 272.367 758.526 282.44 821.703C298.195 920.484 316.049 1032.45 485.362 1053.84C625.158 1071.09 771.283 1047.81 896.815 988.281C959.606 958.5 1015.62 920.641 1063.29 875.755C1112.73 829.198 1151.98 776.177 1179.93 718.156C1217.72 639.729 1220.98 515.073 1188.66 384.703C1156.51 255.042 1096.21 146.656 1027.36 94.7761C961.018 44.7917 890.882 49.6355 824.518 108.787C813.56 118.557 802.539 127.24 791.507 134.912C666.945 221.51 538.606 180.089 424.263 143.198C371.961 126.323 322.56 110.386 277.94 108.193C241.711 106.417 212.033 113.875 186.794 131.417ZM998.211 936.99C967.638 958.24 934.731 977.208 899.742 993.708C772.127 1053.9 623.549 1077.31 481.372 1059.64C308.679 1037.72 291.596 924.339 276.528 824.297C266.924 760.542 257.851 700.318 207.606 676.057C178.382 661.943 151.2 635.505 129.018 599.604C107.497 564.781 91.1584 521.99 81.773 475.859C70.1532 418.745 69.6584 359.604 80.3459 304.828C92.2834 243.615 117.106 191.146 154.122 148.891C185.242 113.495 223.362 98.2397 274.091 100.865C319.372 103.208 369.419 119.537 422.403 136.823C548.033 177.802 690.424 224.24 826.2 103.219C893.752 43.0001 965.169 38.0834 1032.73 88.9949C1102.52 141.589 1163.63 251.333 1196.18 382.552C1228.92 514.505 1225.6 640.745 1187.3 720.229C1158.98 779.016 1119.15 832.724 1068.91 879.865C1047.03 900.396 1023.42 919.469 998.211 936.99ZM181.804 125.203C172.226 131.859 163.289 139.953 154.862 149.542C117.961 191.667 93.2157 243.979 81.3095 305.021C70.648 359.667 71.1428 418.677 82.7366 475.667C102.08 570.745 150.091 647.188 208.033 675.167C258.747 699.656 267.856 760.13 277.502 824.156C292.523 923.849 309.539 1036.84 481.497 1058.66C623.487 1076.31 771.872 1052.93 899.315 992.823C963.065 962.755 1019.9 924.51 1068.24 879.146C1118.39 832.089 1158.14 778.479 1186.41 719.802C1224.62 640.516 1227.91 514.531 1195.23 382.792C1162.72 251.781 1101.75 142.245 1032.13 89.7813C964.992 39.1928 894.002 44.099 826.851 103.953C815.804 113.802 804.711 122.552 793.591 130.281C667.606 217.854 537.763 175.49 422.096 137.76C369.169 120.495 319.185 104.193 274.033 101.854C237.377 99.9532 207.341 107.453 181.804 125.203ZM1003.22 940.234C971.898 962.005 938.158 981.401 902.237 998.25C772.716 1059.01 621.877 1082.52 477.507 1064.45C302.153 1042.11 285.908 927.677 271.575 826.719C262.408 762.125 253.747 701.12 202.179 677.125C172.747 663.427 145.388 637.49 123.059 602.12C101.466 567.912 84.9397 525.599 75.2574 479.755C62.9293 421.344 62.1689 360.521 73.0595 303.875C85.0491 241.547 111.242 185.906 148.82 142.974C180.299 107.13 218.867 91.7292 270.195 94.5209C316.002 97.0105 366.638 113.703 420.242 131.38C547.278 173.266 691.263 220.75 828.539 98.3751C896.882 37.4636 969.143 32.4845 1037.5 84.0001C1108.06 137.172 1169.84 248.068 1202.75 380.641C1235.85 513.958 1232.5 641.526 1193.78 721.88C1165.15 781.318 1124.8 835.609 1073.86 883.25C1051.99 903.708 1028.38 922.74 1003.22 940.234ZM202.596 676.229C254.648 700.453 263.346 761.719 272.554 826.578C286.836 927.188 303.023 1041.22 477.627 1063.47C621.815 1081.52 772.466 1058.04 901.82 997.354C966.513 967.005 1024.17 928.37 1073.18 882.531C1124.03 834.969 1164.31 780.771 1192.9 721.448C1231.51 641.297 1234.84 513.979 1201.79 380.875C1168.93 248.516 1107.29 137.828 1036.91 84.7865C968.966 33.5886 897.138 38.547 829.19 99.1095C818.065 109.031 806.872 117.854 795.669 125.641C668.263 214.219 536.935 170.896 419.929 132.318C366.388 114.662 315.815 97.9897 270.138 95.5053C219.132 92.7345 180.82 108.026 149.559 143.625C112.096 186.422 85.9814 241.906 74.0282 304.057C63.1585 360.578 63.9189 421.26 76.2209 479.552C85.8772 525.281 102.362 567.479 123.893 601.589C146.117 636.802 173.336 662.609 202.596 676.229ZM1008.22 943.484C976.164 965.76 941.58 985.594 904.737 1002.79C773.304 1064.11 620.211 1087.73 473.638 1069.27C295.617 1046.49 280.211 931.005 266.617 829.115C262.138 795.573 257.914 763.896 248.153 737.453C237.226 707.854 220.893 689.026 196.752 678.193C137.419 651.573 89.5595 578.797 68.7366 483.516C55.7001 423.854 54.6741 361.385 65.7834 302.87C77.9866 238.589 104.867 181.255 143.518 137.057C175.356 100.755 214.372 85.2188 266.294 88.172C312.632 90.8126 363.851 107.875 418.08 125.938C546.528 168.729 692.127 217.234 830.877 93.5365C900.023 31.9063 973.112 26.8855 1042.28 79.0001C1113.61 132.75 1176.05 244.792 1209.33 378.719C1242.78 513.406 1239.4 642.302 1200.27 723.516C1171.31 783.604 1130.45 838.484 1078.81 886.63C1056.93 907.026 1033.35 926.01 1008.22 943.484ZM197.158 677.292C250.549 701.245 258.83 763.292 267.591 828.984C281.138 930.521 296.497 1045.61 473.763 1068.29C620.148 1086.73 773.054 1063.15 904.32 1001.89C969.966 971.255 1028.44 932.234 1078.14 885.912C1129.69 837.849 1170.48 783.068 1199.38 723.089C1238.41 642.073 1241.77 513.427 1208.37 378.958C1175.15 245.245 1112.84 133.406 1041.68 79.7865C972.945 27.9897 900.278 32.9897 831.533 94.2709C820.32 104.266 809.044 113.156 797.757 121.005C668.929 210.563 536.101 166.297 417.768 126.875C363.606 108.833 312.445 91.7865 266.237 89.1563C214.643 86.224 175.882 101.651 144.257 137.708C105.726 181.771 78.9241 238.943 66.7574 303.052C55.6741 361.443 56.6897 423.771 69.7053 483.307C90.4605 578.281 138.106 650.797 197.158 677.292ZM1013.21 946.74C980.429 969.526 945.002 989.787 907.237 1007.32C773.893 1069.22 618.533 1092.94 469.773 1074.09C289.075 1050.88 274.502 934.323 261.648 831.49C257.398 797.516 253.388 765.427 243.622 738.734C232.695 708.865 216.08 689.969 191.33 679.26C131.825 653.516 83.5595 581.698 62.2157 487.146C48.4709 426.281 47.1949 362.193 58.523 301.818C70.9449 235.604 98.5022 176.589 138.216 131.141C170.419 94.3751 209.877 78.7084 262.393 81.8282C309.268 84.6095 361.07 102.042 415.914 120.495C545.773 164.193 692.961 213.714 833.216 88.6928C903.148 26.3595 977.086 21.2813 1047.05 74.0053C1119.15 128.328 1182.27 241.526 1215.89 376.802C1249.71 512.854 1246.29 643.083 1206.75 725.156C1177.48 785.901 1136.1 841.365 1083.76 890.016C1061.88 910.344 1038.32 929.287 1013.21 946.74ZM166.825 106.563C156.919 113.448 147.674 121.839 138.955 131.787C99.3616 177.104 71.8824 235.964 59.4866 302C48.1845 362.245 49.4605 426.193 63.1689 486.927C84.4501 581.172 132.502 652.729 191.721 678.354C246.455 702.037 254.309 764.854 262.622 831.365C275.435 933.844 289.955 1049.99 469.893 1073.1C618.476 1091.93 773.643 1068.26 906.815 1006.42C973.419 975.505 1032.72 936.094 1083.09 889.292C1135.34 840.729 1176.64 785.359 1205.86 724.729C1245.31 642.854 1248.7 512.88 1214.93 377.042C1181.36 241.979 1118.38 128.984 1046.46 74.7917C976.914 22.3907 903.408 27.4428 833.872 89.4324C822.57 99.5053 811.211 108.458 799.836 116.37C669.591 206.917 535.263 161.698 415.596 121.432C360.815 103 309.07 85.5886 262.33 82.8126C224.372 80.5574 193.268 88.1824 166.825 106.563ZM1018.21 949.995C984.685 973.297 948.429 993.984 909.731 1011.86C774.481 1074.34 616.862 1098.15 465.903 1078.91C282.523 1055.26 268.789 937.63 256.669 833.849C252.648 799.443 248.856 766.953 239.086 740.01C228.158 709.875 211.257 690.912 185.898 680.328C126.2 655.412 77.5178 584.505 55.6689 490.651C41.2314 428.62 39.7053 362.943 51.2574 300.719C63.9084 232.599 92.1428 171.912 132.908 125.219C165.476 88.0001 205.382 72.198 258.492 75.4792C305.893 78.4115 358.283 96.2084 413.747 115.057C545.013 159.656 693.794 210.214 835.549 83.8542C906.268 20.8074 981.054 15.6824 1051.83 69.0053C1124.68 123.912 1188.48 238.255 1222.46 374.885C1256.63 512.307 1253.18 643.865 1213.23 726.797C1183.64 788.193 1141.74 844.245 1088.7 893.396C1066.83 913.667 1043.28 932.563 1018.21 949.995ZM161.836 100.354C151.82 107.313 142.466 115.802 133.653 125.875C93.0074 172.427 64.8512 232.953 52.2314 300.906C40.7053 362.995 42.2262 428.531 56.6376 490.432C78.4137 583.974 126.877 654.625 186.283 679.422C211.914 690.12 228.987 709.271 240.018 739.682C249.825 766.729 253.627 799.276 257.648 833.734C269.726 937.156 283.414 1054.38 466.028 1077.93C616.81 1097.15 774.242 1073.36 909.32 1010.97C976.872 979.76 1037 939.964 1088.03 892.682C1140.99 843.615 1182.81 787.662 1212.35 726.375C1252.21 643.641 1255.63 512.333 1221.51 375.13C1187.58 238.714 1123.93 124.573 1051.24 69.8022C980.893 16.7917 906.539 21.9063 836.216 84.599C824.83 94.7449 813.382 103.771 801.919 111.74C670.252 203.276 534.429 157.109 413.44 116C358.033 97.172 305.705 79.3907 258.435 76.474C220.028 74.0938 188.58 81.7605 161.836 100.354ZM1023.2 953.26C988.95 977.068 951.856 998.182 912.237 1016.4C775.075 1079.45 615.19 1103.36 462.033 1083.72C379.039 1072.98 323.2 1042.3 291.32 989.912C263.403 944.037 257.45 889.208 251.684 836.188C247.903 801.365 244.33 768.469 234.554 741.281C223.627 710.885 206.445 691.854 180.476 681.396C149.742 669.016 122.367 645.51 99.1064 611.537C77.1428 579.453 59.8616 538.818 49.1272 494.031C33.997 430.875 32.2314 363.635 44.0126 299.573C56.8928 229.563 85.7991 167.224 127.612 119.307C160.544 81.6303 200.893 65.6876 254.596 69.1355C302.528 72.2136 355.507 90.3803 411.591 109.62C544.268 155.125 694.658 206.703 837.893 79.0157C909.403 15.2657 985.039 10.0834 1056.6 64.0157C1130.24 119.495 1194.69 234.995 1229.03 372.974C1263.57 511.76 1260.09 644.651 1219.71 728.448C1189.81 790.495 1147.4 847.135 1093.65 896.787C1071.78 916.99 1048.25 935.849 1023.2 953.26ZM180.841 680.484C207.091 691.057 224.455 710.271 235.481 740.953C245.294 768.245 248.877 801.198 252.669 836.083C264.007 940.464 276.862 1058.76 462.164 1082.74C615.138 1102.36 774.83 1078.47 911.825 1015.5C980.325 984.01 1041.28 943.828 1092.99 896.063C1146.64 846.495 1188.98 789.958 1218.83 728.021C1259.1 644.422 1262.56 511.787 1228.08 373.214C1193.79 235.448 1129.47 120.151 1056.01 64.8022C984.867 11.1876 909.664 16.3647 838.554 79.7553C827.08 89.9792 815.544 99.073 803.997 107.099C670.908 199.63 533.591 152.51 411.268 110.552C355.247 91.3438 302.336 73.1928 254.533 70.1251C201.158 66.7032 161.065 82.5365 128.351 119.964C86.6584 167.745 57.8303 229.922 44.9814 299.76C33.221 363.682 34.9866 430.781 50.0855 493.807C60.7887 538.479 78.0178 579 99.9189 610.984C123.065 644.792 150.294 668.177 180.841 680.484ZM1028.18 956.526C993.205 980.844 955.278 1002.38 914.731 1020.93C775.664 1084.56 613.518 1108.57 458.169 1088.54C373.976 1077.6 317.528 1046.56 285.601 993.646C257.648 947.313 252.08 892.005 246.695 838.516C243.148 803.266 239.794 769.974 230.023 742.552C219.101 711.891 201.632 692.797 175.049 682.464C144.086 670.427 116.507 647.302 93.0855 613.745C71.0074 582.109 53.5387 541.839 42.5699 497.281C26.9814 433.964 24.9241 363.323 36.773 298.385C49.8876 226.5 79.4657 162.531 122.309 113.391C155.606 75.2605 196.403 59.1824 250.7 62.7917C299.169 66.0157 352.726 84.5522 409.429 104.182C543.518 150.594 695.492 203.198 840.242 74.1772C912.549 9.72404 989.018 4.47925 1061.39 59.0157C1135.78 115.073 1200.91 231.724 1235.61 371.052C1270.51 511.208 1266.99 645.422 1226.2 730.083C1195.99 792.787 1153.06 850.016 1098.61 900.167C1076.73 920.318 1053.21 939.135 1028.18 956.526ZM175.403 681.547C202.273 691.995 219.924 711.271 230.95 742.219C240.763 769.755 244.122 803.109 247.674 838.417C258.283 943.755 270.299 1063.15 458.294 1087.56C613.461 1107.56 775.419 1083.58 914.32 1020.04C983.778 988.255 1045.55 947.688 1097.93 899.443C1152.29 849.37 1195.15 792.25 1225.3 729.656C1266 645.198 1269.49 511.229 1234.64 371.292C1200 232.177 1135.01 115.729 1060.78 59.8022C988.836 5.58342 912.789 10.8074 840.888 74.9063C695.711 204.307 543.445 151.604 409.101 105.109C352.461 85.5053 298.961 66.9845 250.627 63.7709C196.664 60.1824 156.122 76.1563 123.044 114.037C80.3199 163.042 50.8199 226.849 37.7366 298.557C25.9137 363.365 27.9657 433.854 43.523 497.042C54.4605 541.484 71.8772 581.641 93.8876 613.172C117.2 646.578 144.627 669.578 175.403 681.547ZM1033.17 959.797C997.466 984.62 958.705 1006.58 917.231 1025.47C776.252 1089.67 611.846 1113.78 454.299 1093.35C368.908 1082.23 311.851 1050.83 279.877 997.37C251.888 950.578 246.705 894.781 241.7 840.828C238.388 805.156 235.263 771.469 225.487 743.807C214.565 712.891 196.815 693.74 169.617 683.531C138.419 671.818 110.632 649.063 87.0439 615.896C64.8459 584.688 47.1897 544.755 35.9918 500.417C19.7366 436.063 17.4449 363.87 29.5282 297.146C42.8876 223.417 73.1324 157.828 117.002 107.479C150.658 68.8855 191.903 52.672 246.799 56.448C295.789 59.8178 349.935 78.724 407.263 98.7397C542.763 146.057 696.341 199.698 842.575 69.3334C915.669 4.18237 992.981 -1.11971 1066.16 54.0157C1141.33 110.656 1207.12 228.458 1242.17 369.141C1277.43 510.656 1273.88 646.203 1232.68 731.729C1202.15 795.083 1158.71 852.896 1103.55 903.552C1081.67 923.646 1058.17 942.422 1033.17 959.797ZM169.966 682.609C197.45 692.927 215.393 712.271 226.419 743.479C236.231 771.26 239.367 805.005 242.684 840.74C252.554 947.042 263.737 1067.53 454.429 1092.38C611.794 1112.78 776.007 1088.7 916.825 1024.57C987.231 992.51 1049.83 951.552 1102.88 902.828C1157.95 852.255 1201.32 794.547 1231.79 731.302C1272.9 645.984 1276.42 510.682 1241.22 369.38C1206.22 228.912 1140.55 111.313 1065.56 54.8074C992.815 -0.0103353 915.935 5.26571 843.226 70.073C831.58 80.4532 819.877 89.6772 808.153 97.8282C672.231 192.323 531.914 143.313 406.94 99.672C349.679 79.6772 295.591 60.7917 246.731 57.4324C192.174 53.6824 151.19 69.7865 117.752 108.125C73.997 158.339 43.8303 223.766 30.5074 297.323C18.4397 363.917 20.7314 435.953 36.9501 500.177C48.1168 544.396 65.7209 584.214 87.8512 615.328C111.325 648.328 138.955 670.969 169.966 682.609ZM1038.16 963.073C1001.72 988.401 962.127 1010.79 919.731 1030.01C776.846 1094.78 610.174 1118.99 450.429 1098.18C363.836 1086.85 306.174 1055.1 274.148 1001.09C246.122 953.833 241.336 897.552 236.7 843.125C233.627 807.042 230.726 772.958 220.955 745.063C210.039 713.896 192.002 694.682 164.195 684.599C102.549 662.25 53.4241 596.224 29.4085 503.443C12.497 438.083 9.97095 364.365 22.2991 295.865C35.9032 220.307 66.8147 153.115 111.7 101.563C145.726 62.5157 187.414 46.1667 242.898 50.1042C292.424 53.6199 347.153 72.8959 405.096 93.3074C542.007 141.526 697.19 196.188 844.914 64.5001C918.794 -1.3645 996.961 -6.71867 1070.93 49.0261C1146.87 106.245 1213.34 225.198 1248.74 367.229C1284.36 510.115 1280.78 646.995 1239.16 733.375C1208.32 797.391 1164.36 855.781 1108.5 906.943C1086.62 926.974 1063.13 945.719 1038.16 963.073ZM141.862 75.4949C131.408 82.7657 121.648 91.6511 112.445 102.208C67.6793 153.63 36.8407 220.651 23.273 296.037C10.9657 364.401 13.4866 437.969 30.3668 503.193C54.2939 595.656 103.195 661.438 164.528 683.672C192.638 693.865 210.862 713.266 221.888 744.74C231.7 772.75 234.606 806.896 237.684 843.047C242.304 897.359 247.086 953.526 274.997 1000.59C306.856 1054.32 364.283 1085.92 450.56 1097.2C610.122 1117.99 776.601 1093.81 919.325 1029.11C990.679 996.766 1054.1 955.417 1107.83 906.214C1163.6 855.141 1207.49 796.849 1238.27 732.953C1279.79 646.766 1283.35 510.135 1247.79 367.469C1212.43 225.651 1146.1 106.901 1070.34 49.8178C996.789 -5.60409 919.075 -0.281169 845.57 65.2397C833.841 75.6928 822.044 84.9949 810.237 93.2032C672.888 188.698 531.08 138.729 404.773 94.2449C346.893 73.8595 292.221 54.6042 242.83 51.0938C202.69 48.2397 169.809 56.0678 141.862 75.4949ZM1043.14 966.354C1005.98 992.188 965.554 1014.99 922.231 1034.55C777.435 1099.89 608.502 1124.2 446.565 1102.99C358.763 1091.47 300.492 1059.36 268.419 1004.81C240.356 957.083 235.95 900.307 231.695 845.412C228.867 808.912 226.195 774.438 216.424 746.313C205.513 714.891 187.19 695.62 158.768 685.667C96.7991 663.969 47.247 598.609 22.8147 506.349C5.24699 440.021 2.5022 364.792 15.0803 294.537C28.9293 217.167 60.5074 148.391 106.398 95.6459C140.789 56.1407 182.919 39.6563 238.997 43.7605C289.054 47.422 344.372 67.0678 402.935 87.8647C541.257 136.99 698.033 192.662 847.252 59.6563C921.929 -6.90617 1000.93 -12.3176 1075.71 44.0261C1152.41 101.823 1219.55 221.927 1255.31 365.313C1291.29 509.563 1287.67 647.776 1245.64 735.016C1214.49 799.682 1170.01 858.667 1113.44 910.323C1091.56 930.307 1068.09 949.01 1043.14 966.354ZM136.872 69.2865C126.304 76.6303 116.445 85.6147 107.143 96.2917C61.372 148.906 29.8668 217.516 16.0491 294.708C3.49699 364.828 6.23657 439.901 23.7626 506.099C48.1116 598.037 97.4397 663.146 159.096 684.734C187.825 694.797 206.341 714.255 217.362 745.984C227.169 774.234 229.846 808.771 232.679 845.333C236.929 900.12 241.32 956.776 269.273 1004.31C301.179 1058.58 359.216 1090.54 446.695 1102.01C608.455 1123.19 777.195 1098.91 921.825 1033.65C994.132 1001.02 1058.38 959.276 1112.78 909.594C1169.25 858.021 1213.65 799.141 1244.75 734.589C1286.69 647.547 1290.28 509.589 1254.36 365.552C1218.65 222.38 1151.64 102.474 1075.12 44.8178C1000.77 -11.2135 922.2 -5.82284 847.908 60.3959C836.091 70.9324 824.211 80.2917 812.31 88.5678C673.549 185.037 530.242 134.125 402.601 88.797C344.101 68.0209 288.851 48.3959 238.929 44.7449C198.351 41.7761 165.122 49.6459 136.872 69.2865ZM1048.12 969.635C1010.24 995.969 968.976 1019.2 924.731 1039.08C778.018 1105 606.83 1129.41 442.695 1107.81C353.685 1096.1 294.804 1063.62 262.679 1008.52C234.58 960.323 230.565 903.063 226.69 847.682C221.445 772.859 216.919 708.24 153.341 686.734C91.0282 665.656 41.0439 600.932 16.2001 509.156C-2.01343 441.88 -4.97697 365.172 7.85637 293.162C21.9657 214.005 54.2053 143.662 101.096 89.7292C135.841 49.7709 178.424 33.1459 235.101 37.4167C285.685 41.224 341.586 61.2397 400.768 82.4272C540.502 132.458 698.882 189.156 849.591 54.8178C925.06 -12.4583 1004.91 -17.9166 1080.49 39.0313C1157.95 97.4063 1225.76 218.662 1261.88 363.396C1298.22 509.016 1294.57 648.552 1252.12 736.662C1220.65 801.979 1175.66 861.547 1118.39 913.708C1096.51 933.641 1073.04 952.313 1048.12 969.635ZM153.653 685.802C183.007 695.729 201.809 715.25 212.825 747.234C222.632 775.714 225.08 810.641 227.669 847.615C231.544 902.875 235.544 960.026 263.533 1008.03C295.487 1062.84 354.138 1095.16 442.82 1106.83C606.778 1128.41 777.778 1104.03 924.32 1038.18C997.58 1005.27 1062.65 963.146 1117.72 912.979C1174.9 860.906 1219.81 801.438 1251.23 736.234C1293.59 648.328 1297.21 509.037 1260.92 363.635C1224.85 219.115 1157.18 98.0626 1079.89 39.8178C1004.74 -16.8124 925.325 -11.3645 850.242 55.5522C699.101 190.287 540.424 133.479 400.435 83.3595C341.315 62.1928 285.476 42.198 235.023 38.3959C178.684 34.1563 136.362 50.672 101.836 90.3803C55.0647 144.172 22.9032 214.354 8.83032 293.339C-3.97697 365.203 -1.02384 441.76 17.1532 508.901C41.9085 600.354 91.6637 664.828 153.653 685.802Z" fill="black"/>
</svg>
